<svg width="60" height="60" viewBox="0 0 60 60" fill="none" xmlns="http://www.w3.org/2000/svg">
<path d="M49.3092 37.3083L48.1875 35.8061C47.741 35.2086 47.5502 34.4582 47.6571 33.7199C47.7639 32.9817 48.1596 32.3162 48.7571 31.8697C49.2055 31.5336 49.7443 31.3398 50.304 31.3133L51.511 35.2008L49.3092 37.3083Z" fill="#D6A27F"/>
<path d="M50.3038 31.3133C50.7638 31.2908 51.2224 31.3817 51.639 31.5781C52.0557 31.7744 52.4177 32.0702 52.6931 32.4394L53.8154 33.9413C54.0365 34.2372 54.1972 34.5738 54.2882 34.9317C54.3792 35.2897 54.3988 35.6621 54.3459 36.0276C54.293 36.3932 54.1686 36.7447 53.9799 37.0622C53.7911 37.3796 53.5417 37.6568 53.2458 37.8779C52.9499 38.099 52.6134 38.2596 52.2554 38.3506C51.8974 38.4417 51.5251 38.4613 51.1595 38.4084C50.794 38.3555 50.4424 38.2311 50.125 38.0424C49.8075 37.8536 49.5303 37.6041 49.3092 37.3083L51.0938 34.8738L50.3038 31.3133Z" fill="#7A4922"/>
<path d="M45 16.875L34.6875 12.1875L32.4902 8.23242L28.3393 9.61605L30 18.75L45 16.875Z" fill="#FFAD00"/>
<path d="M30 3.75L25.3125 6.5625L28.125 8.4375L28.3393 9.61605L32.4902 8.23242L30 3.75ZM19.6875 9.375L15.9375 12.1875L18.75 13.125L20.4166 15.4167L22.5323 11.1853L19.6875 9.375Z" fill="#D6A27F"/>
<path d="M51.2645 24.9293L45 16.875L30 15.9375L22.5323 11.1853L20.4166 15.4167L25.548 22.4722C25.7655 22.7712 26.0506 23.0145 26.38 23.1823C26.7094 23.35 27.0739 23.4375 27.4436 23.4375H36.5625L41.25 29.0625L38.4375 35.625V44.0625H43.125L44.0625 37.5L50.625 32.8125L51.5023 25.7941C51.5214 25.6414 51.5102 25.4865 51.4694 25.3381C51.4286 25.1897 51.359 25.0508 51.2645 24.9293Z" fill="url(#paint0_linear_94_108)"/>
<path d="M48.0738 20.8266L39.6879 27.1887L38.4867 25.7473L46.9231 19.3465L48.0738 20.8266Z" fill="#007AF6"/>
<path d="M48.0738 20.8266L39.6879 27.1887L38.4867 25.7473L46.9231 19.3465L48.0738 20.8266Z" fill="#BBBAB6"/>
<path d="M45.9375 51.5625V54.375L42.037 56.3252C42.299 56.5982 42.6135 56.8153 42.9616 56.9635C43.3097 57.1117 43.6842 57.1879 44.0625 57.1875H45.9375C46.6834 57.1875 47.3988 56.8912 47.9262 56.3637C48.4537 55.8363 48.75 55.1209 48.75 54.375C48.75 53.6291 48.4537 52.9137 47.9262 52.3863C47.3988 51.8588 46.6834 51.5625 45.9375 51.5625Z" fill="#4A4B46"/>
<path d="M45.9375 51.5625H44.0625C43.5107 51.5623 42.9711 51.7245 42.5109 52.0288C42.0507 52.3331 41.6901 52.7661 41.4742 53.2738C41.2583 53.7816 41.1965 54.3416 41.2966 54.8842C41.3966 55.4268 41.6542 55.9279 42.037 56.3252L45.9375 54.375V51.5625Z" fill="#FDC9A6"/>
<path d="M35.2341 40.3522C35.357 40.0449 35.4134 39.7151 35.3997 39.3844C35.3859 39.0537 35.3023 38.7297 35.1543 38.4336L31.7708 31.6666L27.0089 32.8571L28.125 38.4375L23.4375 45.9375L19.285 42.4771C18.3335 41.6842 17.1343 41.25 15.8958 41.25C14.809 41.25 13.7486 41.5844 12.8585 42.2079C11.9683 42.8313 11.2916 43.7136 10.9202 44.7349L9.14062 49.6289L13.5417 50.7292L15 47.8125L22.7392 56.4116C22.959 56.6558 23.2276 56.8511 23.5277 56.9847C23.8279 57.1184 24.1527 57.1875 24.4813 57.1875H30.8203L31.875 48.75L35.2341 40.3522Z" fill="#343434"/>
<path d="M8.4375 51.5625L5.625 53.4375L11.25 55.3125L13.5417 50.7292L9.14062 49.6289L8.4375 51.5625ZM30.9375 30V27.1875L26.25 29.0625L27.0089 32.8572L31.7708 31.6666L30.9375 30Z" fill="#FDC9A6"/>
<path d="M38.4375 41.25L36.5625 48.75H31.875L30.8203 57.1875H39.375L42.1875 56.25L43.125 49.6875L44.0625 44.0625L42.1875 40.3125L38.4375 41.25Z" fill="#343434"/>
<path d="M45.9375 39.375L42.1875 40.3125L44.0625 44.0625L46.875 41.25L45.9375 39.375Z" fill="#FDC9A6"/>
<path d="M31.9922 57.1875H30.8203L31.875 48.75H33.0469L31.9922 57.1875Z" fill="#BBBAB6"/>
<defs>
<linearGradient id="paint0_linear_94_108" x1="52.8104" y1="11.1854" x2="19.302" y2="11.4407" gradientUnits="userSpaceOnUse">
<stop stop-color="#FFD600"/>
<stop offset="1" stop-color="#FFAD00"/>
</linearGradient>
</defs>
</svg>
