<svg width="60" height="60" viewBox="0 0 60 60" fill="none" xmlns="http://www.w3.org/2000/svg">
<g clip-path="url(#clip0_66_34)">
<mask id="mask0_66_34" style="mask-type:luminance" maskUnits="userSpaceOnUse" x="0" y="0" width="60" height="60">
<path d="M0 0.000175476H59.9998V60H0V0.000175476Z" fill="white"/>
</mask>
<g mask="url(#mask0_66_34)">
<path d="M16.3692 7.21229C14.6695 7.21218 15.3921 7.18054 13.0004 7.36722C10.5001 7.56239 8.17275 8.71881 6.50705 10.5936C5.61244 11.6004 4.2226 12.0077 2.93964 11.5977L1.75781 11.2199C1.75781 11.2199 1.15418 23.8628 4.80233 25.4529H28.1289V18.9691C28.1289 12.4752 22.8631 7.21241 16.3692 7.21229Z" fill="#343434"/>
<path d="M10.3623 39.5742V39.5707H6.7931C4.07788 39.5707 1.87663 41.7718 1.87663 44.4872V52.6618H28.1288V44.4872C28.1288 41.7718 25.9277 39.5707 23.2123 39.5707H19.6433V39.5742H10.3623Z" fill="#5A5A5A"/>
<path d="M10.3452 35.8664V39.5741C10.3452 42.137 12.4228 44.2146 14.9856 44.2146C17.5485 44.2146 19.6261 42.137 19.6261 39.5741V35.8664H10.3452Z" fill="#FFCEBF"/>
<path d="M10.8452 39.5742C10.8452 39.6712 10.8488 39.7678 10.8558 39.8639C12.1315 40.3969 13.5342 40.692 15.0081 40.692C16.4642 40.692 17.8509 40.4039 19.1142 39.883C19.1221 39.7807 19.1261 39.6778 19.1261 39.5742V36.3666H10.8452V39.5742Z" fill="#FFAD00" stroke="#FFAD00" stroke-width="0.999997"/>
<path d="M9.53598 30.0895H3.79897C1.70085 30.0895 -0.00012207 28.3886 -0.00012207 26.2904C-0.00012207 24.1923 1.70085 22.4913 3.79897 22.4913H9.53598V30.0895Z" fill="#FFAF9E"/>
<path d="M20.4695 22.4913H26.2064C28.3047 22.4913 30.0056 24.1923 30.0056 26.2904C30.0056 28.3886 28.3047 30.0895 26.2064 30.0895H20.4695V22.4913Z" fill="#FFAF9E"/>
<path d="M3.83647 24.1972V28.3836C3.83647 34.4834 8.83814 39.4285 15.0082 39.4285C21.1781 39.4285 26.1798 34.4834 26.1798 28.3836V24.1972C26.1798 18.0971 21.1781 13.1522 15.0082 13.1522C8.83814 13.1522 3.83647 18.0971 3.83647 24.1972Z" fill="#FFCEBF"/>
<path d="M25.6798 24.1973C25.6798 19.5266 22.6045 15.5607 18.3397 14.1776C21.8464 16.1677 24.2111 19.907 24.2111 24.1973V28.3836C24.2111 32.6737 21.8466 36.4128 18.3401 38.403C22.6046 37.0198 25.6798 33.054 25.6798 28.3836V24.1973Z" fill="#FFAD00" stroke="#FFAD00" stroke-width="0.999997"/>
<path d="M16.8358 7.22401H14.8619C14.5408 7.24182 14.0998 7.28143 13.0004 7.36733C10.585 7.55587 8.32769 8.64197 6.6731 10.4117V15.3195C6.6731 19.2805 9.88402 22.4913 13.8449 22.4913H28.1289V18.9692C28.1289 12.6316 23.1136 7.46788 16.8358 7.22401Z" fill="#343434"/>
<path d="M16.8358 7.22401H14.8619C14.5914 7.23901 14.2343 7.2696 13.472 7.33007C19.1839 8.13209 23.5793 13.0361 23.5793 18.9692V22.4913H28.1289V18.9692C28.1289 12.6316 23.1136 7.46788 16.8358 7.22401Z" fill="#444444"/>
<path d="M23.2124 39.5706H19.6434V39.5742H19.4747C22.1243 39.6494 24.2495 41.8194 24.2495 44.4871V52.6617H28.129V44.4871C28.129 41.7718 25.9278 39.5706 23.2124 39.5706Z" fill="#343434"/>
<path d="M36.3654 40.2703H35.8828C33.2625 40.2703 31.1383 42.3946 31.1383 45.0149V52.7899H55.3359V45.0149C55.3359 42.3946 53.2116 40.2703 50.5912 40.2703H36.3654Z" fill="#5A5A5A"/>
<path d="M50.5912 40.2703H46.7052C49.3256 40.2703 51.4498 42.3946 51.4498 45.0149V52.7899H55.3359V45.0149C55.3359 42.3946 53.2116 40.2703 50.5912 40.2703Z" fill="#343434"/>
<path d="M43.2213 45.2673C40.9389 45.2673 39.0887 43.4172 39.0887 41.1347V31.1895H47.3539V41.1347C47.3539 43.4172 45.5037 45.2673 43.2213 45.2673Z" fill="#FFCEBF"/>
<path d="M39.5887 31.6895V40.2174C40.739 40.6902 41.9718 40.9334 43.2176 40.9322L43.2185 40.9322C44.4666 40.9334 45.7017 40.6892 46.8539 40.2148V31.6895H39.5887Z" fill="#FFAD00" stroke="#FFAD00" stroke-width="0.999997"/>
<path d="M57.9345 41.5378H59.9998V35.8512C59.9998 32.53 57.3074 29.8375 53.9862 29.8375H51.9209V35.5244C51.9209 38.8455 54.6133 41.5378 57.9345 41.5378Z" fill="#5A5A5A"/>
<path d="M53.9862 29.8375H51.9209V30.0106C54.5505 30.6532 56.5024 33.0236 56.5024 35.8511V41.3649C56.9711 41.4797 57.4519 41.5378 57.9345 41.538H59.9998V35.8511C59.9998 32.53 57.3074 29.8375 53.9862 29.8375Z" fill="#444444"/>
<path d="M28.4774 41.5378H26.4121V35.8512C26.4121 32.53 29.1045 29.8375 32.4257 29.8375H34.491V35.5244C34.491 38.8455 31.7986 41.5378 28.4774 41.5378Z" fill="#5A5A5A"/>
<path d="M38.3532 31.1895H33.2311C31.361 31.1895 29.8451 29.6735 29.8451 27.8034C29.8451 25.9333 31.361 24.4174 33.2311 24.4174H38.3532V31.1895Z" fill="#FFAF9E"/>
<path d="M48.0588 24.4174H53.1808C55.051 24.4174 56.5669 25.9334 56.5669 27.8035C56.5669 29.6736 55.051 31.1895 53.1808 31.1895H48.0588V24.4174Z" fill="#FFAF9E"/>
<path d="M43.218 16.1086C37.7177 16.1086 33.2589 20.5123 33.2589 25.9448V29.6684C33.2589 35.1007 37.7177 39.5045 43.218 39.5045C48.7183 39.5045 53.1772 35.1007 53.1772 29.6684V25.9448C53.1772 20.5123 48.7183 16.1086 43.218 16.1086Z" fill="#FFCEBF"/>
<path d="M44.9402 38.8502C49.3459 38.0507 52.6772 34.2395 52.6772 29.6684V25.9448C52.6772 21.3735 49.3458 17.5622 44.9399 16.7628C48.2964 18.4818 50.593 21.9456 50.593 25.9448V29.6684C50.593 33.6674 48.2965 37.1311 44.9402 38.8502Z" fill="#FFAD00" stroke="#FFAD00" stroke-width="0.999997"/>
<path d="M44.2618 10.3653C43.9818 10.3653 43.7133 10.4766 43.5153 10.6745C43.3172 10.8725 43.206 11.1411 43.206 11.4211C43.2059 11.1411 43.0947 10.8725 42.8967 10.6745C42.6987 10.4766 42.4301 10.3653 42.1501 10.3653C35.8575 10.3653 30.7563 15.4665 30.7563 21.7591V24.4174H37.405C40.6087 24.4174 43.2058 21.8203 43.206 18.6166C43.2061 21.8203 45.8032 24.4174 49.007 24.4174H55.6556V21.7591C55.6556 15.4665 50.5544 10.3653 44.2618 10.3653Z" fill="#5A5A5A"/>
<path d="M44.2618 10.3653C44.1181 10.3653 43.9759 10.3947 43.844 10.4518C43.712 10.5088 43.5932 10.5923 43.4948 10.6971C48.4684 11.9206 52.1581 16.4079 52.1581 21.7591V24.4174H55.6555V21.7591C55.6555 15.4665 50.5544 10.3653 44.2618 10.3653Z" fill="#444444"/>
</g>
</g>
<defs>
<clipPath id="clip0_66_34">
<rect width="60" height="60" fill="white"/>
</clipPath>
</defs>
</svg>
