<svg width="60" height="60" viewBox="0 0 60 60" fill="none" xmlns="http://www.w3.org/2000/svg">
<g clip-path="url(#clip0_9_159)">
<path d="M14.375 42.5H5.625C3.9025 42.5 2.5 43.9025 2.5 45.625V58.125C2.5 59.16 3.34 60 4.375 60H15.625C16.1223 60 16.5992 59.8025 16.9508 59.4508C17.3025 59.0992 17.5 58.6223 17.5 58.125V45.625C17.5 43.9025 16.0975 42.5 14.375 42.5Z" fill="#FFAD00"/>
<path d="M34.375 27.5H25.625C23.9025 27.5 22.5 28.9025 22.5 30.625V58.125C22.5 59.16 23.34 60 24.375 60H35.625C36.1223 60 36.5992 59.8025 36.9508 59.4508C37.3025 59.0992 37.5 58.6223 37.5 58.125V30.625C37.5 28.9025 36.0975 27.5 34.375 27.5Z" fill="#FFAD00"/>
<path d="M54.375 32.5H45.625C43.9025 32.5 42.5 33.9025 42.5 35.625V58.125C42.5 59.16 43.34 60 44.375 60H55.625C56.1223 60 56.5992 59.8025 56.9508 59.4508C57.3025 59.0992 57.5 58.6223 57.5 58.125V35.625C57.5 33.9025 56.0975 32.5 54.375 32.5Z" fill="#FFAD00"/>
<path d="M10 42.5H5.625C3.9025 42.5 2.5 43.9025 2.5 45.625V58.125C2.5 59.16 3.34 60 4.375 60H10V42.5Z" fill="#FFD600"/>
<path d="M30 27.5H25.625C23.9025 27.5 22.5 28.9025 22.5 30.625V58.125C22.5 59.16 23.34 60 24.375 60H30V27.5Z" fill="#FFD600"/>
<path d="M50 32.5H45.625C43.9025 32.5 42.5 33.9025 42.5 35.625V58.125C42.5 59.16 43.34 60 44.375 60H50V32.5Z" fill="#FFD600"/>
<path d="M7.5 27.5C6.99334 27.4996 6.49876 27.3452 6.0818 27.0574C5.66484 26.7695 5.34517 26.3618 5.16516 25.8882C4.98515 25.4146 4.9533 24.8975 5.07381 24.4053C5.19433 23.9132 5.46152 23.4693 5.84 23.1325L17.09 13.1325C17.625 12.655 18.34 12.4325 19.05 12.52L38.5075 14.8775L49.53 4.43499C49.7685 4.20929 50.0491 4.03276 50.3559 3.91551C50.6626 3.79826 50.9894 3.74257 51.3177 3.75162C51.6459 3.76068 51.9692 3.8343 52.269 3.96828C52.5688 4.10226 52.8393 4.29398 53.065 4.53249C53.2907 4.77101 53.4672 5.05164 53.5845 5.35838C53.7017 5.66511 53.7574 5.99193 53.7484 6.32019C53.7393 6.64844 53.6657 6.9717 53.5317 7.2715C53.3977 7.57131 53.206 7.84178 52.9675 8.06749L41.0925 19.3175C40.8252 19.5699 40.5058 19.7605 40.1567 19.8758C39.8077 19.9912 39.4375 20.0284 39.0725 19.985L19.5675 17.6175L9.16 26.87C8.685 27.29 8.09 27.5 7.5 27.5Z" fill="#5F5F5F"/>
<path d="M53.125 15C52.8788 15.0003 52.6349 14.9519 52.4075 14.8575C52.1801 14.7631 51.9736 14.6246 51.8 14.45L43.05 5.7C42.7881 5.43778 42.6098 5.10384 42.5376 4.74034C42.4654 4.37684 42.5025 4.0001 42.6443 3.65769C42.7861 3.31528 43.0261 3.02257 43.3342 2.81652C43.6422 2.61047 44.0044 2.50033 44.375 2.5H53.125C53.6223 2.5 54.0992 2.69754 54.4508 3.04917C54.8025 3.40081 55 3.87772 55 4.375V13.125C55 13.6223 54.8025 14.0992 54.4508 14.4508C54.0992 14.8025 53.6223 15 53.125 15Z" fill="#5F5F5F"/>
<path d="M47.1225 9.77252L38.75 17.5L19.3125 15.07C19.1359 15.0477 18.9565 15.0636 18.7866 15.1167C18.6166 15.1697 18.4601 15.2587 18.3275 15.3775L5.63251 26.6625L5.75001 26.785C6.20141 27.2294 6.80496 27.4855 7.43821 27.5013C8.07147 27.5171 8.68702 27.2914 9.16001 26.87L19.5675 17.6175L39.075 19.9825C39.4397 20.0263 39.8095 19.9892 40.1582 19.8738C40.5069 19.7584 40.8259 19.5677 41.0925 19.315L49.0875 11.74L47.1225 9.77252Z" fill="#343434"/>
<path d="M54.4275 3.02753L47.12 9.77253L49.0875 11.74L51.8 14.45C52.0613 14.7134 52.3952 14.8929 52.7591 14.9655C53.1229 15.038 53.5001 15.0005 53.8425 14.8575C54.1852 14.7156 54.478 14.4752 54.6841 14.1669C54.8901 13.8585 55.0001 13.4959 55 13.125V4.37503C55.0001 4.12346 54.9495 3.87446 54.8511 3.64292C54.7527 3.41138 54.6087 3.20208 54.4275 3.02753Z" fill="#343434"/>
</g>
<defs>
<clipPath id="clip0_9_159">
<rect width="60" height="60" fill="white"/>
</clipPath>
</defs>
</svg>
