<svg width="1536" height="845" viewBox="0 0 1536 845" fill="none" xmlns="http://www.w3.org/2000/svg">
<mask id="mask0_31_22044" style="mask-type:alpha" maskUnits="userSpaceOnUse" x="0" y="-60" width="1537" height="905">
<path d="M0.5 -60H1536.5V745L353 845L0.5 745V-60Z" fill="white"/>
</mask>
<g mask="url(#mask0_31_22044)">
<path d="M1668.37 38.7408L1660.5 49.3559L1485.7 -80.2934L1423.66 -288.89L1436.32 -292.658L1497.12 -88.284L1668.37 38.7408Z" fill="#F5F5F5"/>
<path d="M1668.37 38.7408L1660.5 49.3559L1485.7 -80.2934L1423.66 -288.89L1436.32 -292.658L1497.12 -88.284L1668.37 38.7408Z" fill="url(#paint0_linear_31_22044)"/>
<path d="M1642.66 201.398L1630.06 205.121L1596.8 93.2818L1422.45 -36.0022L1360.59 -244.051L1266.88 -313.562L1274.68 -324.132L1371.94 -251.996L1433.86 -43.9929L1608.14 85.3369L1642.66 201.398Z" fill="#F5F5F5"/>
<path d="M1642.66 201.398L1630.06 205.121L1596.8 93.2818L1422.45 -36.0022L1360.59 -244.051L1266.88 -313.562L1274.68 -324.132L1371.94 -251.996L1433.86 -43.9929L1608.14 85.3369L1642.66 201.398Z" fill="url(#paint1_linear_31_22044)"/>
<path d="M1614.64 343.47L1606.78 354.03L1595.4 345.621L1533.54 137.573L1359.2 8.28855L1297.34 -199.76L1122.99 -329.044L1118.98 -342.612L1131.6 -346.39L1134.4 -337.035L1308.68 -207.705L1370.61 0.297926L1544.9 129.572L1606.81 337.631L1614.64 343.47Z" fill="#F5F5F5"/>
<path d="M1614.64 343.47L1606.78 354.03L1595.4 345.621L1533.54 137.573L1359.2 8.28855L1297.34 -199.76L1122.99 -329.044L1118.98 -342.612L1131.6 -346.39L1134.4 -337.035L1308.68 -207.705L1370.61 0.297926L1544.9 129.572L1606.81 337.631L1614.64 343.47Z" fill="url(#paint2_linear_31_22044)"/>
<path d="M1600.42 424.129L1592.55 434.688L1532.14 389.912L1470.29 181.864L1295.94 52.5795L1234.08 -155.469L1059.74 -284.753L1038.32 -356.834L1050.94 -360.612L1071.15 -292.744L1245.5 -163.46L1307.35 44.5889L1481.7 173.873L1543.56 381.922L1600.42 424.129Z" fill="#F5F5F5"/>
<path d="M1600.42 424.129L1592.55 434.688L1532.14 389.912L1470.29 181.864L1295.94 52.5795L1234.08 -155.469L1059.74 -284.753L1038.32 -356.834L1050.94 -360.612L1071.15 -292.744L1245.5 -163.46L1307.35 44.5889L1481.7 173.873L1543.56 381.922L1600.42 424.129Z" fill="url(#paint3_linear_31_22044)"/>
<path d="M1586.2 504.787L1578.33 515.347L1468.89 434.203L1407.03 226.155L1232.69 96.8705L1170.83 -111.178L996.485 -240.462L957.666 -371.057L970.278 -374.835L1007.9 -248.453L1182.24 -119.169L1244.1 88.8798L1418.45 218.164L1480.3 426.213L1586.2 504.787Z" fill="#F5F5F5"/>
<path d="M1586.2 504.787L1578.33 515.347L1468.89 434.203L1407.03 226.155L1232.69 96.8705L1170.83 -111.178L996.485 -240.462L957.666 -371.057L970.278 -374.835L1007.9 -248.453L1182.24 -119.169L1244.1 88.8798L1418.45 218.164L1480.3 426.213L1586.2 504.787Z" fill="url(#paint4_linear_31_22044)"/>
<path d="M1571.97 585.446L1564.11 596.006L1405.64 478.494L1343.78 270.445L1169.43 141.161L1107.58 -66.8874L933.231 -196.171L877.007 -385.279L889.619 -389.057L944.642 -204.162L1118.99 -74.878L1180.85 133.171L1355.19 262.455L1417.05 470.504L1571.97 585.446Z" fill="#F5F5F5"/>
<path d="M1571.97 585.446L1564.11 596.006L1405.64 478.494L1343.78 270.445L1169.43 141.161L1107.58 -66.8874L933.231 -196.171L877.007 -385.279L889.619 -389.057L944.642 -204.162L1118.99 -74.878L1180.85 133.171L1355.19 262.455L1417.05 470.504L1571.97 585.446Z" fill="url(#paint5_linear_31_22044)"/>
<path d="M1551.02 721.162L1538.41 724.884L1516.73 652.069L1342.38 522.785L1280.53 314.736L1106.18 185.452L1044.32 -22.5966L869.977 -151.881L808.119 -359.929L747.112 -405.211L754.921 -415.78L819.531 -367.92L881.388 -159.871L1055.73 -30.5872L1117.59 177.462L1291.94 306.746L1353.79 514.795L1528.14 644.079L1551.02 721.162Z" fill="#F5F5F5"/>
<path d="M1551.02 721.162L1538.41 724.884L1516.73 652.069L1342.38 522.785L1280.53 314.736L1106.18 185.452L1044.32 -22.5966L869.977 -151.881L808.119 -359.929L747.112 -405.211L754.921 -415.78L819.531 -367.92L881.388 -159.871L1055.73 -30.5872L1117.59 177.462L1291.94 306.746L1353.79 514.795L1528.14 644.079L1551.02 721.162Z" fill="url(#paint6_linear_31_22044)"/>
<path d="M1522.58 882.424L1509.97 886.201L1453.47 696.36L1279.14 567.021L1217.27 359.027L1042.94 229.688L981.068 21.6944L806.778 -107.58L744.865 -315.639L585.795 -433.655L593.659 -444.215L756.277 -323.629L818.135 -115.58L992.48 13.7037L1054.34 221.753L1228.68 351.037L1290.54 559.086L1464.89 688.37L1522.58 882.424Z" fill="#F5F5F5"/>
<path d="M1522.58 882.424L1509.97 886.201L1453.47 696.36L1279.14 567.021L1217.27 359.027L1042.94 229.688L981.068 21.6944L806.778 -107.58L744.865 -315.639L585.795 -433.655L593.659 -444.215L756.277 -323.629L818.135 -115.58L992.48 13.7037L1054.34 221.753L1228.68 351.037L1290.54 559.086L1464.89 688.37L1522.58 882.424Z" fill="url(#paint7_linear_31_22044)"/>
<path d="M1504.03 970.778L1496.17 981.338L1452.14 948.654L1390.22 740.651L1215.94 611.321L1154.02 403.318L979.737 273.989L917.814 65.9853L743.534 -63.3444L681.611 -271.348L507.331 -400.677L491.675 -453.223L504.287 -457.001L518.677 -408.622L693.023 -279.338L754.88 -71.2893L929.226 57.9947L991.084 266.044L1165.43 395.328L1227.29 603.376L1401.63 732.661L1463.49 940.709L1504.03 970.778Z" fill="#F5F5F5"/>
<path d="M1504.03 970.778L1496.17 981.338L1452.14 948.654L1390.22 740.651L1215.94 611.321L1154.02 403.318L979.737 273.989L917.814 65.9853L743.534 -63.3444L681.611 -271.348L507.331 -400.677L491.675 -453.223L504.287 -457.001L518.677 -408.622L693.023 -279.338L754.88 -71.2893L929.226 57.9947L991.084 266.044L1165.43 395.328L1227.29 603.376L1401.63 732.661L1463.49 940.709L1504.03 970.778Z" fill="url(#paint8_linear_31_22044)"/>
<path d="M1489.81 1051.44L1481.94 1062L1388.89 992.945L1326.97 784.942L1152.69 655.612L1090.76 447.609L916.483 318.279L854.56 110.276L680.28 -19.0535L618.357 -227.057L444.077 -356.386L411.016 -467.446L423.628 -471.224L455.423 -364.331L629.769 -235.047L691.627 -26.9985L865.972 102.286L927.83 310.334L1102.17 439.619L1164.03 647.667L1338.38 776.951L1400.24 985L1489.81 1051.44Z" fill="#F5F5F5"/>
<path d="M1489.81 1051.44L1481.94 1062L1388.89 992.945L1326.97 784.942L1152.69 655.612L1090.76 447.609L916.483 318.279L854.56 110.276L680.28 -19.0535L618.357 -227.057L444.077 -356.386L411.016 -467.446L423.628 -471.224L455.423 -364.331L629.769 -235.047L691.627 -26.9985L865.972 102.286L927.83 310.334L1102.17 439.619L1164.03 647.667L1338.38 776.951L1400.24 985L1489.81 1051.44Z" fill="url(#paint9_linear_31_22044)"/>
<path d="M1475.58 1132.1L1467.72 1142.66L1325.64 1037.24L1263.71 829.233L1089.43 699.903L1027.51 491.9L853.229 362.57L791.306 154.567L617.026 25.2374L555.103 -182.766L380.823 -312.096L330.357 -481.668L342.97 -485.446L392.169 -320.041L566.515 -190.756L628.372 17.2924L802.718 146.576L864.576 354.625L1038.92 483.909L1100.78 691.958L1275.12 821.242L1336.98 1029.29L1475.58 1132.1Z" fill="#F5F5F5"/>
<path d="M1475.58 1132.1L1467.72 1142.66L1325.64 1037.24L1263.71 829.233L1089.43 699.903L1027.51 491.9L853.229 362.57L791.306 154.567L617.026 25.2374L555.103 -182.766L380.823 -312.096L330.357 -481.668L342.97 -485.446L392.169 -320.041L566.515 -190.756L628.372 17.2924L802.718 146.576L864.576 354.625L1038.92 483.909L1100.78 691.958L1275.12 821.242L1336.98 1029.29L1475.58 1132.1Z" fill="url(#paint10_linear_31_22044)"/>
<path d="M1459.37 1240.93L1446.76 1244.65L1436.66 1210.86L1262.38 1081.53L1200.46 873.524L1026.18 744.194L964.255 536.191L789.975 406.861L728.052 198.858L553.772 69.5283L491.849 -138.475L317.569 -267.805L255.646 -475.808L227.293 -496.869L235.157 -507.428L267.058 -483.799L328.915 -275.749L503.261 -146.465L565.118 61.5834L739.464 190.867L801.322 398.916L975.667 528.2L1037.52 736.249L1211.87 865.533L1273.73 1073.58L1448.07 1202.87L1459.37 1240.93Z" fill="#F5F5F5"/>
<path d="M1459.37 1240.93L1446.76 1244.65L1436.66 1210.86L1262.38 1081.53L1200.46 873.524L1026.18 744.194L964.255 536.191L789.975 406.861L728.052 198.858L553.772 69.5283L491.849 -138.475L317.569 -267.805L255.646 -475.808L227.293 -496.869L235.157 -507.428L267.058 -483.799L328.915 -275.749L503.261 -146.465L565.118 61.5834L739.464 190.867L801.322 398.916L975.667 528.2L1037.52 736.249L1211.87 865.533L1273.73 1073.58L1448.07 1202.87L1459.37 1240.93Z" fill="url(#paint11_linear_31_22044)"/>
<path d="M1423.69 1377.76L1411.03 1381.53L1373.41 1255.15L1199.13 1125.82L1137.21 917.759L962.924 788.485L901.011 580.427L726.721 451.152L664.798 243.149L490.518 113.819L428.65 -94.1741L254.315 -223.514L192.392 -431.517L86.4985 -510.092L94.3719 -520.707L203.804 -439.508L265.661 -231.459L440.007 -102.174L501.865 105.874L676.21 235.158L738.068 443.207L912.413 572.491L974.271 780.54L1148.62 909.824L1210.47 1117.87L1384.82 1247.16L1423.69 1377.76Z" fill="#F5F5F5"/>
<path d="M1423.69 1377.76L1411.03 1381.53L1373.41 1255.15L1199.13 1125.82L1137.21 917.759L962.924 788.485L901.011 580.427L726.721 451.152L664.798 243.149L490.518 113.819L428.65 -94.1741L254.315 -223.514L192.392 -431.517L86.4985 -510.092L94.3719 -520.707L203.804 -439.508L265.661 -231.459L440.007 -102.174L501.865 105.874L676.21 235.158L738.068 443.207L912.413 572.491L974.271 780.54L1148.62 909.824L1210.47 1117.87L1384.82 1247.16L1423.69 1377.76Z" fill="url(#paint12_linear_31_22044)"/>
<path d="M1343.03 1363.54L1330.37 1367.31L1310.22 1299.39L1135.87 1170.11L1074.02 962.06L899.67 832.776L837.812 624.727L663.467 495.443L601.609 287.394L427.264 158.11L365.406 -49.9387L191.061 -179.223L129.203 -387.272L72.2762 -429.433L80.1496 -440.048L140.55 -395.217L202.473 -187.213L376.753 -57.8836L438.666 150.175L612.956 279.449L674.823 487.443L849.159 616.782L911.082 824.786L1085.36 954.115L1147.28 1162.12L1321.57 1291.45L1343.03 1363.54Z" fill="#F5F5F5"/>
<path d="M1343.03 1363.54L1330.37 1367.31L1310.22 1299.39L1135.87 1170.11L1074.02 962.06L899.67 832.776L837.812 624.727L663.467 495.443L601.609 287.394L427.264 158.11L365.406 -49.9387L191.061 -179.223L129.203 -387.272L72.2762 -429.433L80.1496 -440.048L140.55 -395.217L202.473 -187.213L376.753 -57.8836L438.666 150.175L612.956 279.449L674.823 487.443L849.159 616.782L911.082 824.786L1085.36 954.115L1147.28 1162.12L1321.57 1291.45L1343.03 1363.54Z" fill="url(#paint13_linear_31_22044)"/>
<path d="M1262.38 1349.32L1249.71 1353.08L1246.96 1343.68L1072.62 1214.4L1010.76 1006.35L836.416 877.067L774.558 669.018L600.213 539.734L538.355 331.685L364.01 202.401L302.152 -5.64767L127.807 -134.932L65.9492 -342.981L58.0539 -348.774L65.9273 -359.389L77.2958 -350.926L139.219 -142.922L313.499 -13.5927L375.422 194.411L549.702 323.74L611.625 531.743L785.905 661.073L847.828 869.076L1022.11 998.406L1084.03 1206.41L1258.31 1335.74L1262.38 1349.32Z" fill="#F5F5F5"/>
<path d="M1262.38 1349.32L1249.71 1353.08L1246.96 1343.68L1072.62 1214.4L1010.76 1006.35L836.416 877.067L774.558 669.018L600.213 539.734L538.355 331.685L364.01 202.401L302.152 -5.64767L127.807 -134.932L65.9492 -342.981L58.0539 -348.774L65.9273 -359.389L77.2958 -350.926L139.219 -142.922L313.499 -13.5927L375.422 194.411L549.702 323.74L611.625 531.743L785.905 661.073L847.828 869.076L1022.11 998.406L1084.03 1206.41L1258.31 1335.74L1262.38 1349.32Z" fill="url(#paint14_linear_31_22044)"/>
<path d="M1114.49 1320.21L1106.62 1330.83L1009.37 1258.69L947.507 1050.64L773.162 921.358L711.304 713.309L536.959 584.025L475.101 375.976L300.756 246.692L238.898 38.6432L64.5528 -90.6409L30.0305 -206.702L42.6983 -210.47L75.9646 -98.6315L250.245 30.6982L312.168 238.701L486.448 368.031L548.371 576.034L722.651 705.364L784.574 913.367L958.854 1042.7L1020.78 1250.7L1114.49 1320.21Z" fill="#F5F5F5"/>
<path d="M1114.49 1320.21L1106.62 1330.83L1009.37 1258.69L947.507 1050.64L773.162 921.358L711.304 713.309L536.959 584.025L475.101 375.976L300.756 246.692L238.898 38.6432L64.5528 -90.6409L30.0305 -206.702L42.6983 -210.47L75.9646 -98.6315L250.245 30.6982L312.168 238.701L486.448 368.031L548.371 576.034L722.651 705.364L784.574 913.367L958.854 1042.7L1020.78 1250.7L1114.49 1320.21Z" fill="url(#paint15_linear_31_22044)"/>
<path d="M957.647 1295.58L945.034 1299.36L884.253 1094.93L709.908 965.649L648.05 757.6L473.705 628.316L411.847 420.267L237.502 290.983L175.644 82.9342L4.33166 -44.1002L12.1953 -54.66L186.991 74.9894L248.914 282.993L423.194 412.322L485.117 620.325L659.397 749.655L721.32 957.658L895.6 1086.99L957.647 1295.58Z" fill="#F5F5F5"/>
<path d="M957.647 1295.58L945.034 1299.36L884.253 1094.93L709.908 965.649L648.05 757.6L473.705 628.316L411.847 420.267L237.502 290.983L175.644 82.9342L4.33166 -44.1002L12.1953 -54.66L186.991 74.9894L248.914 282.993L423.194 412.322L485.117 620.325L659.397 749.655L721.32 957.658L895.6 1086.99L957.647 1295.58Z" fill="url(#paint16_linear_31_22044)"/>
<path d="M877.044 1281.37L864.376 1285.14L820.999 1139.22L646.654 1009.94L584.796 801.891L410.451 672.607L348.593 464.558L174.248 335.274L112.39 127.225L-9.89062 36.5583L-2.01719 25.9432L123.737 119.28L185.66 327.283L359.94 456.613L421.863 664.616L596.143 793.946L658.066 1001.95L832.346 1131.28L877.044 1281.37Z" fill="#F5F5F5"/>
<path d="M877.044 1281.37L864.376 1285.14L820.999 1139.22L646.654 1009.94L584.796 801.891L410.451 672.607L348.593 464.558L174.248 335.274L112.39 127.225L-9.89062 36.5583L-2.01719 25.9432L123.737 119.28L185.66 327.283L359.94 456.613L421.863 664.616L596.143 793.946L658.066 1001.95L832.346 1131.28L877.044 1281.37Z" fill="url(#paint17_linear_31_22044)"/>
<path d="M796.385 1267.15L783.717 1270.92L757.745 1183.51L583.4 1054.23L521.542 846.182L347.197 716.898L285.339 508.849L110.994 379.565L49.1362 171.516L-24.1129 117.217L-16.2395 106.602L60.5382 163.581L122.406 371.574L296.741 500.914L358.609 708.907L532.899 838.182L594.812 1046.24L769.102 1175.51L796.385 1267.15Z" fill="#F5F5F5"/>
<path d="M796.385 1267.15L783.717 1270.92L757.745 1183.51L583.4 1054.23L521.542 846.182L347.197 716.898L285.339 508.849L110.994 379.565L49.1362 171.516L-24.1129 117.217L-16.2395 106.602L60.5382 163.581L122.406 371.574L296.741 500.914L358.609 708.907L532.899 838.182L594.812 1046.24L769.102 1175.51L796.385 1267.15Z" fill="url(#paint18_linear_31_22044)"/>
<path d="M715.726 1252.93L703.058 1256.7L694.491 1227.81L520.146 1098.52L458.288 890.473L283.943 761.189L222.085 553.14L47.7399 423.856L-14.1178 215.807L-38.3352 197.876L-30.4618 187.261L-2.70598 207.816L59.1517 415.865L233.497 545.149L295.355 753.198L469.7 882.482L531.558 1090.53L705.903 1219.82L715.726 1252.93Z" fill="#F5F5F5"/>
<path d="M715.726 1252.93L703.058 1256.7L694.491 1227.81L520.146 1098.52L458.288 890.473L283.943 761.189L222.085 553.14L47.7399 423.856L-14.1178 215.807L-38.3352 197.876L-30.4618 187.261L-2.70598 207.816L59.1517 415.865L233.497 545.149L295.355 753.198L469.7 882.482L531.558 1090.53L705.903 1219.82L715.726 1252.93Z" fill="url(#paint19_linear_31_22044)"/>
<path d="M594.73 1228.56L586.856 1239.18L456.892 1142.81L395.034 934.764L220.689 805.48L158.831 597.431L-15.5141 468.147L-61.6178 313.061L-48.95 309.293L-4.10234 460.156L170.243 589.44L232.101 797.489L406.446 926.773L468.304 1134.82L594.73 1228.56Z" fill="#F5F5F5"/>
<path d="M594.73 1228.56L586.856 1239.18L456.892 1142.81L395.034 934.764L220.689 805.48L158.831 597.431L-15.5141 468.147L-61.6178 313.061L-48.95 309.293L-4.10234 460.156L170.243 589.44L232.101 797.489L406.446 926.773L468.304 1134.82L594.73 1228.56Z" fill="url(#paint20_linear_31_22044)"/>
<path d="M433.412 1200.12L425.539 1210.73L393.638 1187.1L331.78 979.055L157.435 849.771L95.5773 641.722L-78.7681 512.438L-90.0624 474.379L-77.3946 470.611L-67.3563 504.447L106.989 633.731L168.847 841.78L343.192 971.064L405.05 1179.11L433.412 1200.12Z" fill="#F5F5F5"/>
<path d="M433.412 1200.12L425.539 1210.73L393.638 1187.1L331.78 979.055L157.435 849.771L95.5773 641.722L-78.7681 512.438L-90.0624 474.379L-77.3946 470.611L-67.3563 504.447L106.989 633.731L168.847 841.78L343.192 971.064L405.05 1179.11L433.412 1200.12Z" fill="url(#paint21_linear_31_22044)"/>
<path d="M330.394 1184.98L317.726 1188.75L268.526 1023.35L94.1809 894.062L32.3233 686.013L-106.28 583.208L-98.4063 572.593L43.7351 678.022L105.593 886.071L279.938 1015.36L330.394 1184.98Z" fill="#F5F5F5"/>
<path d="M330.394 1184.98L317.726 1188.75L268.526 1023.35L94.1809 894.062L32.3233 686.013L-106.28 583.208L-98.4063 572.593L43.7351 678.022L105.593 886.071L279.938 1015.36L330.394 1184.98Z" fill="url(#paint22_linear_31_22044)"/>
<path d="M249.735 1170.76L237.067 1174.53L205.272 1067.64L30.9921 938.307L-30.9307 730.304L-120.502 663.867L-112.629 653.252L-19.5189 722.313L42.3387 930.362L216.684 1059.65L249.735 1170.76Z" fill="#F5F5F5"/>
<path d="M249.735 1170.76L237.067 1174.53L205.272 1067.64L30.9921 938.307L-30.9307 730.304L-120.502 663.867L-112.629 653.252L-19.5189 722.313L42.3387 930.362L216.684 1059.65L249.735 1170.76Z" fill="url(#paint23_linear_31_22044)"/>
<path d="M169.076 1156.54L156.409 1160.31L142.018 1111.93L-32.2619 982.598L-94.1847 774.595L-134.724 744.526L-126.851 733.91L-82.7729 766.604L-20.9153 974.653L153.43 1103.94L169.076 1156.54Z" fill="#F5F5F5"/>
<path d="M169.076 1156.54L156.409 1160.31L142.018 1111.93L-32.2619 982.598L-94.1847 774.595L-134.724 744.526L-126.851 733.91L-82.7729 766.604L-20.9153 974.653L153.43 1103.94L169.076 1156.54Z" fill="url(#paint24_linear_31_22044)"/>
<path d="M74.9661 1136.91L67.0926 1147.53L-95.5159 1026.89L-153.266 832.825L-140.598 829.057L-84.1693 1018.94L74.9661 1136.91Z" fill="#F5F5F5"/>
<path d="M74.9661 1136.91L67.0926 1147.53L-95.5159 1026.89L-153.266 832.825L-140.598 829.057L-84.1693 1018.94L74.9661 1136.91Z" fill="url(#paint25_linear_31_22044)"/>
</g>
<defs>
<linearGradient id="paint0_linear_31_22044" x1="1400.87" y1="-137.068" x2="1691.75" y2="-141.467" gradientUnits="userSpaceOnUse">
<stop offset="0.223958" stop-color="white"/>
<stop offset="1" stop-color="#F5F5F5" stop-opacity="0"/>
</linearGradient>
<linearGradient id="paint1_linear_31_22044" x1="1232.18" y1="-81.9814" x2="1680.88" y2="-88.7672" gradientUnits="userSpaceOnUse">
<stop offset="0.223958" stop-color="white"/>
<stop offset="1" stop-color="#F5F5F5" stop-opacity="0"/>
</linearGradient>
<linearGradient id="paint2_linear_31_22044" x1="1071.46" y1="-27.07" x2="1664.45" y2="-36.0381" gradientUnits="userSpaceOnUse">
<stop offset="0.223958" stop-color="white"/>
<stop offset="1" stop-color="#F5F5F5" stop-opacity="0"/>
</linearGradient>
<linearGradient id="paint3_linear_31_22044" x1="984.25" y1="2.05061" x2="1657.22" y2="-8.12697" gradientUnits="userSpaceOnUse">
<stop offset="0.223958" stop-color="white"/>
<stop offset="1" stop-color="#F5F5F5" stop-opacity="0"/>
</linearGradient>
<linearGradient id="paint4_linear_31_22044" x1="897.042" y1="31.1712" x2="1649.99" y2="19.7841" gradientUnits="userSpaceOnUse">
<stop offset="0.223958" stop-color="white"/>
<stop offset="1" stop-color="#F5F5F5" stop-opacity="0"/>
</linearGradient>
<linearGradient id="paint5_linear_31_22044" x1="809.835" y1="60.2918" x2="1642.76" y2="47.6952" gradientUnits="userSpaceOnUse">
<stop offset="0.223958" stop-color="white"/>
<stop offset="1" stop-color="#F5F5F5" stop-opacity="0"/>
</linearGradient>
<linearGradient id="paint6_linear_31_22044" x1="670.218" y1="105.671" x2="1634.29" y2="91.091" gradientUnits="userSpaceOnUse">
<stop offset="0.223958" stop-color="white"/>
<stop offset="1" stop-color="#F5F5F5" stop-opacity="0"/>
</linearGradient>
<linearGradient id="paint7_linear_31_22044" x1="495.804" y1="163.912" x2="1619.83" y2="146.913" gradientUnits="userSpaceOnUse">
<stop offset="0.223958" stop-color="white"/>
<stop offset="1" stop-color="#F5F5F5" stop-opacity="0"/>
</linearGradient>
<linearGradient id="paint8_linear_31_22044" x1="393.219" y1="199.41" x2="1608.22" y2="181.035" gradientUnits="userSpaceOnUse">
<stop offset="0.223958" stop-color="white"/>
<stop offset="1" stop-color="#F5F5F5" stop-opacity="0"/>
</linearGradient>
<linearGradient id="paint9_linear_31_22044" x1="306.012" y1="228.531" x2="1600.99" y2="208.946" gradientUnits="userSpaceOnUse">
<stop offset="0.223958" stop-color="white"/>
<stop offset="1" stop-color="#F5F5F5" stop-opacity="0"/>
</linearGradient>
<linearGradient id="paint10_linear_31_22044" x1="218.805" y1="257.651" x2="1593.76" y2="236.857" gradientUnits="userSpaceOnUse">
<stop offset="0.223958" stop-color="white"/>
<stop offset="1" stop-color="#F5F5F5" stop-opacity="0"/>
</linearGradient>
<linearGradient id="paint11_linear_31_22044" x1="108.202" y1="293.314" x2="1587.7" y2="270.929" gradientUnits="userSpaceOnUse">
<stop offset="0.223958" stop-color="white"/>
<stop offset="1" stop-color="#F5F5F5" stop-opacity="0"/>
</linearGradient>
<linearGradient id="paint12_linear_31_22044" x1="-42.9487" y1="348.64" x2="1563.09" y2="324.351" gradientUnits="userSpaceOnUse">
<stop offset="0.223958" stop-color="white"/>
<stop offset="1" stop-color="#F5F5F5" stop-opacity="0"/>
</linearGradient>
<linearGradient id="paint13_linear_31_22044" x1="-50.6226" y1="385.956" x2="1475.44" y2="362.876" gradientUnits="userSpaceOnUse">
<stop offset="0.223958" stop-color="white"/>
<stop offset="1" stop-color="#F5F5F5" stop-opacity="0"/>
</linearGradient>
<linearGradient id="paint14_linear_31_22044" x1="-58.2964" y1="423.271" x2="1387.79" y2="401.402" gradientUnits="userSpaceOnUse">
<stop offset="0.223958" stop-color="white"/>
<stop offset="1" stop-color="#F5F5F5" stop-opacity="0"/>
</linearGradient>
<linearGradient id="paint15_linear_31_22044" x1="-75.532" y1="492.968" x2="1226.26" y2="473.281" gradientUnits="userSpaceOnUse">
<stop offset="0.223958" stop-color="white"/>
<stop offset="1" stop-color="#F5F5F5" stop-opacity="0"/>
</linearGradient>
<linearGradient id="paint16_linear_31_22044" x1="-87.2883" y1="564.251" x2="1056.64" y2="546.951" gradientUnits="userSpaceOnUse">
<stop offset="0.223958" stop-color="white"/>
<stop offset="1" stop-color="#F5F5F5" stop-opacity="0"/>
</linearGradient>
<linearGradient id="paint17_linear_31_22044" x1="-94.9569" y1="601.541" x2="969.048" y2="585.45" gradientUnits="userSpaceOnUse">
<stop offset="0.223958" stop-color="white"/>
<stop offset="1" stop-color="#F5F5F5" stop-opacity="0"/>
</linearGradient>
<linearGradient id="paint18_linear_31_22044" x1="-102.631" y1="638.857" x2="881.396" y2="623.975" gradientUnits="userSpaceOnUse">
<stop offset="0.223958" stop-color="white"/>
<stop offset="1" stop-color="#F5F5F5" stop-opacity="0"/>
</linearGradient>
<linearGradient id="paint19_linear_31_22044" x1="-110.305" y1="676.173" x2="793.745" y2="662.5" gradientUnits="userSpaceOnUse">
<stop offset="0.223958" stop-color="white"/>
<stop offset="1" stop-color="#F5F5F5" stop-opacity="0"/>
</linearGradient>
<linearGradient id="paint20_linear_31_22044" x1="-124.982" y1="733.431" x2="661.437" y2="721.537" gradientUnits="userSpaceOnUse">
<stop offset="0.223958" stop-color="white"/>
<stop offset="1" stop-color="#F5F5F5" stop-opacity="0"/>
</linearGradient>
<linearGradient id="paint21_linear_31_22044" x1="-140.33" y1="808.062" x2="486.134" y2="798.588" gradientUnits="userSpaceOnUse">
<stop offset="0.223958" stop-color="white"/>
<stop offset="1" stop-color="#F5F5F5" stop-opacity="0"/>
</linearGradient>
<linearGradient id="paint22_linear_31_22044" x1="-146.965" y1="854.442" x2="375.006" y2="846.548" gradientUnits="userSpaceOnUse">
<stop offset="0.223958" stop-color="white"/>
<stop offset="1" stop-color="#F5F5F5" stop-opacity="0"/>
</linearGradient>
<linearGradient id="paint23_linear_31_22044" x1="-154.639" y1="891.758" x2="287.354" y2="885.074" gradientUnits="userSpaceOnUse">
<stop offset="0.223958" stop-color="white"/>
<stop offset="1" stop-color="#F5F5F5" stop-opacity="0"/>
</linearGradient>
<linearGradient id="paint24_linear_31_22044" x1="-162.313" y1="929.074" x2="199.703" y2="923.599" gradientUnits="userSpaceOnUse">
<stop offset="0.223958" stop-color="white"/>
<stop offset="1" stop-color="#F5F5F5" stop-opacity="0"/>
</linearGradient>
<linearGradient id="paint25_linear_31_22044" x1="-174.433" y1="973.893" x2="96.6119" y2="969.794" gradientUnits="userSpaceOnUse">
<stop offset="0.223958" stop-color="white"/>
<stop offset="1" stop-color="#F5F5F5" stop-opacity="0"/>
</linearGradient>
</defs>
</svg>
