<svg width="1922" height="1922" viewBox="0 0 1922 1922" fill="none" xmlns="http://www.w3.org/2000/svg">
<path d="M1911.47 330.259L1903.61 340.819L1875.91 320.273L1866.07 287.216L1878.68 283.438L1887.26 312.273L1911.47 330.259Z" fill="#F5F5F5"/>
<path d="M1911.47 330.259L1903.61 340.819L1875.91 320.273L1866.07 287.216L1878.68 283.438L1887.26 312.273L1911.47 330.259Z" fill="url(#paint0_linear_113_8)"/>
<path d="M1897.25 410.918L1889.38 421.478L1812.65 364.564L1785.41 272.994L1798.03 269.216L1824.06 356.573L1897.25 410.918Z" fill="#F5F5F5"/>
<path d="M1897.25 410.918L1889.38 421.478L1812.65 364.564L1785.41 272.994L1798.03 269.216L1824.06 356.573L1897.25 410.918Z" fill="url(#paint1_linear_113_8)"/>
<path d="M1883.02 491.577L1875.16 502.136L1749.4 408.855L1704.75 258.772L1717.37 254.994L1760.81 400.864L1883.02 491.577Z" fill="#F5F5F5"/>
<path d="M1883.02 491.577L1875.16 502.136L1749.4 408.855L1704.75 258.772L1717.37 254.994L1760.81 400.864L1883.02 491.577Z" fill="url(#paint2_linear_113_8)"/>
<path d="M1868.81 572.18L1860.94 582.795L1686.14 453.146L1624.1 244.549L1636.76 240.781L1697.56 445.155L1868.81 572.18Z" fill="#F5F5F5"/>
<path d="M1868.81 572.18L1860.94 582.795L1686.14 453.146L1624.1 244.549L1636.76 240.781L1697.56 445.155L1868.81 572.18Z" fill="url(#paint3_linear_113_8)"/>
<path d="M1843.1 734.837L1830.5 738.56L1797.23 626.721L1622.89 497.437L1561.03 289.388L1467.32 219.877L1475.12 209.307L1572.38 281.443L1634.3 489.446L1808.58 618.776L1843.1 734.837Z" fill="#F5F5F5"/>
<path d="M1843.1 734.837L1830.5 738.56L1797.23 626.721L1622.89 497.437L1561.03 289.388L1467.32 219.877L1475.12 209.307L1572.38 281.443L1634.3 489.446L1808.58 618.776L1843.1 734.837Z" fill="url(#paint4_linear_113_8)"/>
<path d="M1815.08 876.909L1807.22 887.469L1795.84 879.061L1733.98 671.012L1559.63 541.728L1497.78 333.679L1323.43 204.395L1319.42 190.827L1332.03 187.049L1334.84 196.404L1509.12 325.734L1571.05 533.737L1745.34 663.011L1807.25 871.07L1815.08 876.909Z" fill="#F5F5F5"/>
<path d="M1815.08 876.909L1807.22 887.469L1795.84 879.061L1733.98 671.012L1559.63 541.728L1497.78 333.679L1323.43 204.395L1319.42 190.827L1332.03 187.049L1334.84 196.404L1509.12 325.734L1571.05 533.737L1745.34 663.011L1807.25 871.07L1815.08 876.909Z" fill="url(#paint5_linear_113_8)"/>
<path d="M1800.86 957.568L1792.99 968.128L1732.58 923.352L1670.73 715.303L1496.38 586.019L1434.52 377.97L1260.18 248.686L1238.76 176.605L1251.38 172.827L1271.59 240.695L1445.94 369.979L1507.79 578.028L1682.14 707.312L1744 915.361L1800.86 957.568Z" fill="#F5F5F5"/>
<path d="M1800.86 957.568L1792.99 968.128L1732.58 923.352L1670.73 715.303L1496.38 586.019L1434.52 377.97L1260.18 248.686L1238.76 176.605L1251.38 172.827L1271.59 240.695L1445.94 369.979L1507.79 578.028L1682.14 707.312L1744 915.361L1800.86 957.568Z" fill="url(#paint6_linear_113_8)"/>
<path d="M1786.64 1038.23L1778.77 1048.79L1669.33 967.643L1607.47 759.594L1433.13 630.31L1371.27 422.261L1196.92 292.977L1158.11 162.383L1170.72 158.605L1208.34 284.986L1382.68 414.27L1444.54 622.319L1618.88 751.603L1680.74 959.652L1786.64 1038.23Z" fill="#F5F5F5"/>
<path d="M1786.64 1038.23L1778.77 1048.79L1669.33 967.643L1607.47 759.594L1433.13 630.31L1371.27 422.261L1196.92 292.977L1158.11 162.383L1170.72 158.605L1208.34 284.986L1382.68 414.27L1444.54 622.319L1618.88 751.603L1680.74 959.652L1786.64 1038.23Z" fill="url(#paint7_linear_113_8)"/>
<path d="M1772.41 1118.89L1764.55 1129.44L1606.08 1011.93L1544.22 803.885L1369.87 674.601L1308.02 466.552L1133.67 337.268L1077.45 148.16L1090.06 144.382L1145.08 329.277L1319.43 458.561L1381.28 666.61L1555.63 795.894L1617.49 1003.94L1772.41 1118.89Z" fill="#F5F5F5"/>
<path d="M1772.41 1118.89L1764.55 1129.44L1606.08 1011.93L1544.22 803.885L1369.87 674.601L1308.02 466.552L1133.67 337.268L1077.45 148.16L1090.06 144.382L1145.08 329.277L1319.43 458.561L1381.28 666.61L1555.63 795.894L1617.49 1003.94L1772.41 1118.89Z" fill="url(#paint8_linear_113_8)"/>
<path d="M1751.45 1254.6L1738.85 1258.32L1717.17 1185.51L1542.82 1056.22L1480.96 848.176L1306.62 718.892L1244.76 510.843L1070.42 381.559L1008.56 173.51L947.551 128.228L955.36 117.659L1019.97 165.519L1081.83 373.568L1256.17 502.852L1318.03 710.901L1492.38 840.185L1554.23 1048.23L1728.58 1177.52L1751.45 1254.6Z" fill="#F5F5F5"/>
<path d="M1751.45 1254.6L1738.85 1258.32L1717.17 1185.51L1542.82 1056.22L1480.96 848.176L1306.62 718.892L1244.76 510.843L1070.42 381.559L1008.56 173.51L947.551 128.228L955.36 117.659L1019.97 165.519L1081.83 373.568L1256.17 502.852L1318.03 710.901L1492.38 840.185L1554.23 1048.23L1728.58 1177.52L1751.45 1254.6Z" fill="url(#paint9_linear_113_8)"/>
<path d="M1723.02 1415.86L1710.41 1419.64L1653.91 1229.8L1479.58 1100.46L1417.71 892.467L1243.37 763.127L1181.51 555.134L1007.22 425.859L945.304 217.801L786.234 99.7839L794.098 89.2242L956.716 209.81L1018.57 417.859L1192.92 547.143L1254.78 755.192L1429.12 884.476L1490.98 1092.52L1665.33 1221.81L1723.02 1415.86Z" fill="#F5F5F5"/>
<path d="M1723.02 1415.86L1710.41 1419.64L1653.91 1229.8L1479.58 1100.46L1417.71 892.467L1243.37 763.127L1181.51 555.134L1007.22 425.859L945.304 217.801L786.234 99.7839L794.098 89.2242L956.716 209.81L1018.57 417.859L1192.92 547.143L1254.78 755.192L1429.12 884.476L1490.98 1092.52L1665.33 1221.81L1723.02 1415.86Z" fill="url(#paint10_linear_113_8)"/>
<path d="M1704.47 1504.22L1696.6 1514.78L1652.58 1482.09L1590.66 1274.09L1416.38 1144.76L1354.46 936.758L1180.18 807.428L1118.25 599.425L943.973 470.095L882.05 262.092L707.77 132.762L692.114 80.2158L704.726 76.4379L719.117 124.817L893.462 254.101L955.32 462.15L1129.67 591.434L1191.52 799.483L1365.87 928.767L1427.73 1136.82L1602.07 1266.1L1663.93 1474.15L1704.47 1504.22Z" fill="#F5F5F5"/>
<path d="M1704.47 1504.22L1696.6 1514.78L1652.58 1482.09L1590.66 1274.09L1416.38 1144.76L1354.46 936.758L1180.18 807.428L1118.25 599.425L943.973 470.095L882.05 262.092L707.77 132.762L692.114 80.2158L704.726 76.4379L719.117 124.817L893.462 254.101L955.32 462.15L1129.67 591.434L1191.52 799.483L1365.87 928.767L1427.73 1136.82L1602.07 1266.1L1663.93 1474.15L1704.47 1504.22Z" fill="url(#paint11_linear_113_8)"/>
<path d="M1690.25 1584.88L1682.38 1595.44L1589.33 1526.38L1527.41 1318.38L1353.13 1189.05L1291.2 981.048L1116.92 851.719L1055 643.715L880.719 514.386L818.796 306.382L644.516 177.053L611.455 65.9934L624.068 62.2155L655.863 169.108L830.208 298.392L892.066 506.441L1066.41 635.725L1128.27 843.774L1302.61 973.058L1364.47 1181.11L1538.82 1310.39L1600.68 1518.44L1690.25 1584.88Z" fill="#F5F5F5"/>
<path d="M1690.25 1584.88L1682.38 1595.44L1589.33 1526.38L1527.41 1318.38L1353.13 1189.05L1291.2 981.048L1116.92 851.719L1055 643.715L880.719 514.386L818.796 306.382L644.516 177.053L611.455 65.9934L624.068 62.2155L655.863 169.108L830.208 298.392L892.066 506.441L1066.41 635.725L1128.27 843.774L1302.61 973.058L1364.47 1181.11L1538.82 1310.39L1600.68 1518.44L1690.25 1584.88Z" fill="url(#paint12_linear_113_8)"/>
<path d="M1676.02 1665.54L1668.16 1676.09L1526.07 1570.68L1464.15 1362.67L1289.87 1233.34L1227.95 1025.34L1053.67 896.01L991.745 688.006L817.465 558.677L755.542 350.673L581.262 221.344L530.797 51.771L543.409 47.9932L592.609 213.399L766.954 342.683L828.812 550.732L1003.16 680.016L1065.01 888.065L1239.36 1017.35L1301.22 1225.4L1475.56 1354.68L1537.42 1562.73L1676.02 1665.54Z" fill="#F5F5F5"/>
<path d="M1676.02 1665.54L1668.16 1676.09L1526.07 1570.68L1464.15 1362.67L1289.87 1233.34L1227.95 1025.34L1053.67 896.01L991.745 688.006L817.465 558.677L755.542 350.673L581.262 221.344L530.797 51.771L543.409 47.9932L592.609 213.399L766.954 342.683L828.812 550.732L1003.16 680.016L1065.01 888.065L1239.36 1017.35L1301.22 1225.4L1475.56 1354.68L1537.42 1562.73L1676.02 1665.54Z" fill="url(#paint13_linear_113_8)"/>
<path d="M1659.81 1774.36L1647.2 1778.09L1637.1 1744.3L1462.82 1614.97L1400.9 1406.96L1226.62 1277.63L1164.69 1069.63L990.414 940.301L928.491 732.297L754.211 602.968L692.288 394.964L518.008 265.635L456.085 57.6314L427.733 36.5704L435.596 26.0108L467.497 49.6407L529.355 257.69L703.7 386.974L765.558 595.023L939.903 724.307L1001.76 932.356L1176.11 1061.64L1237.96 1269.69L1412.31 1398.97L1474.17 1607.02L1648.51 1736.31L1659.81 1774.36Z" fill="#F5F5F5"/>
<path d="M1659.81 1774.36L1647.2 1778.09L1637.1 1744.3L1462.82 1614.97L1400.9 1406.96L1226.62 1277.63L1164.69 1069.63L990.414 940.301L928.491 732.297L754.211 602.968L692.288 394.964L518.008 265.635L456.085 57.6314L427.733 36.5704L435.596 26.0108L467.497 49.6407L529.355 257.69L703.7 386.974L765.558 595.023L939.903 724.307L1001.76 932.356L1176.11 1061.64L1237.96 1269.69L1412.31 1398.97L1474.17 1607.02L1648.51 1736.31L1659.81 1774.36Z" fill="url(#paint14_linear_113_8)"/>
<path d="M1624.13 1911.2L1611.46 1914.97L1573.85 1788.59L1399.57 1659.26L1337.65 1451.2L1163.36 1321.92L1101.45 1113.87L927.16 984.592L865.237 776.588L690.957 647.258L629.09 439.265L454.754 309.926L392.831 101.922L286.938 23.3476L294.811 12.7325L404.243 93.9317L466.101 301.981L640.446 431.265L702.304 639.314L876.649 768.598L938.507 976.647L1112.85 1105.93L1174.71 1313.98L1349.06 1443.26L1410.91 1651.31L1585.26 1780.6L1624.13 1911.2Z" fill="#F5F5F5"/>
<path d="M1624.13 1911.2L1611.46 1914.97L1573.85 1788.59L1399.57 1659.26L1337.65 1451.2L1163.36 1321.92L1101.45 1113.87L927.16 984.592L865.237 776.588L690.957 647.258L629.09 439.265L454.754 309.926L392.831 101.922L286.938 23.3476L294.811 12.7325L404.243 93.9317L466.101 301.981L640.446 431.265L702.304 639.314L876.649 768.598L938.507 976.647L1112.85 1105.93L1174.71 1313.98L1349.06 1443.26L1410.91 1651.31L1585.26 1780.6L1624.13 1911.2Z" fill="url(#paint15_linear_113_8)"/>
<path d="M1543.47 1896.98L1530.81 1900.75L1510.66 1832.83L1336.31 1703.55L1274.45 1495.5L1100.11 1366.22L1038.25 1158.17L863.906 1028.88L802.049 820.834L627.703 691.549L565.845 483.501L391.5 354.217L329.642 146.168L272.715 104.006L280.589 93.3913L340.989 138.223L402.912 346.226L577.192 475.556L639.105 683.614L813.395 812.889L875.263 1020.88L1049.6 1150.22L1111.52 1358.22L1285.8 1487.55L1347.72 1695.56L1522 1824.89L1543.47 1896.98Z" fill="#F5F5F5"/>
<path d="M1543.47 1896.98L1530.81 1900.75L1510.66 1832.83L1336.31 1703.55L1274.45 1495.5L1100.11 1366.22L1038.25 1158.17L863.906 1028.88L802.049 820.834L627.703 691.549L565.845 483.501L391.5 354.217L329.642 146.168L272.715 104.006L280.589 93.3913L340.989 138.223L402.912 346.226L577.192 475.556L639.105 683.614L813.395 812.889L875.263 1020.88L1049.6 1150.22L1111.52 1358.22L1285.8 1487.55L1347.72 1695.56L1522 1824.89L1543.47 1896.98Z" fill="url(#paint16_linear_113_8)"/>
<path d="M1462.82 1882.76L1450.15 1886.52L1447.4 1877.12L1273.06 1747.84L1211.2 1539.79L1036.86 1410.51L974.998 1202.46L800.652 1073.17L738.795 865.124L564.449 735.84L502.591 527.792L328.246 398.507L266.388 190.458L258.493 184.665L266.367 174.05L277.735 182.514L339.658 390.517L513.938 519.846L575.861 727.85L750.141 857.18L812.064 1065.18L986.344 1194.51L1048.27 1402.52L1222.55 1531.85L1284.47 1739.85L1458.75 1869.18L1462.82 1882.76Z" fill="#F5F5F5"/>
<path d="M1462.82 1882.76L1450.15 1886.52L1447.4 1877.12L1273.06 1747.84L1211.2 1539.79L1036.86 1410.51L974.998 1202.46L800.652 1073.17L738.795 865.124L564.449 735.84L502.591 527.792L328.246 398.507L266.388 190.458L258.493 184.665L266.367 174.05L277.735 182.514L339.658 390.517L513.938 519.846L575.861 727.85L750.141 857.18L812.064 1065.18L986.344 1194.51L1048.27 1402.52L1222.55 1531.85L1284.47 1739.85L1458.75 1869.18L1462.82 1882.76Z" fill="url(#paint17_linear_113_8)"/>
<path d="M1314.93 1853.65L1307.06 1864.27L1209.8 1792.13L1147.95 1584.08L973.601 1454.8L911.744 1246.75L737.398 1117.46L675.541 909.415L501.195 780.131L439.338 572.082L264.992 442.798L230.47 326.737L243.138 322.969L276.404 434.808L450.684 564.137L512.607 772.141L686.887 901.47L748.81 1109.47L923.09 1238.8L985.013 1446.81L1159.29 1576.14L1221.22 1784.14L1314.93 1853.65Z" fill="#F5F5F5"/>
<path d="M1314.93 1853.65L1307.06 1864.27L1209.8 1792.13L1147.95 1584.08L973.601 1454.8L911.744 1246.75L737.398 1117.46L675.541 909.415L501.195 780.131L439.338 572.082L264.992 442.798L230.47 326.737L243.138 322.969L276.404 434.808L450.684 564.137L512.607 772.141L686.887 901.47L748.81 1109.47L923.09 1238.8L985.013 1446.81L1159.29 1576.14L1221.22 1784.14L1314.93 1853.65Z" fill="url(#paint18_linear_113_8)"/>
<path d="M1158.09 1829.02L1145.47 1832.8L1084.69 1628.37L910.347 1499.09L848.489 1291.04L674.144 1161.76L612.286 953.706L437.941 824.422L376.083 616.373L204.771 489.339L212.635 478.779L387.43 608.429L449.353 816.432L623.633 945.761L685.556 1153.76L859.836 1283.09L921.759 1491.1L1096.04 1620.43L1158.09 1829.02Z" fill="#F5F5F5"/>
<path d="M1158.09 1829.02L1145.47 1832.8L1084.69 1628.37L910.347 1499.09L848.489 1291.04L674.144 1161.76L612.286 953.706L437.941 824.422L376.083 616.373L204.771 489.339L212.635 478.779L387.43 608.429L449.353 816.432L623.633 945.761L685.556 1153.76L859.836 1283.09L921.759 1491.1L1096.04 1620.43L1158.09 1829.02Z" fill="url(#paint19_linear_113_8)"/>
<path d="M1077.48 1814.81L1064.82 1818.58L1021.44 1672.66L847.093 1543.38L785.236 1335.33L610.89 1206.05L549.033 997.997L374.687 868.713L312.829 660.664L190.549 569.998L198.422 559.382L324.176 652.719L386.099 860.723L560.379 990.052L622.302 1198.06L796.582 1327.39L858.505 1535.39L1032.79 1664.72L1077.48 1814.81Z" fill="#F5F5F5"/>
<path d="M1077.48 1814.81L1064.82 1818.58L1021.44 1672.66L847.093 1543.38L785.236 1335.33L610.89 1206.05L549.033 997.997L374.687 868.713L312.829 660.664L190.549 569.998L198.422 559.382L324.176 652.719L386.099 860.723L560.379 990.052L622.302 1198.06L796.582 1327.39L858.505 1535.39L1032.79 1664.72L1077.48 1814.81Z" fill="url(#paint20_linear_113_8)"/>
<path d="M996.824 1800.59L984.156 1804.36L958.185 1716.95L783.839 1587.67L721.982 1379.62L547.636 1250.34L485.778 1042.29L311.433 913.004L249.575 704.955L176.326 650.656L184.2 640.041L260.977 697.02L322.845 905.014L497.18 1034.35L559.048 1242.35L733.338 1371.62L795.251 1579.68L969.541 1708.95L996.824 1800.59Z" fill="#F5F5F5"/>
<path d="M996.824 1800.59L984.156 1804.36L958.185 1716.95L783.839 1587.67L721.982 1379.62L547.636 1250.34L485.778 1042.29L311.433 913.004L249.575 704.955L176.326 650.656L184.2 640.041L260.977 697.02L322.845 905.014L497.18 1034.35L559.048 1242.35L733.338 1371.62L795.251 1579.68L969.541 1708.95L996.824 1800.59Z" fill="url(#paint21_linear_113_8)"/>
<path d="M916.165 1786.37L903.498 1790.13L894.931 1761.25L720.585 1631.96L658.728 1423.91L484.382 1294.63L422.524 1086.58L248.179 957.295L186.321 749.246L162.104 731.315L169.977 720.7L197.733 741.256L259.591 949.304L433.936 1078.59L495.794 1286.64L670.139 1415.92L731.997 1623.97L906.342 1753.25L916.165 1786.37Z" fill="#F5F5F5"/>
<path d="M916.165 1786.37L903.498 1790.13L894.931 1761.25L720.585 1631.96L658.728 1423.91L484.382 1294.63L422.524 1086.58L248.179 957.295L186.321 749.246L162.104 731.315L169.977 720.7L197.733 741.256L259.591 949.304L433.936 1078.59L495.794 1286.64L670.139 1415.92L731.997 1623.97L906.342 1753.25L916.165 1786.37Z" fill="url(#paint22_linear_113_8)"/>
<path d="M795.169 1762L787.295 1772.62L657.331 1676.25L595.474 1468.2L421.128 1338.92L359.271 1130.87L184.925 1001.59L138.821 846.501L151.489 842.733L196.337 993.595L370.682 1122.88L432.54 1330.93L606.885 1460.21L668.743 1668.26L795.169 1762Z" fill="#F5F5F5"/>
<path d="M795.169 1762L787.295 1772.62L657.331 1676.25L595.474 1468.2L421.128 1338.92L359.271 1130.87L184.925 1001.59L138.821 846.501L151.489 842.733L196.337 993.595L370.682 1122.88L432.54 1330.93L606.885 1460.21L668.743 1668.26L795.169 1762Z" fill="url(#paint23_linear_113_8)"/>
<path d="M633.852 1733.56L625.978 1744.17L594.077 1720.54L532.22 1512.49L357.874 1383.21L296.017 1175.16L121.671 1045.88L110.377 1007.82L123.045 1004.05L133.083 1037.89L307.428 1167.17L369.286 1375.22L543.632 1504.5L605.489 1712.55L633.852 1733.56Z" fill="#F5F5F5"/>
<path d="M633.852 1733.56L625.978 1744.17L594.077 1720.54L532.22 1512.49L357.874 1383.21L296.017 1175.16L121.671 1045.88L110.377 1007.82L123.045 1004.05L133.083 1037.89L307.428 1167.17L369.286 1375.22L543.632 1504.5L605.489 1712.55L633.852 1733.56Z" fill="url(#paint24_linear_113_8)"/>
<path d="M530.833 1718.42L518.165 1722.19L468.966 1556.78L294.62 1427.5L232.762 1219.45L94.1595 1116.65L102.033 1106.03L244.174 1211.46L306.032 1419.51L480.377 1548.79L530.833 1718.42Z" fill="#F5F5F5"/>
<path d="M530.833 1718.42L518.165 1722.19L468.966 1556.78L294.62 1427.5L232.762 1219.45L94.1595 1116.65L102.033 1106.03L244.174 1211.46L306.032 1419.51L480.377 1548.79L530.833 1718.42Z" fill="url(#paint25_linear_113_8)"/>
<path d="M450.174 1704.2L437.507 1707.97L405.712 1601.08L231.431 1471.75L169.508 1263.74L79.9372 1197.31L87.8106 1186.69L180.92 1255.75L242.778 1463.8L417.123 1593.09L450.174 1704.2Z" fill="#F5F5F5"/>
<path d="M450.174 1704.2L437.507 1707.97L405.712 1601.08L231.431 1471.75L169.508 1263.74L79.9372 1197.31L87.8106 1186.69L180.92 1255.75L242.778 1463.8L417.123 1593.09L450.174 1704.2Z" fill="url(#paint26_linear_113_8)"/>
<path d="M369.516 1689.98L356.848 1693.75L342.458 1645.37L168.177 1516.04L106.254 1308.03L65.7149 1277.96L73.5883 1267.35L117.666 1300.04L179.524 1508.09L353.869 1637.38L369.516 1689.98Z" fill="#F5F5F5"/>
<path d="M369.516 1689.98L356.848 1693.75L342.458 1645.37L168.177 1516.04L106.254 1308.03L65.7149 1277.96L73.5883 1267.35L117.666 1300.04L179.524 1508.09L353.869 1637.38L369.516 1689.98Z" fill="url(#paint27_linear_113_8)"/>
<path d="M275.405 1670.35L267.532 1680.97L104.923 1560.33L47.1731 1366.26L59.8409 1362.5L116.27 1552.38L275.405 1670.35Z" fill="#F5F5F5"/>
<path d="M275.405 1670.35L267.532 1680.97L104.923 1560.33L47.1731 1366.26L59.8409 1362.5L116.27 1552.38L275.405 1670.35Z" fill="url(#paint28_linear_113_8)"/>
<path d="M114.088 1641.91L106.214 1652.52L41.6694 1604.62L18.7285 1527.58L31.3963 1523.81L53.016 1596.67L114.088 1641.91Z" fill="#F5F5F5"/>
<path d="M114.088 1641.91L106.214 1652.52L41.6694 1604.62L18.7285 1527.58L31.3963 1523.81L53.016 1596.67L114.088 1641.91Z" fill="url(#paint29_linear_113_8)"/>
<defs>
<linearGradient id="paint0_linear_113_8" x1="1862.93" y1="309.01" x2="1913.88" y2="308.239" gradientUnits="userSpaceOnUse">
<stop offset="0.223958" stop-color="white"/>
<stop offset="1" stop-color="white" stop-opacity="0"/>
</linearGradient>
<linearGradient id="paint1_linear_113_8" x1="1775.72" y1="338.13" x2="1906.65" y2="336.15" gradientUnits="userSpaceOnUse">
<stop offset="0.223958" stop-color="white"/>
<stop offset="1" stop-color="white" stop-opacity="0"/>
</linearGradient>
<linearGradient id="paint2_linear_113_8" x1="1688.51" y1="367.251" x2="1899.42" y2="364.061" gradientUnits="userSpaceOnUse">
<stop offset="0.223958" stop-color="white"/>
<stop offset="1" stop-color="white" stop-opacity="0"/>
</linearGradient>
<linearGradient id="paint3_linear_113_8" x1="1601.31" y1="396.371" x2="1892.19" y2="391.972" gradientUnits="userSpaceOnUse">
<stop offset="0.223958" stop-color="white"/>
<stop offset="1" stop-color="white" stop-opacity="0"/>
</linearGradient>
<linearGradient id="paint4_linear_113_8" x1="1432.62" y1="451.458" x2="1881.32" y2="444.672" gradientUnits="userSpaceOnUse">
<stop offset="0.223958" stop-color="white"/>
<stop offset="1" stop-color="white" stop-opacity="0"/>
</linearGradient>
<linearGradient id="paint5_linear_113_8" x1="1271.9" y1="506.369" x2="1864.88" y2="497.401" gradientUnits="userSpaceOnUse">
<stop offset="0.223958" stop-color="white"/>
<stop offset="1" stop-color="white" stop-opacity="0"/>
</linearGradient>
<linearGradient id="paint6_linear_113_8" x1="1184.69" y1="535.49" x2="1857.65" y2="525.312" gradientUnits="userSpaceOnUse">
<stop offset="0.223958" stop-color="white"/>
<stop offset="1" stop-color="white" stop-opacity="0"/>
</linearGradient>
<linearGradient id="paint7_linear_113_8" x1="1097.48" y1="564.61" x2="1850.43" y2="553.223" gradientUnits="userSpaceOnUse">
<stop offset="0.223958" stop-color="white"/>
<stop offset="1" stop-color="white" stop-opacity="0"/>
</linearGradient>
<linearGradient id="paint8_linear_113_8" x1="1010.27" y1="593.731" x2="1843.2" y2="581.134" gradientUnits="userSpaceOnUse">
<stop offset="0.223958" stop-color="white"/>
<stop offset="1" stop-color="white" stop-opacity="0"/>
</linearGradient>
<linearGradient id="paint9_linear_113_8" x1="870.658" y1="639.11" x2="1834.73" y2="624.53" gradientUnits="userSpaceOnUse">
<stop offset="0.223958" stop-color="white"/>
<stop offset="1" stop-color="white" stop-opacity="0"/>
</linearGradient>
<linearGradient id="paint10_linear_113_8" x1="696.243" y1="697.352" x2="1820.27" y2="680.352" gradientUnits="userSpaceOnUse">
<stop offset="0.223958" stop-color="white"/>
<stop offset="1" stop-color="white" stop-opacity="0"/>
</linearGradient>
<linearGradient id="paint11_linear_113_8" x1="593.658" y1="732.849" x2="1808.66" y2="714.474" gradientUnits="userSpaceOnUse">
<stop offset="0.223958" stop-color="white"/>
<stop offset="1" stop-color="white" stop-opacity="0"/>
</linearGradient>
<linearGradient id="paint12_linear_113_8" x1="506.451" y1="761.97" x2="1801.43" y2="742.385" gradientUnits="userSpaceOnUse">
<stop offset="0.223958" stop-color="white"/>
<stop offset="1" stop-color="white" stop-opacity="0"/>
</linearGradient>
<linearGradient id="paint13_linear_113_8" x1="419.244" y1="791.09" x2="1794.2" y2="770.296" gradientUnits="userSpaceOnUse">
<stop offset="0.223958" stop-color="white"/>
<stop offset="1" stop-color="white" stop-opacity="0"/>
</linearGradient>
<linearGradient id="paint14_linear_113_8" x1="308.641" y1="826.753" x2="1788.14" y2="804.368" gradientUnits="userSpaceOnUse">
<stop offset="0.223958" stop-color="white"/>
<stop offset="1" stop-color="white" stop-opacity="0"/>
</linearGradient>
<linearGradient id="paint15_linear_113_8" x1="157.491" y1="882.079" x2="1763.53" y2="857.79" gradientUnits="userSpaceOnUse">
<stop offset="0.223958" stop-color="white"/>
<stop offset="1" stop-color="white" stop-opacity="0"/>
</linearGradient>
<linearGradient id="paint16_linear_113_8" x1="149.817" y1="919.395" x2="1675.88" y2="896.316" gradientUnits="userSpaceOnUse">
<stop offset="0.223958" stop-color="white"/>
<stop offset="1" stop-color="white" stop-opacity="0"/>
</linearGradient>
<linearGradient id="paint17_linear_113_8" x1="142.143" y1="956.711" x2="1588.23" y2="934.841" gradientUnits="userSpaceOnUse">
<stop offset="0.223958" stop-color="white"/>
<stop offset="1" stop-color="white" stop-opacity="0"/>
</linearGradient>
<linearGradient id="paint18_linear_113_8" x1="124.907" y1="1026.41" x2="1426.7" y2="1006.72" gradientUnits="userSpaceOnUse">
<stop offset="0.223958" stop-color="white"/>
<stop offset="1" stop-color="white" stop-opacity="0"/>
</linearGradient>
<linearGradient id="paint19_linear_113_8" x1="113.151" y1="1097.69" x2="1257.08" y2="1080.39" gradientUnits="userSpaceOnUse">
<stop offset="0.223958" stop-color="white"/>
<stop offset="1" stop-color="white" stop-opacity="0"/>
</linearGradient>
<linearGradient id="paint20_linear_113_8" x1="105.482" y1="1134.98" x2="1169.49" y2="1118.89" gradientUnits="userSpaceOnUse">
<stop offset="0.223958" stop-color="white"/>
<stop offset="1" stop-color="white" stop-opacity="0"/>
</linearGradient>
<linearGradient id="paint21_linear_113_8" x1="97.8084" y1="1172.3" x2="1081.84" y2="1157.41" gradientUnits="userSpaceOnUse">
<stop offset="0.223958" stop-color="white"/>
<stop offset="1" stop-color="white" stop-opacity="0"/>
</linearGradient>
<linearGradient id="paint22_linear_113_8" x1="90.1345" y1="1209.61" x2="994.184" y2="1195.94" gradientUnits="userSpaceOnUse">
<stop offset="0.223958" stop-color="white"/>
<stop offset="1" stop-color="white" stop-opacity="0"/>
</linearGradient>
<linearGradient id="paint23_linear_113_8" x1="75.457" y1="1266.87" x2="861.876" y2="1254.98" gradientUnits="userSpaceOnUse">
<stop offset="0.223958" stop-color="white"/>
<stop offset="1" stop-color="white" stop-opacity="0"/>
</linearGradient>
<linearGradient id="paint24_linear_113_8" x1="60.1093" y1="1341.5" x2="686.573" y2="1332.03" gradientUnits="userSpaceOnUse">
<stop offset="0.223958" stop-color="white"/>
<stop offset="1" stop-color="white" stop-opacity="0"/>
</linearGradient>
<linearGradient id="paint25_linear_113_8" x1="53.474" y1="1387.88" x2="575.445" y2="1379.99" gradientUnits="userSpaceOnUse">
<stop offset="0.223958" stop-color="white"/>
<stop offset="1" stop-color="white" stop-opacity="0"/>
</linearGradient>
<linearGradient id="paint26_linear_113_8" x1="45.8002" y1="1425.2" x2="487.793" y2="1418.51" gradientUnits="userSpaceOnUse">
<stop offset="0.223958" stop-color="white"/>
<stop offset="1" stop-color="white" stop-opacity="0"/>
</linearGradient>
<linearGradient id="paint27_linear_113_8" x1="38.1263" y1="1462.51" x2="400.142" y2="1457.04" gradientUnits="userSpaceOnUse">
<stop offset="0.223958" stop-color="white"/>
<stop offset="1" stop-color="white" stop-opacity="0"/>
</linearGradient>
<linearGradient id="paint28_linear_113_8" x1="26.0068" y1="1507.33" x2="297.051" y2="1503.23" gradientUnits="userSpaceOnUse">
<stop offset="0.223958" stop-color="white"/>
<stop offset="1" stop-color="white" stop-opacity="0"/>
</linearGradient>
<linearGradient id="paint29_linear_113_8" x1="10.659" y1="1581.96" x2="121.748" y2="1580.28" gradientUnits="userSpaceOnUse">
<stop offset="0.223958" stop-color="white"/>
<stop offset="1" stop-color="white" stop-opacity="0"/>
</linearGradient>
</defs>
</svg>
