<svg width="380" height="99" viewBox="0 0 380 99" fill="none" xmlns="http://www.w3.org/2000/svg">
<g clip-path="url(#clip0_1_11)">
<path fill-rule="evenodd" clip-rule="evenodd" d="M204.436 87.1731V88.3103H200.399V90.3825H204.105V91.5197H200.399V93.6678H204.499V94.7923H199.151V87.1731H204.436ZM216.305 93.6678H219.87V88.3229H217.4C217.273 90.2182 217.018 92.2905 216.305 93.6678ZM214.012 96.5361V93.6678H214.942C215.923 91.8988 216.165 89.4222 216.165 87.1731H221.118V93.6678H222.086V96.5361H220.94V94.805H215.146V96.5361H214.012ZM237.432 94.805V90.054C237.432 89.776 237.432 89.4854 237.445 89.22L233.306 94.7923H232.134V87.1731H233.382V91.9114C233.382 92.1894 233.382 92.48 233.37 92.7454L237.508 87.1731H238.693V94.7923H237.432V94.805ZM255.86 87.1731V94.7923H254.599V91.545H250.549V94.7923H249.301V87.1731H250.549V90.4078H254.599V87.1731H255.86ZM270.046 88.1966C268.187 88.1966 267.27 89.5233 267.27 90.989C267.27 92.4548 268.187 93.7815 270.046 93.7815C271.906 93.7815 272.81 92.4548 272.81 90.989C272.81 89.5233 271.906 88.1966 270.046 88.1966ZM270.046 87.0341C272.746 87.0341 274.083 88.98 274.083 90.989C274.083 92.9981 272.746 94.944 270.046 94.944C267.334 94.944 265.997 92.9981 265.997 90.989C265.997 88.98 267.321 87.0341 270.046 87.0341ZM287.379 93.6678C288.194 93.6678 289.022 93.5288 289.022 92.48C289.022 91.4186 288.181 91.267 287.379 91.267H285.468V93.6678H287.379ZM287.353 90.1424C288.818 90.1424 290.295 90.5973 290.295 92.48C290.295 94.3501 288.818 94.805 287.353 94.805H284.22V87.1857H289.697V88.3355H285.468V90.1551H287.353V90.1424ZM303.896 88.1966C302.037 88.1966 301.133 89.5233 301.133 90.989C301.133 92.4548 302.037 93.7815 303.896 93.7815C305.755 93.7815 306.66 92.4548 306.66 90.989C306.66 89.5233 305.755 88.1966 303.896 88.1966ZM303.896 87.0341C306.596 87.0341 307.933 88.98 307.933 90.989C307.933 92.9981 306.596 94.944 303.896 94.944C301.183 94.944 299.859 92.9981 299.859 90.989C299.859 88.98 301.183 87.0341 303.896 87.0341ZM320.872 88.3103H319.318V91.0522H320.872C321.929 91.0522 322.82 90.7868 322.82 89.6749C322.82 88.563 321.942 88.3103 320.872 88.3103ZM320.808 87.1731C322.629 87.1731 324.094 87.7417 324.094 89.6749C324.094 91.6208 322.629 92.1768 320.808 92.1768H319.318V94.7923H318.07V87.1731H320.808ZM337.72 87.0341C338.484 87.0341 339.248 87.211 339.898 87.5269V88.7399C339.363 88.3735 338.65 88.1713 337.924 88.1713C336.447 88.1713 334.931 89.0305 334.919 91.0396C334.919 92.9096 336.485 93.7815 337.949 93.7815C338.739 93.7815 339.452 93.5793 339.962 93.2003V94.4259C339.312 94.7418 338.548 94.9313 337.733 94.9313C335.746 94.9313 333.645 93.6425 333.658 91.0396C333.658 88.3482 335.695 87.0341 337.72 87.0341ZM355.664 87.1731V88.3229H353.13V94.805H351.882V88.3229H349.335V87.1731H355.664ZM368.845 91.3934H366.769V93.7057H368.666C369.52 93.7057 370.436 93.6172 370.436 92.5558C370.436 91.545 369.545 91.3934 368.845 91.3934ZM368.641 88.2597H366.769V90.3446L368.819 90.3572C369.545 90.3572 370.131 90.054 370.131 89.3085C370.131 88.5377 369.558 88.2597 368.641 88.2597ZM368.768 87.1731C370.373 87.1731 371.404 87.8048 371.404 89.1063C371.404 90.0287 370.844 90.572 370.195 90.7868C370.895 90.989 371.71 91.5071 371.71 92.6948C371.71 94.4259 370.003 94.805 368.794 94.805H365.521V87.1857H368.768V87.1731ZM171.197 94.805L174.725 87.1857H176.087L179.615 94.805H178.342L175.413 88.6262L172.483 94.805H171.197ZM173.4 90.3572H177.259V91.4692H173.4V90.3572ZM144.097 88.1966C142.238 88.1966 141.334 89.5233 141.334 90.989C141.334 92.4548 142.251 93.7815 144.097 93.7815C145.969 93.7815 146.861 92.4548 146.861 90.989C146.861 89.5233 145.956 88.1966 144.097 88.1966ZM144.097 87.0341C146.797 87.0341 148.134 88.98 148.134 90.989C148.134 92.9981 146.797 94.944 144.097 94.944C141.385 94.944 140.06 92.9981 140.06 90.989C140.06 88.98 141.385 87.0341 144.097 87.0341ZM109.942 87.1731V93.554H112.985V87.1731H114.234V93.554H117.264V87.1731H118.512V94.7923H108.681V87.1731H109.942ZM125.198 94.805V87.1857H126.446V90.3699H127.962L130.101 87.1857H131.515L128.968 90.9006L131.706 94.805H130.292L127.975 91.5071H126.434V94.805H125.198ZM162.69 87.1731V94.7923H161.442V88.3229H158.895C158.602 91.6966 158.284 94.9061 156.221 94.9187C155.992 94.9187 155.737 94.8681 155.469 94.7923V93.6425C155.622 93.693 155.762 93.7183 155.992 93.7183C157.342 93.6804 157.482 90.2309 157.724 87.1857H162.69V87.1731ZM112.54 66.4886C117.888 60.2213 127.72 48.546 131.107 44.7553C132.572 43.0369 133.247 42.3672 133.731 42.3672C134.177 42.3672 134.355 42.721 134.355 45.8167C134.406 52.88 134.444 59.5643 134.533 66.577C134.571 69.5843 134.89 70.3803 136.176 70.5446C136.354 70.5951 137.195 70.6836 137.832 70.7215C138.315 70.81 138.366 70.9489 138.366 71.0753C138.366 71.3027 138.188 71.3406 137.742 71.3406C136.316 71.3406 132.572 71.2017 131.961 71.2017C130.98 71.2017 129.681 71.3406 128.306 71.3406C127.771 71.3406 127.682 71.2522 127.682 71.0753C127.682 70.8984 127.733 70.81 128.306 70.7594C128.611 70.7089 129.057 70.671 129.375 70.5825C130.573 70.3172 130.713 68.6366 130.751 65.8568C130.891 59.8928 130.84 53.7898 130.929 47.5604C128.841 50.037 112.4 69.4327 111.024 70.8352C110.133 71.6692 109.738 71.8082 109.509 71.8082C109.114 71.8082 108.974 71.5428 108.974 70.0897C108.974 63.9867 109.063 55.3819 108.974 48.129C108.923 44.0225 108.477 43.7571 107.191 43.6181C106.694 43.5676 106.21 43.5676 105.905 43.5297C105.586 43.4918 105.497 43.3528 105.497 43.2138C105.497 42.9484 105.854 42.9105 106.351 42.9105C107.548 42.9105 110.222 43.0369 110.846 43.0369C112.272 43.0369 113.775 42.9105 114.896 42.9105C115.392 42.9105 115.609 42.999 115.609 43.1759C115.609 43.3528 115.52 43.4791 115.074 43.5297C114.59 43.5802 114.412 43.5802 114.055 43.6181C113.036 43.795 112.629 44.2752 112.629 47.4214L112.54 66.4886ZM176.317 66.4886C176.444 67.55 176.724 70.0265 178.456 70.4183C179.208 70.5951 180.099 70.6836 180.736 70.7215C180.914 70.7215 181.309 70.772 181.309 70.9869C181.309 71.2143 181.131 71.3406 180.647 71.3406C179.844 71.3406 175.03 71.1637 173.617 71.0753C172.636 70.9869 172.28 70.8984 172.28 70.6836C172.28 70.5446 172.458 70.3677 172.674 70.2793C172.891 70.1908 173.031 69.6601 172.942 69.041L170.981 50.1381L161.544 69.1421C160.691 70.8605 160.564 71.2648 160.156 71.2648C159.889 71.2648 159.659 70.8605 158.819 69.3695C158.106 68.0807 154.54 61.0174 154.272 60.6257C154.005 60.095 149.637 51.5154 149.293 50.593L147.65 67.6005C147.599 68.2197 147.599 68.6114 147.599 69.281C147.599 69.7612 147.816 70.4309 148.707 70.6078C149.204 70.6962 149.51 70.6962 149.955 70.7341C150.312 70.7847 150.401 70.911 150.401 70.9995C150.401 71.3154 150.134 71.3533 149.65 71.3533C148.223 71.3533 146.313 71.2143 145.956 71.2143C145.511 71.2143 143.639 71.3533 142.531 71.3533C142.136 71.3533 141.869 71.3027 141.869 70.9995C141.869 70.911 142.047 70.7341 142.442 70.7341C142.76 70.7341 142.798 70.7341 143.282 70.6962C144.352 70.6078 144.759 69.5464 144.976 67.7774L147.956 43.517C148.045 42.7715 148.223 42.4051 148.453 42.4051C148.669 42.4051 148.809 42.5315 149.115 43.1127L161.047 66.0463L172.407 43.1632C172.624 42.6705 172.802 42.4051 173.069 42.4051C173.337 42.4051 173.477 42.8094 173.515 43.517L176.317 66.4886ZM192.452 44.7932C191.917 44.8438 191.739 44.8817 191.739 45.5893V60.6509C191.739 64.2773 191.777 66.7034 191.879 68.2955C191.968 69.4958 192.274 70.3677 193.433 70.5446C194.006 70.6331 194.719 70.6836 195.075 70.7215C195.559 70.772 195.699 70.8984 195.699 71.0753C195.699 71.2143 195.521 71.3406 194.948 71.3406C193.305 71.3406 189.956 71.2017 189.778 71.2017C189.459 71.2017 187.192 71.3406 185.995 71.3406C185.588 71.3406 185.282 71.2901 185.282 71.0753C185.282 70.9869 185.282 70.81 185.728 70.7215C186.084 70.6836 186.135 70.6836 186.568 70.5951C187.46 70.4688 187.855 69.6222 187.906 68.0301C188.033 66.4886 188.084 64.0625 188.084 60.4361V53.7645C188.084 47.889 188.084 46.9539 187.995 45.7662C187.906 44.351 187.371 43.8582 186.263 43.6434C185.855 43.5929 185.46 43.5929 185.104 43.5549C184.747 43.517 184.607 43.4286 184.607 43.2011C184.607 43.0622 184.785 42.9358 185.231 42.9358C186.798 42.9358 189.192 43.0622 189.778 43.0622H209.632C209.81 43.0622 212.93 42.9358 213.86 42.9358C214.394 42.9358 214.433 43.1127 214.433 43.2011C214.433 43.3275 214.394 43.5549 213.987 43.5928C213.758 43.6434 213.63 43.6434 213.274 43.6813C212.204 43.8582 211.809 44.073 211.72 45.7535C211.669 46.9413 211.631 47.9648 211.631 53.7898V60.4235C211.631 64.0499 211.631 66.7413 211.771 68.2828C211.898 69.698 212.255 70.3551 213.376 70.532C213.949 70.671 214.496 70.671 214.929 70.7089C215.375 70.7594 215.464 70.8858 215.464 71.0627C215.464 71.2017 215.286 71.328 214.98 71.328C213.019 71.328 210.039 71.189 209.721 71.189C209.313 71.189 207.046 71.328 205.76 71.328C205.174 71.328 205.136 71.189 205.136 71.0627C205.136 70.9237 205.136 70.7468 205.709 70.7089C205.977 70.671 206.117 70.671 206.473 70.5825C207.097 70.4562 207.721 70.0518 207.81 68.3713C207.95 66.7792 207.989 63.8225 207.989 60.2466V45.0586C207.989 44.8817 207.861 44.7932 207.759 44.7932C207.135 44.7427 205.174 44.7427 199.482 44.7427C193.916 44.7553 192.987 44.7553 192.452 44.7932ZM224.926 53.8151C224.926 48.028 224.926 46.9666 224.837 45.7788C224.748 44.5405 224.442 43.9214 223.143 43.656C222.876 43.6055 222.43 43.5676 222.074 43.5676C221.768 43.5676 221.501 43.4412 221.501 43.3022C221.501 43.0369 221.717 42.9484 222.163 42.9484C223.054 42.9484 224.264 43.0369 226.747 43.0748C226.964 43.0748 234.898 43.0748 235.789 43.0242C236.681 42.9863 237.177 42.9358 237.534 42.7968C237.801 42.7084 237.84 42.6578 238.018 42.6578C238.107 42.6578 238.196 42.7463 238.196 42.9737C238.196 43.2391 237.929 43.8456 237.84 44.9575C237.801 45.7156 237.75 46.4232 237.699 47.2572C237.699 47.6615 237.61 47.9142 237.394 47.9142C237.165 47.9142 237.075 47.7373 237.075 47.4341C237.025 46.777 236.897 46.3221 236.757 46.0189C236.49 45.1344 236.095 44.8311 233.866 44.6921C233.293 44.6416 228.887 44.6037 228.798 44.6037C228.658 44.6037 228.568 44.6922 228.568 44.9575V54.9902C228.568 55.2555 228.607 55.4324 228.836 55.4324C229.371 55.4324 233.917 55.3945 234.847 55.2934C235.866 55.2555 236.541 55.1165 236.897 54.6364C237.075 54.371 237.216 54.2826 237.394 54.2826C237.483 54.2826 237.572 54.3205 237.572 54.5479C237.572 54.7754 237.394 55.6093 237.254 56.8981C237.114 58.1364 237.114 59.0083 237.075 59.5895C237.025 59.9433 236.935 60.0697 236.757 60.0697C236.541 60.0697 236.49 59.8043 236.49 59.5011C236.49 59.2357 236.439 58.7935 236.35 58.4397C236.171 57.8711 235.904 57.2519 234.21 57.113C233.179 57.0245 229.575 56.9361 228.861 56.9361C228.594 56.9361 228.543 57.0624 228.543 57.2519V60.474C228.543 61.8387 228.492 65.7304 228.543 66.4759C228.632 68.1059 228.861 68.9525 229.791 69.3442C230.453 69.6601 231.523 69.7359 233.038 69.7359C233.892 69.7359 235.318 69.7865 236.426 69.4706C237.763 69.0662 238.069 68.1944 238.425 66.5518C238.515 66.1095 238.642 65.9326 238.82 65.9326C239.088 65.9326 239.088 66.3369 239.088 66.6023C239.088 66.9055 238.731 69.698 238.604 70.4435C238.425 71.328 238.107 71.4165 236.642 71.4165C233.701 71.4165 232.453 71.328 230.899 71.328C229.333 71.2775 227.295 71.189 225.639 71.189C224.621 71.189 223.767 71.328 222.71 71.328C222.303 71.328 222.086 71.2396 222.086 71.0121C222.086 70.8352 222.265 70.6962 222.494 70.6962C222.761 70.6962 223.067 70.6583 223.385 70.5699C224.188 70.393 224.722 69.8117 224.812 67.0825C224.863 65.5788 224.901 63.7719 224.901 60.4108V53.8151H224.926ZM248.397 53.8151C248.397 47.7247 248.397 46.916 248.308 45.7283C248.219 44.5784 247.862 43.8708 246.614 43.6055C246.308 43.5549 245.595 43.517 245.226 43.517C245.137 43.517 244.958 43.4286 244.958 43.3022C244.958 43.0369 245.188 42.9484 245.582 42.9484C247.493 42.9484 249.951 43.0748 250.218 43.0748C251.148 43.0748 253.427 42.9484 255.248 42.9484C260.139 42.9484 261.921 44.5405 262.545 45.0712C263.386 45.8293 264.507 47.5478 264.507 50.0244C264.507 54.927 260.406 58.5029 254.841 58.5029C254.663 58.5029 254.217 58.5029 254 58.4523C253.822 58.4523 253.593 58.3639 253.593 58.187C253.593 57.8332 253.86 57.8332 254.713 57.8332C258.241 57.8332 261.17 55.445 261.17 51.5533C261.17 50.9847 261.31 48.3312 259.26 46.2084C257.069 43.9087 254.535 44.1362 253.733 44.1362C253.147 44.1362 252.485 44.2246 252.217 44.351C252.001 44.4394 251.95 44.7553 251.95 45.0586V60.3477C251.95 63.7466 251.95 66.9308 252.128 68.5229C252.268 69.5843 252.485 70.4688 253.682 70.5951C254.217 70.6836 255.108 70.772 255.465 70.772C255.643 70.772 255.732 70.8605 255.732 70.9995C255.732 71.2269 255.554 71.3533 255.108 71.3533C252.79 71.3533 250.307 71.2143 250.078 71.2143C250.04 71.2143 247.404 71.3533 246.156 71.3533C245.761 71.3533 245.531 71.2648 245.531 70.9995C245.531 70.8605 245.621 70.772 245.85 70.772C246.156 70.772 246.652 70.6836 247.009 70.5951C247.811 70.4688 248.028 69.5843 248.168 68.5229C248.397 66.9308 248.397 63.7467 248.397 60.4361V53.8151ZM281.533 59.0209C281.712 59.0209 281.712 58.8819 281.673 58.7556L278.159 48.9883C277.929 48.3691 277.891 48.3691 277.662 48.9883L274.325 58.7556C274.236 58.9325 274.325 59.0209 274.415 59.0209H281.533ZM273.969 60.5625C273.74 60.5625 273.612 60.7015 273.523 60.9163L271.562 66.438C271.116 67.6763 270.81 68.8641 270.81 69.5843C270.81 70.3803 271.307 70.7341 272.288 70.7341C272.415 70.7341 272.466 70.7341 272.593 70.7341C273.001 70.7341 273.128 70.8731 273.128 71.05C273.128 71.2775 272.772 71.3659 272.453 71.3659C271.473 71.3659 269.422 71.2269 268.938 71.2269C268.493 71.2269 266.532 71.3659 264.66 71.3659C264.163 71.3659 263.946 71.2775 263.946 71.05C263.946 70.8731 264.125 70.7341 264.481 70.7341C264.71 70.7341 265.105 70.7341 265.373 70.6962C267.283 70.5067 268.047 69.0536 268.798 67.1962L277.713 43.9087C278.197 42.6325 278.337 42.4051 278.643 42.4051C278.859 42.4051 279.05 42.582 279.534 43.8203C280.158 45.2734 286.207 60.7015 288.576 66.2232C290.04 69.7107 291.339 70.2919 291.963 70.5067C292.549 70.7341 293.16 70.7341 293.479 70.7341C293.797 70.7341 294.014 70.8226 294.014 71.05C294.014 71.2775 293.835 71.3659 293.339 71.3659C292.893 71.3659 289.556 71.3659 286.576 71.2775C285.736 71.2396 285.456 71.189 285.456 70.9616C285.456 70.8226 285.596 70.6962 285.774 70.6457C285.952 70.5572 286.22 70.3424 285.952 69.6727L282.438 60.7899C282.348 60.6509 282.259 60.5625 282.081 60.5625H273.969ZM305.093 60.4361C305.093 63.8351 305.144 66.9814 305.322 68.6114C305.45 69.6727 305.539 70.2919 306.66 70.5572C307.194 70.6962 308.048 70.7341 308.392 70.7341C308.748 70.7341 308.926 70.8731 308.926 70.9995C308.926 71.2269 308.786 71.3533 308.341 71.3533C306.074 71.3533 303.45 71.2143 303.259 71.2143C303.081 71.2143 300.458 71.3533 299.299 71.3533C298.815 71.3533 298.636 71.2648 298.636 71.0374C298.636 70.911 298.777 70.7215 299.12 70.7215C299.477 70.7215 299.744 70.7215 300.101 70.6836C300.942 70.5446 301.082 70.0139 301.26 68.5103C301.438 66.9182 301.438 63.734 301.438 60.4235V44.6669C299.974 44.6669 297.605 44.6669 295.822 44.7174C292.969 44.768 292.345 45.1976 291.734 46.1326C291.327 46.7518 291.148 47.2824 291.059 47.5099C290.932 47.8131 290.843 47.8637 290.652 47.8637C290.473 47.8637 290.435 47.6868 290.435 47.472C290.397 47.2066 291.059 44.2878 291.327 43.1001C291.467 42.5694 291.594 42.3925 291.734 42.3925C292.04 42.3925 292.893 42.7968 293.683 42.8853C295.249 43.0622 296.484 43.1127 296.535 43.1127H311.142C312.39 43.1127 313.727 43.0242 314.351 42.8853C314.925 42.7463 315.065 42.7084 315.192 42.7084C315.37 42.7084 315.459 42.9358 315.459 43.1127C315.459 44.351 315.37 47.2698 315.37 47.6236C315.37 48.0153 315.192 48.1543 315.052 48.1543C314.823 48.1543 314.734 47.9774 314.734 47.6236C314.734 47.4846 314.734 47.4467 314.683 47.0045C314.504 45.2355 313.931 44.7932 309.436 44.7553C307.742 44.7553 306.367 44.7048 305.068 44.7048V60.4361H305.093ZM345.578 57.6057C345.578 48.7229 340.051 43.7697 333.963 43.7697C327.774 43.7697 322.782 47.5731 322.782 55.9252C322.782 64.5806 327.634 70.3298 335.11 70.3298C338.102 70.3298 345.578 68.8262 345.578 57.6057ZM318.643 57.075C318.643 51.1995 323.228 42.4051 334.231 42.4051C343.043 42.4051 349.768 47.6236 349.768 56.5064C349.768 64.947 343.489 71.8334 334.002 71.8334C323.1 71.8334 318.643 63.7972 318.643 57.075ZM358.771 53.8151C358.771 47.7247 358.771 46.916 358.682 45.7283C358.593 44.5784 358.236 43.8708 356.988 43.6055C356.67 43.5549 355.97 43.517 355.6 43.517C355.511 43.517 355.333 43.4286 355.333 43.3022C355.333 43.0369 355.549 42.9484 355.957 42.9484C357.867 42.9484 360.325 43.0748 360.592 43.0748C361.522 43.0748 363.802 42.9484 365.623 42.9484C370.526 42.9484 372.309 44.5405 372.933 45.0712C373.786 45.8293 374.894 47.5478 374.894 50.0244C374.894 54.927 370.806 58.5029 365.228 58.5029C365.05 58.5029 364.604 58.5029 364.387 58.4523C364.209 58.4523 363.98 58.3639 363.98 58.187C363.98 57.8332 364.247 57.8332 365.101 57.8332C368.615 57.8332 371.557 55.445 371.557 51.5533C371.557 50.9847 371.697 48.3312 369.647 46.2084C367.469 43.9087 364.922 44.1362 364.12 44.1362C363.547 44.1362 362.872 44.2246 362.604 44.351C362.375 44.4394 362.337 44.7553 362.337 45.0586V60.3477C362.337 63.7466 362.337 66.9308 362.515 68.5229C362.643 69.5843 362.872 70.4688 364.069 70.5951C364.604 70.6836 365.495 70.772 365.852 70.772C366.03 70.772 366.119 70.8605 366.119 70.9995C366.119 71.2269 365.941 71.3533 365.495 71.3533C363.178 71.3533 360.694 71.2143 360.465 71.2143C360.414 71.2143 357.791 71.3533 356.543 71.3533C356.148 71.3533 355.919 71.2648 355.919 70.9995C355.919 70.8605 356.008 70.772 356.237 70.772C356.543 70.772 357.027 70.6836 357.396 70.5951C358.198 70.4688 358.427 69.5843 358.555 68.5229C358.771 66.9308 358.771 63.7467 358.771 60.4361V53.8151ZM167.275 33.7371H103.829C103.269 33.7371 102.81 33.1811 102.81 32.4988C102.81 31.8165 103.269 31.2605 103.829 31.2605H167.262C167.822 31.2605 168.281 31.8165 168.281 32.4988C168.294 33.1811 167.835 33.7371 167.275 33.7371ZM376.333 79.6043H104.058C103.371 79.6043 102.81 79.0484 102.81 78.3661C102.81 77.6837 103.371 77.1278 104.058 77.1278H376.333C377.02 77.1278 377.581 77.6837 377.581 78.3661C377.594 79.061 377.033 79.6043 376.333 79.6043ZM301.973 29.2388C301.973 29.6684 300.814 30.2876 298.496 31.1089C296.637 31.7659 295.236 32.0944 294.319 32.0944C293.275 32.0944 292.447 31.9175 291.836 31.5638C291.619 31.4753 291.212 31.1468 290.601 30.5782C289.111 31.3237 288.041 31.7786 287.379 31.9555C286.36 32.2334 284.934 32.3724 283.1 32.3724C282.489 32.3724 281.941 32.1703 281.482 31.7786C281.024 31.3742 280.795 30.8941 280.795 30.3002C280.795 29.9843 281.126 29.4662 281.788 28.7586C280.718 28.9861 279.61 29.0998 278.451 29.0998C277.624 29.0998 276.783 28.9229 275.943 28.5691C274.173 30.3255 272.963 31.4374 272.326 31.9049C270.938 32.9537 269.55 33.4844 268.187 33.4844C267.741 33.4844 267.347 33.2948 267.015 32.9031C266.684 32.5241 266.519 32.1576 266.519 31.8291C266.519 31.2605 266.723 30.5782 267.13 29.7948C266.595 30.0601 265.946 30.3634 265.169 30.7045C262.049 32.0818 259.833 32.7768 258.508 32.7768C257.63 32.7768 256.904 32.6378 256.305 32.3345C255.719 32.0439 255.439 31.7154 255.452 31.3363C255.478 31.071 255.605 30.7551 255.821 30.3886C256.051 30.0222 256.254 29.6684 256.445 29.3399C255.35 29.8832 254 30.4771 252.37 31.1089C250.74 31.7533 249.772 32.0818 249.467 32.0818C248.715 32.0818 248.333 31.8923 248.333 31.5132C248.333 31.21 248.562 30.7424 249.008 30.1107C247.569 30.9699 246.245 31.6269 245.035 32.0818C242.883 32.8526 241.303 33.2443 240.285 33.2443C239.177 33.2443 238.616 32.6757 238.616 31.5258C238.616 30.8688 238.909 30.0601 239.508 29.0998C240.094 28.1395 240.552 27.6593 240.858 27.6593C241.456 27.6593 241.749 27.9121 241.749 28.4048C241.749 28.8724 241.584 29.3778 241.253 29.9211C240.921 30.4645 240.756 30.8183 240.756 31.0078C240.781 31.3616 241.125 31.5385 241.787 31.5385C242.169 31.5385 243.023 31.311 244.36 30.8435C245.697 30.376 246.869 29.8832 247.887 29.3652C250.294 28.1521 252.536 26.6359 254.612 24.829C256.471 23.2116 257.592 22.4029 257.948 22.4029C258.33 22.4029 258.508 22.6809 258.508 23.2495C258.508 23.477 258.216 23.8687 257.63 24.412C257.171 24.7911 256.726 25.1575 256.28 25.5366C255.197 26.5474 253.516 28.0258 251.25 29.9969C253.44 29.3904 256.076 28.1395 259.145 26.2315C259.807 25.8145 260.457 25.3849 261.094 24.968C262.011 24.3867 262.635 24.0835 262.94 24.0835C263.348 24.0835 263.552 24.3362 263.552 24.8163C263.552 25.2712 262.469 26.2568 260.291 27.811C259.731 28.2027 259.043 28.7839 258.279 29.5547C257.502 30.3128 257.108 30.793 257.108 30.9699C257.108 31.3489 257.579 31.5385 258.521 31.5385C259.96 31.5385 261.921 30.9699 264.392 29.8453C264.609 29.7569 265.385 29.3652 266.735 28.6955C267.627 28.2532 268.162 28.0131 268.34 28.0005C268.951 27.2297 269.664 26.4842 270.492 25.7893C271.434 24.9932 272.593 24.3235 273.969 23.7802C275.051 23.3506 275.854 23.1484 276.376 23.1484C276.681 23.1484 277.025 23.3253 277.407 23.6665C277.789 24.0203 277.968 24.4373 277.968 24.9301C277.968 25.4228 277.675 26.2568 277.089 27.4193C277.42 27.5835 277.993 27.7478 278.821 27.9121C279.458 27.9121 280.311 27.8362 281.368 27.6846C282.387 27.533 282.985 27.4572 283.151 27.4572C283.304 27.3182 283.469 27.1792 283.635 27.0402C285.481 25.4734 286.729 24.6142 287.391 24.4752C287.697 24.412 287.85 24.6268 287.85 25.1449C287.85 25.3597 287.009 26.1683 285.328 27.5835C283.647 28.9987 282.82 29.9085 282.82 30.3128C282.82 30.7424 283.253 30.9446 284.131 30.9446C286.475 30.9446 288.831 30.1486 291.212 28.5565C291.683 28.2532 292.651 27.5204 294.116 26.3452C295.134 25.5492 295.771 25.1449 296.026 25.1449C296.382 25.1449 296.561 25.3976 296.561 25.8904C296.561 26.5853 296.242 27.2171 295.606 27.7857C295.364 28.0005 294.791 28.3922 293.874 28.9861C293.237 29.3778 292.918 29.719 292.918 29.9717C292.918 30.6287 293.466 30.9572 294.574 30.9572C295.096 30.9572 296.217 30.7045 297.936 30.1865C298.318 30.0727 299.006 29.8074 300.025 29.4157C300.827 29.0872 301.324 28.9229 301.515 28.9229C301.82 28.885 301.973 28.9987 301.973 29.2388ZM214.496 11.5616C214.496 13.0905 213.465 14.7837 211.427 16.6411C209.39 18.4985 207.696 19.4336 206.346 19.4336C205.798 19.4336 205.34 19.3072 204.958 19.0545C204.512 18.7765 204.283 18.3974 204.283 17.9299C204.283 16.7801 205.187 15.8956 207.008 15.2638C207.25 15.2006 207.454 15.4154 207.632 15.9461C207.81 16.4642 208.014 16.7295 208.256 16.7295C208.727 16.7295 209.479 16.2494 210.523 15.2891C211.656 14.2151 212.229 13.2548 212.229 12.4082C212.229 12.1555 212.102 11.928 211.86 11.7258C211.618 11.5237 211.402 11.4352 211.249 11.4352C210.778 11.4352 209.861 11.7385 208.511 12.345C206.55 13.2042 204.601 14.392 202.665 15.8956C199.736 18.17 197.037 20.5581 194.553 23.06C191.459 26.181 189.918 28.4554 189.918 29.9085C189.918 30.0728 190.007 30.237 190.198 30.4013C190.389 30.5655 190.58 30.654 190.771 30.654C192.452 30.654 195.992 30.0348 201.392 28.7966C203.213 28.3669 205.696 27.6846 208.829 26.7243L210.205 26.2947L210.357 26.1557C211.414 25.2459 212.611 24.3615 213.936 23.5149C218.712 20.5076 220.596 25.4481 214.458 27.9121C213.872 28.1521 209.275 29.0745 209.326 30.4392C209.351 31.0457 210.077 31.3489 211.593 31.3489C212.637 31.3489 214.076 30.9825 215.935 30.2623C216.661 29.9717 217.26 29.7442 217.718 29.5673C218.075 28.8471 218.903 27.9879 220.202 26.9897C221.908 25.6756 223.041 25.0185 223.64 25.0185C224.111 25.0185 224.353 25.2459 224.353 25.6882C224.353 26.2442 224.086 26.6611 223.564 26.9012C223.029 27.1539 222.507 27.3814 221.984 27.6214C220.444 28.5312 219.679 29.3525 219.679 30.0727C219.679 30.4265 219.972 30.6034 220.558 30.6034C222.494 30.6034 224.761 29.2009 227.346 26.4084C229.931 23.616 231.23 21.0636 231.23 18.7639C231.23 15.9082 230.491 13.4569 229.001 11.4226C228.034 10.1085 226.162 8.3395 223.373 6.11563C221.131 4.33401 218.075 3.03255 214.229 2.21123C211.656 1.64263 209.224 1.36465 206.932 1.36465C203.633 1.36465 199.622 1.98379 194.923 3.23472C191.357 4.16975 188.339 5.68602 185.855 7.7709C183.181 9.99477 181.856 12.3197 181.856 14.7584C181.856 16.3757 182.863 17.8541 184.862 19.1809C185.269 19.4336 185.881 19.7368 186.708 20.0653C187.294 20.3054 187.6 20.495 187.6 20.6592C187.6 21.0383 187.32 21.2278 186.747 21.2278C185.499 21.2278 184.187 20.6971 182.812 19.6484C181.131 18.3595 180.303 16.7295 180.303 14.7584C180.303 11.7638 181.793 9.09764 184.76 6.74742C187.218 4.8268 190.44 3.25999 194.426 2.03433C198.883 0.669687 202.958 0 206.639 0C208.995 0 211.656 0.328526 214.611 0.985577C218.813 1.89534 222.061 3.25999 224.353 5.06688C227.091 7.22757 229.078 9.14818 230.3 10.8287C231.93 13.0526 232.746 15.4154 232.746 17.9299C232.746 19.7621 232.071 21.8217 230.721 24.1214C229.371 26.4211 227.715 28.329 225.729 29.8832C223.525 31.5638 221.399 32.4103 219.31 32.4103C218.763 32.4103 218.33 32.2082 217.998 31.7786C217.795 31.5132 217.655 31.2352 217.578 30.9193C217.285 31.0457 216.954 31.172 216.585 31.311C214.458 32.1576 212.688 32.5746 211.274 32.5746C210.115 32.5746 209.186 32.3598 208.473 31.9428C207.772 31.5132 207.416 31.0078 207.416 30.4265C207.416 29.7821 207.709 29.0493 208.307 28.2532C206.511 28.8092 204.614 29.3652 202.602 29.8959C196.68 31.4627 192.503 32.2461 190.071 32.2461C188.466 32.2461 187.664 31.4627 187.664 29.8959C187.664 29.3272 188.097 28.3669 188.975 27.0149C190.02 25.3976 191.446 23.6539 193.267 21.7838C195.483 19.4841 198.769 16.7043 203.111 13.419C204.474 12.3955 206.168 11.4605 208.18 10.6392C209.975 9.91895 211.287 9.55252 212.115 9.55252C213.681 9.55252 214.496 10.2222 214.496 11.5616ZM213.592 26.1304H213.618H213.63H213.643C214.725 25.8777 216.114 25.5745 216.266 24.2856C216.279 24.2225 216.317 24.0329 216.33 24.0329C215.375 23.5907 213.63 25.2333 213.172 25.9662C212.994 26.2442 212.255 26.5474 213.032 26.3073L213.083 26.2947H213.095C213.236 26.2442 213.388 26.2063 213.554 26.1683H213.567H213.579H213.592V26.1304ZM242.641 19.8126C242.704 20.1412 241.482 21.2657 238.96 23.1863C237.992 23.9066 236.859 25.069 235.56 26.6611C235.84 26.6611 236.133 26.838 236.451 27.1792C236.757 27.533 236.961 27.9247 237.05 28.3417C237.216 29.024 236.757 29.8706 235.662 30.9067C234.388 32.145 232.784 32.7641 230.848 32.7641C229.434 32.7641 228.594 32.2082 228.339 31.0836C228.123 30.1233 228.861 28.9861 230.568 27.672C230.95 27.3687 231.51 27.0276 232.262 26.6611C233.179 26.2063 233.713 25.9535 233.854 25.8904C235.293 24.3235 236.617 23.06 237.827 22.0997C240.157 20.217 241.507 19.2946 241.864 19.2946C242.322 19.2946 242.577 19.4715 242.641 19.8126ZM234.885 28.3543C234.745 27.9121 234.503 27.6846 234.172 27.6846C233.331 27.6846 232.402 28.1648 231.408 29.1251C230.415 30.0854 229.995 30.8182 230.135 31.3363C230.135 31.5006 230.3 31.589 230.632 31.589C231.268 31.589 232.122 31.2731 233.179 30.6414C234.465 29.9211 235.025 29.1504 234.885 28.3543ZM274.096 28.1774C274.185 27.8489 274.185 27.4572 274.096 27.0149C273.982 26.459 273.79 26.0925 273.536 25.9283C272.428 26.3958 271.511 26.9897 270.772 27.7225C269.091 29.4157 268.263 30.6666 268.263 31.4879C268.263 31.867 268.391 32.0565 268.646 32.0565C269.753 32.0439 271.575 30.7551 274.096 28.1774ZM300.483 15.2512C300.483 15.4407 299.961 15.9082 298.891 16.6537C297.376 17.6646 296.421 18.3343 296.026 18.6754C295.631 19.0166 294.829 19.7747 293.619 20.9372C292.766 21.7585 292.256 22.1629 292.103 22.1629C291.492 22.1629 291.186 21.9607 291.186 21.569C291.186 21.0509 292.524 19.7368 295.198 17.6393C297.72 15.6429 299.324 14.6573 300.012 14.6573C300.318 14.6573 300.483 14.8468 300.483 15.2512ZM376.562 33.7371H313.129C312.556 33.7371 312.11 33.1811 312.11 32.4988C312.11 31.8165 312.569 31.2605 313.129 31.2605H376.562C377.122 31.2605 377.581 31.8165 377.581 32.4988C377.594 33.1811 377.135 33.7371 376.562 33.7371ZM376.18 19.7368C376.842 19.7368 377.466 19.9011 378.065 20.2296C378.676 20.5581 379.147 21.0257 379.491 21.6322C379.835 22.2387 380.013 22.8705 380.013 23.5401C380.013 24.1972 379.848 24.829 379.504 25.4355C379.16 26.042 378.702 26.4969 378.09 26.838C377.479 27.1666 376.855 27.3308 376.18 27.3308C375.518 27.3308 374.881 27.1666 374.27 26.838C373.671 26.4969 373.2 26.0294 372.856 25.4355C372.512 24.8416 372.347 24.2098 372.347 23.5401C372.347 22.8705 372.525 22.2387 372.869 21.6322C373.213 21.0257 373.684 20.5581 374.295 20.2296C374.894 19.9011 375.518 19.7368 376.18 19.7368ZM376.18 20.4823C375.658 20.4823 375.148 20.6213 374.665 20.874C374.181 21.1267 373.799 21.5058 373.518 21.9986C373.251 22.4914 373.098 22.9968 373.098 23.5275C373.098 24.0582 373.238 24.5763 373.506 25.0438C373.773 25.5239 374.155 25.903 374.639 26.1683C375.123 26.4463 375.632 26.5727 376.167 26.5727C376.702 26.5727 377.212 26.4463 377.695 26.1683C378.179 25.903 378.561 25.5239 378.829 25.0438C379.096 24.5636 379.236 24.0582 379.236 23.5275C379.236 22.9968 379.096 22.4787 378.816 21.9986C378.536 21.5058 378.167 21.1394 377.67 20.874C377.212 20.6213 376.702 20.4823 376.18 20.4823ZM374.448 25.5745V21.5563H375.263C376.04 21.5563 376.46 21.5563 376.562 21.569C376.842 21.5943 377.046 21.6448 377.199 21.7206C377.352 21.8091 377.479 21.9354 377.581 22.0997C377.683 22.2766 377.734 22.4661 377.734 22.6809C377.734 22.9715 377.645 23.2243 377.453 23.4264C377.262 23.6412 376.995 23.7549 376.651 23.8181C376.779 23.856 376.868 23.9066 376.944 23.9697C377.008 24.0203 377.097 24.1214 377.212 24.2856C377.237 24.3235 377.339 24.4878 377.504 24.7784L377.988 25.5871H376.957L376.626 24.9301C376.396 24.4878 376.205 24.2098 376.053 24.0961C375.9 23.9824 375.722 23.9318 375.48 23.9318H375.276V25.5871H374.448V25.5745ZM375.276 23.2748H375.607C376.078 23.2748 376.371 23.2622 376.486 23.2242C376.6 23.1863 376.689 23.1232 376.753 23.0347C376.817 22.9463 376.855 22.8452 376.855 22.7315C376.855 22.6177 376.817 22.5293 376.753 22.4282C376.689 22.3398 376.6 22.2766 376.486 22.2387C376.358 22.2008 376.078 22.1881 375.607 22.1881H375.276V23.2748Z" fill="#343434"/>
<path fill-rule="evenodd" clip-rule="evenodd" d="M38.18 40.2571C43.9999 39.0188 49.7944 39.0061 55.6397 40.2697L57.7665 39.461C58.3523 39.3094 58.9126 39.0819 59.473 39.0188C61.0012 38.8545 62.0837 39.5747 62.5421 41.0278C62.6567 41.4069 62.8096 41.5459 63.1916 41.5964C65.4966 41.9755 66.7319 43.656 66.49 45.9936C66.4772 46.1705 66.5536 46.3727 66.6683 46.5243C67.6743 47.9395 67.8781 49.4179 67.1267 51.0605C67.6107 51.2121 68.0946 51.3511 68.5531 51.5407C70.5397 52.3493 71.584 54.1941 71.151 56.1147C71.1128 56.2916 71.0873 56.4938 70.9854 56.6075C70.2086 57.4415 70.3487 58.4144 70.3614 59.4379C70.3614 60.2719 69.903 61.0932 69.6737 61.9271C69.5846 62.2556 69.419 62.6474 69.5209 62.938C70.7053 66.4633 69.5846 69.5085 67.5852 72.3768C67.5342 72.4526 67.4324 72.4905 67.1522 72.7053C67.2795 72.2504 67.3432 72.0103 67.4196 71.7703C68.4257 68.7377 68.7823 65.7052 67.6361 62.6094C67.5597 62.4073 67.7762 62.0282 67.9545 61.826C68.9224 60.7899 69.2025 59.9054 68.795 58.8061C67.4451 59.2105 66.3626 58.8188 65.6622 57.5805C65.1783 56.7339 65.3438 55.7104 65.9806 55.0786C66.4645 54.5985 66.872 54.5353 67.5215 54.8133C67.3687 55.1039 67.1267 55.3945 67.0503 55.7104C66.923 56.279 66.9994 56.9234 67.5979 57.1382C68.0309 57.2899 68.6422 57.214 69.0624 57.0245C69.6737 56.7592 70.0176 56.1779 69.8775 55.4703C69.661 54.2952 68.9988 53.436 67.8271 53.0696C66.6428 52.6905 65.4966 52.88 64.6943 53.8277C64.1595 54.4468 63.8538 55.2808 63.5609 56.0642C63.4718 56.2916 63.701 56.7339 63.9175 56.9613C68.1965 61.9019 68.7313 69.5211 65.382 75.005C64.1977 76.9382 62.4912 78.3155 60.5427 79.3769C58.607 80.4257 56.6331 81.386 54.6719 82.3842C52.0739 83.6983 50.0363 85.6189 48.5336 88.0828C48.4699 88.1839 48.3935 88.285 48.3044 88.4114C48.1516 87.489 48.6228 85.8463 49.3741 84.6712C50.3802 83.0918 51.8065 81.9546 53.4239 81.108C55.3596 80.0971 57.3208 79.1747 59.2947 78.265C64.2613 75.9653 66.4518 70.9489 65.9551 65.8694C65.7513 63.7846 65.1528 61.8134 64.0194 60.0444C63.4718 59.1978 62.7586 58.4271 61.9945 57.7321C60.912 56.7465 57.9957 56.6202 56.8368 57.7953C55.818 58.8314 55.6652 60.6004 56.6203 61.7123C57.6009 62.8495 59.1419 63.0264 60.2753 62.1167C61.0012 61.5354 61.2304 60.7267 60.8229 60.1455C60.3135 59.4126 59.3584 59.2357 58.5561 59.7159C58.2759 59.8802 58.0085 60.057 57.7156 60.2339C57.4863 59.5011 58.0849 58.4523 58.8108 58.2249C60.288 57.7447 61.4596 58.5787 62.0455 59.4253C62.6822 60.3477 62.4402 62.0156 61.5997 62.8622C61.3196 63.1401 60.963 63.3549 60.6191 63.6203C60.6701 63.6708 60.721 63.7467 60.7974 63.7719C64.6052 65.3135 65.3438 68.7756 63.7392 72.2125C62.9496 73.9057 61.6634 75.1313 60.0715 76.0285C58.5306 76.9003 56.9387 77.6964 55.3341 78.4419C52.5451 79.7433 49.9727 81.2849 48.5463 84.2037C48.4317 82.7506 48.9284 81.525 49.7944 80.4383C51.0679 78.8209 52.7871 77.8354 54.6337 77.0014C55.9963 76.3823 57.3972 75.8389 58.6961 75.1313C60.7847 73.9815 62.3129 72.301 62.8732 69.9255C63.4718 67.3731 62.0582 65.1997 59.5239 64.7701C57.4099 64.4037 55.5379 66.3117 55.9072 68.3966C56.2128 70.0645 58.607 70.3803 59.4602 69.6222C59.9187 69.2052 60.0206 68.6998 59.8168 68.1059C59.6003 67.4489 59.1037 67.2467 58.4797 67.1835C58.1995 67.1583 57.932 67.0319 57.6646 66.9561C57.8938 66.7287 58.0976 66.3749 58.3778 66.2864C59.3456 65.9452 60.2498 66.198 60.9884 66.8676C61.829 67.6258 61.9563 68.6745 61.6125 69.6601C61.396 70.3045 60.8484 70.8858 60.3517 71.3912C59.8805 71.884 59.2565 72.2504 58.7471 72.7179C57.2953 74.0699 55.5633 74.9165 53.8059 75.7884C52.7234 76.3317 51.6537 76.9382 50.6858 77.6332C49.4633 78.5177 48.7119 79.7686 48.419 81.3354C47.9223 79.2253 48.5591 77.431 50.3038 76.2306C51.2334 75.5989 52.265 75.0808 53.271 74.5501C54.6592 73.8046 55.9836 72.9959 56.7859 72.023C56.2128 71.3912 55.6907 70.81 55.194 70.2666C54.4554 73.1223 51.9593 73.6277 49.3741 74.032C47.9223 74.2595 47.4511 74.7775 47.2346 76.2306C47.1964 76.496 47.0818 76.7487 47.0054 77.0014C46.9163 77.0014 46.8399 77.0014 46.7507 77.0014C46.6616 76.7361 46.5469 76.4833 46.5087 76.2054C46.305 74.8154 45.7828 74.2847 44.4202 74.0447C43.5288 73.8804 42.6118 73.7541 41.7586 73.4634C40.1285 72.9075 38.855 71.9345 38.5748 70.254C38.0782 70.8226 37.556 71.4291 36.932 72.162C37.7471 72.7306 38.8168 73.5519 39.9629 74.2721C41.0327 74.9418 42.217 75.4346 43.2613 76.1169C45.1206 77.3299 45.8211 79.0989 45.3499 81.4491C44.8405 78.8715 43.1849 77.4563 41.1218 76.3696C39.6191 75.5862 38.0909 74.8534 36.6391 73.9689C35.8368 73.4761 35.1873 72.7306 34.4487 72.1114C34.2195 71.9219 33.9775 71.7324 33.7228 71.606C32.3983 70.9363 31.7107 69.4706 32.0672 68.0428C32.4111 66.6402 34.0666 65.7431 35.4038 66.299C35.6712 66.4001 35.8623 66.7539 36.0788 66.994C35.8241 67.0698 35.5694 67.1835 35.3019 67.1835C34.5378 67.1962 33.9902 67.6005 33.8374 68.346C33.7101 69.0157 34.0794 69.6222 34.7671 69.8749C36.499 70.4941 38.0909 69.2431 37.8489 67.4362C37.607 65.6294 35.9005 64.4163 34.1048 64.7701C31.3796 65.3008 30.0551 67.8027 31.0484 70.5699C31.8635 72.8696 33.5318 74.3985 35.6585 75.4472C37.2249 76.218 38.855 76.8498 40.4214 77.6332C41.9751 78.4166 43.3505 79.4401 44.3056 80.9311C44.9296 81.904 45.2989 82.9528 45.2352 84.1405C45.1716 84.1279 45.1079 84.1279 45.0952 84.1026C43.8217 81.5629 41.6694 79.996 39.1606 78.8083C37.3777 77.9617 35.5948 77.1025 33.8756 76.1548C31.7871 75.005 30.2589 73.3623 29.533 71.0248C28.5524 67.8532 29.6731 65.2503 32.704 63.8604C32.8313 63.7972 32.9714 63.734 33.2007 63.6329C32.0927 63.0517 31.4178 62.243 31.3286 61.03C31.2267 59.2736 32.7167 57.8585 34.4487 58.0606C35.4802 58.187 36.2189 59.1473 36.066 60.0823C35.5057 59.8802 34.9326 59.6274 34.3468 59.4632C33.6973 59.2863 33.0988 59.5643 32.895 60.1329C32.7422 60.5877 32.8059 61.2448 33.0478 61.6618C33.6209 62.6347 34.8053 62.938 35.8495 62.5589C36.9957 62.1546 37.6452 61.0679 37.7471 59.9939C37.8999 58.2123 36.0788 56.9108 34.3723 56.9613C32.1819 57.0371 30.8701 58.1617 29.8004 59.8928C28.2849 62.3567 27.5845 65.0228 27.7373 67.8785C27.992 72.5916 30.1315 76.1675 34.4869 78.2902C36.6646 79.3516 38.8932 80.3498 40.9945 81.5376C43.3377 82.8517 44.9678 84.7976 45.4517 87.5269C45.5027 87.8048 45.5154 88.0702 45.5791 88.5125C45.3881 88.285 45.2862 88.1966 45.2225 88.0828C43.5797 85.4041 41.3129 83.4329 38.4729 82.0683C36.7665 81.247 35.0727 80.4004 33.3917 79.5033C28.2595 76.774 26.1709 72.3262 26.1837 66.7413C26.1964 63.5445 27.2025 60.6257 28.9726 57.9469C29.2273 57.5678 29.4948 57.2014 29.8386 56.9108C30.4372 56.4054 30.2334 55.8747 30.0169 55.3061C29.2655 53.3855 27.5336 52.4757 25.7889 53.1201C24.7828 53.4865 24.1843 54.2194 23.9041 55.2302C23.7003 55.9884 23.9423 56.5696 24.5536 57.0119C25.1903 57.492 25.8908 57.492 26.3492 57.0245C26.8332 56.5444 26.8332 55.6725 26.362 55.1039C26.2983 55.0281 26.2219 54.9523 26.1582 54.8765C26.8841 54.51 27.5081 54.6743 27.9666 55.3819C28.476 56.1779 28.476 57.0119 27.9538 57.7953C27.3935 58.6292 26.6039 59.0715 25.5596 58.9704C25.3432 58.9451 25.1267 58.8819 24.872 58.8314C24.4644 60.0444 24.9229 60.9921 25.7252 61.7881C26.1327 62.1925 26.1709 62.5084 25.9926 63.0264C24.9611 65.9326 25.3432 68.8135 26.2473 71.6818C26.3365 71.9598 26.4256 72.2378 26.5657 72.68C26.3238 72.541 26.1964 72.5031 26.1327 72.4273C24.6809 70.2666 23.4838 68.0049 23.764 65.2756C23.8404 64.5048 24.0951 63.7593 24.197 62.9885C24.2479 62.6853 24.2225 62.2936 24.0569 62.0535C23.3056 60.9036 23.1273 59.6906 23.4074 58.3765C23.4584 58.1238 23.4202 57.7574 23.2673 57.5678C21.9302 55.8368 22.2485 53.4865 24.1079 52.1977C24.821 51.7049 25.6743 51.4269 26.5275 51.0226C25.8143 49.4684 26.0308 47.9269 27.1133 46.4738C27.2025 46.36 27.2152 46.1452 27.2025 45.9936C26.8841 43.8708 28.2595 42.026 30.4244 41.647C30.6791 41.5964 31.0357 41.3816 31.1121 41.1542C31.8762 39.1198 33.8119 38.4249 35.7095 39.5495C35.8113 39.6126 35.9132 39.6632 36.117 39.7769L38.18 40.2571ZM37.2886 63.6961C37.7725 64.2268 38.3583 64.6943 38.7404 65.2882C39.6828 66.7539 40.2431 66.8803 41.7586 66.0084C42.7774 65.4146 43.8599 64.8965 44.9678 64.5048C45.5664 64.29 45.7446 63.9741 45.681 63.4687C45.4517 61.5986 44.7258 59.956 43.134 58.8567C42.5227 58.4397 41.7204 58.3133 41.02 58.048C42.0642 56.5317 43.4396 56.0263 45.1334 56.6202C46.3559 57.0498 47.5021 57.1003 48.7374 56.5823C50.2146 55.9631 51.9721 56.7213 52.7107 58.0985C52.0485 58.3007 51.2844 58.3765 50.7368 58.743C49.0685 59.8675 48.2534 61.5481 48.0624 63.5192C48.0369 63.7846 48.2534 64.2394 48.4827 64.3532C49.8071 65.0355 51.157 65.6294 52.4942 66.2864C53.3984 66.7413 54.0861 66.5897 54.6846 65.7936C55.2322 65.0608 55.818 64.3532 56.3784 63.6456C54.328 62.1925 53.9842 59.7159 54.7738 57.9469C55.1049 57.2014 55.0539 56.5191 54.7738 55.8368C54.4681 55.066 53.9969 54.371 53.6913 53.6003C53.3602 52.7663 52.9527 51.9071 52.9272 51.0479C52.9017 49.8854 52.7998 48.9124 51.4754 48.4323C54.1115 47.4846 57.8684 47.6362 58.6834 49.0388C57.792 49.1652 57.0406 49.4937 56.5057 50.2518C56.3911 50.4161 56.0091 50.4666 55.7544 50.4666C55.1558 50.4666 54.5445 50.3908 53.895 50.3529C53.6403 51.4396 53.9205 52.3367 54.5827 53.1833C55.1303 53.8909 55.6397 54.6364 56.1237 55.3945C56.4166 55.8494 56.6585 55.6725 56.8878 55.3945C57.5755 54.5606 58.2377 53.7013 58.9254 52.8548C59.9442 51.5912 59.9187 50.3024 59.1419 48.9251C58.7598 48.2554 58.3268 47.5225 58.2632 46.7897C58.1485 45.3239 57.8047 43.9593 57.0406 42.7084C56.8878 42.443 56.6203 42.1398 56.3529 42.0639C50.2656 40.3581 44.1655 40.257 38.04 41.9123C37.2886 42.1145 36.6264 42.2787 36.4608 43.2138C36.3844 43.6308 36.0278 43.9972 35.8241 44.4015C35.7349 44.5658 35.6076 44.768 35.6203 44.9449C35.7986 46.4485 35.3274 47.7626 34.576 49.0262C34.1176 49.7969 33.6591 50.7193 34.143 51.528C34.9708 52.9306 36.0024 54.1941 36.983 55.4956C37.0466 55.584 37.4669 55.5335 37.556 55.4198C38.1546 54.6237 38.7022 53.7898 39.288 52.9811C39.8738 52.1851 40.0648 51.3258 39.8101 50.3403C39.2753 50.3908 38.7913 50.4666 38.3201 50.4666C37.9636 50.4666 37.4287 50.4919 37.2631 50.2897C36.6773 49.5442 35.9259 49.1778 35.0218 49.0262C35.9514 47.5983 39.7719 47.4973 42.1152 48.3944C40.7907 49.3041 40.8799 49.3168 40.7907 50.9847C40.7398 51.8313 40.3959 52.6779 40.0776 53.4739C39.6955 54.4468 39.1606 55.3692 38.7659 56.3548C38.6385 56.6833 38.6385 57.1635 38.7786 57.5047C39.8101 60.1455 39.3644 62.0282 37.2886 63.6961ZM46.4705 65.9579C46.0375 66.059 45.2352 66.1727 44.4839 66.4507C42.8283 67.0445 41.5676 68.2323 40.3195 69.42C39.8229 69.8876 39.9757 70.4183 40.3832 70.8984C41.4529 72.162 43.5797 72.8443 45.1334 72.2378C46.3305 71.7576 47.4002 71.7324 48.5973 72.2251C50.4311 72.9833 51.9593 72.1493 53.2965 70.9616C53.9587 70.3803 53.9078 69.8117 53.2456 69.2179C52.5961 68.624 51.9211 68.0428 51.208 67.5247C49.9217 66.5518 48.4827 65.9832 46.4705 65.9579ZM34.0666 55.0154C34.0666 54.9017 34.0666 54.8638 34.0539 54.8512C33.8756 54.5858 33.6846 54.3079 33.4936 54.0425C32.1691 52.1472 31.8507 50.2013 33.0606 48.1038C33.3407 47.611 33.5445 47.0424 33.6719 46.4864C34.1303 44.4521 32.3347 42.7589 30.3735 43.3528C29.4566 43.6308 28.9217 44.3889 28.9599 45.3366C28.9854 45.8673 29.2528 46.1705 29.7367 46.3221C30.781 46.6507 31.6088 45.9936 31.7998 44.6795C32.8186 45.1091 33.0733 46.2716 32.3219 47.1561C31.596 48.0027 30.6409 48.2301 29.5712 47.9774C29.1127 47.8637 28.6925 47.6489 28.2213 47.472C27.5081 48.3691 27.6482 49.3294 28.043 50.2518C28.2213 50.6814 28.5269 51.2121 28.9217 51.3764C30.2079 51.9324 31.0866 52.8295 31.7107 54.0299C31.9144 54.4342 32.0036 55.0154 32.3347 55.1923C32.6403 55.3692 33.1752 55.1165 33.6209 55.066C33.7483 55.0407 33.8883 55.0281 34.0666 55.0154ZM61.4596 55.3692C61.5615 55.1292 61.6507 54.8891 61.7398 54.6743C62.2747 53.4107 62.9751 52.2103 64.2868 51.6923C65.8023 51.0858 65.9933 49.9107 65.9806 48.5966C65.9806 48.2175 65.7259 47.8258 65.5858 47.4088C65.1655 47.611 64.8981 47.75 64.6307 47.8511C63.4336 48.3186 62.1346 48.0406 61.4214 47.1687C60.6828 46.259 60.9884 44.9701 62.0072 44.7174C62.02 44.9196 62.0073 45.1218 62.0455 45.3113C62.1983 45.9431 62.9114 46.4485 63.6119 46.4106C64.1467 46.3727 64.6179 46.1832 64.758 45.6019C64.949 44.8185 64.4906 43.8708 63.7519 43.5044C62.1219 42.6705 59.9569 43.9087 60.0461 45.7156C60.097 46.5875 60.4026 47.4973 60.7974 48.2807C61.7271 50.1255 61.6125 51.8565 60.5427 53.575C60.2626 54.0425 59.9314 54.4848 59.6258 54.9523C60.2626 55.1039 60.8484 55.2302 61.4596 55.3692ZM58.7344 43.0116C59.5494 42.4936 60.3008 42.0134 61.1158 41.4953C61.0776 40.9267 60.6573 40.4845 60.0588 40.4592C59.5621 40.4466 58.8999 40.6108 58.5943 40.952C58.0339 41.6091 58.365 42.3672 58.7344 43.0116ZM32.5894 41.4953C33.4299 42.026 34.194 42.5188 35.009 43.0242C35.3401 42.4051 35.684 41.6975 35.1873 41.0405C34.9199 40.6993 34.3086 40.4592 33.8501 40.4339C33.1879 40.3834 32.7677 40.8636 32.5894 41.4953Z" fill="#343434"/>
<path fill-rule="evenodd" clip-rule="evenodd" d="M41.1855 43.4918C42.8029 43.1759 44.2292 43.3149 45.5154 44.3005C46.3559 44.9449 47.362 44.9575 48.2152 44.3131C49.5142 43.3275 50.9151 43.1633 52.5451 43.4918C52.3541 43.5802 52.2013 43.6434 52.0612 43.7192C51.0552 44.3384 49.9854 44.8691 49.0812 45.6019C47.5403 46.8529 46.1904 46.9034 44.6876 45.5893C44.1782 45.147 43.6561 44.6795 43.083 44.3257C42.5227 43.9972 41.8859 43.795 41.1855 43.4918Z" fill="#343434"/>
<path fill-rule="evenodd" clip-rule="evenodd" d="M49.2468 50.6056C50.9023 51.3259 52.1249 52.4378 52.6343 54.1562C52.7489 54.5606 52.6215 55.1797 52.3668 55.5209C52.2013 55.7483 51.59 55.6978 51.1825 55.6472C51.0297 55.6346 50.7622 55.3187 50.775 55.1544C50.9023 53.5244 50.1255 52.1977 49.3614 50.871C49.3104 50.7952 49.2722 50.6941 49.2468 50.6056Z" fill="#343434"/>
<path fill-rule="evenodd" clip-rule="evenodd" d="M44.4839 50.6309C44.1146 51.3638 43.6688 52.0713 43.3887 52.8421C43.1594 53.4613 43.0193 54.1562 43.0193 54.8133C43.0066 55.4703 42.7264 55.7357 42.1534 55.7989C41.5676 55.8747 41.0709 55.4324 41.02 54.8512C41.0072 54.6743 40.9945 54.4848 41.0454 54.3331C41.5548 52.5262 42.8029 51.3764 44.4839 50.6309Z" fill="#343434"/>
<path fill-rule="evenodd" clip-rule="evenodd" d="M48.661 20.1285C49.4505 20.0653 49.476 20.7477 49.476 20.7477C49.2086 20.7477 48.8902 20.7856 48.7246 21.0256C48.5463 21.291 48.661 21.7206 48.9157 21.8975C49.1449 22.0618 49.4378 22.0491 49.6925 21.9228C49.8326 21.8596 49.9727 21.7585 50.0873 21.6574C50.3165 21.4174 50.4566 21.1015 50.4693 20.7603C50.4948 19.7115 49.5015 19.1809 48.5591 19.3198C47.5021 19.4841 46.9672 20.6845 47.2346 21.6448C47.2728 21.7838 47.3365 21.9354 47.4129 22.0618C47.4257 22.087 47.5148 22.1755 47.5148 22.1881C47.362 20.1664 48.661 20.1285 48.661 20.1285Z" fill="#343434"/>
<path fill-rule="evenodd" clip-rule="evenodd" d="M45.1334 20.1285C44.3438 20.0653 44.3183 20.7477 44.3183 20.7477C44.5858 20.7477 44.9041 20.7856 45.0697 21.0256C45.248 21.291 45.1461 21.7206 44.8914 21.8975C44.6494 22.0618 44.3565 22.0491 44.1146 21.9228C43.9872 21.8596 43.8344 21.7585 43.7198 21.6574C43.4906 21.4174 43.3505 21.1015 43.3377 20.7603C43.3123 19.7115 44.3056 19.1809 45.248 19.3198C46.305 19.4841 46.8399 20.6845 46.5724 21.6448C46.5342 21.7838 46.4705 21.9354 46.3941 22.0618C46.3814 22.087 46.2923 22.1755 46.2923 22.1881C46.4323 20.1664 45.1334 20.1285 45.1334 20.1285Z" fill="#343434"/>
<path fill-rule="evenodd" clip-rule="evenodd" d="M48.7374 18.7007C47.8969 18.7007 46.9035 19.6863 46.9035 20.5202C46.9035 19.6863 45.9102 18.7007 45.0697 18.7007C45.9102 18.7007 46.9035 17.7151 46.9035 16.8812C46.9035 17.7278 47.8841 18.7007 48.7374 18.7007Z" fill="#343434"/>
<path fill-rule="evenodd" clip-rule="evenodd" d="M47.5148 22.7441L46.9035 24.1845L46.2795 22.7441L46.9035 22.1249L47.5148 22.7441Z" fill="#343434"/>
<path d="M46.9539 18.7133H46.8526V22.9842H46.9539V18.7133Z" fill="#343434"/>
<path fill-rule="evenodd" clip-rule="evenodd" d="M37.2504 40.4466C37.3523 40.8762 37.4542 41.3184 37.5433 41.7607C43.707 40.396 50.0873 40.396 56.2383 41.7607C56.3402 41.3184 56.4421 40.8888 56.5312 40.4466C50.1892 39.0314 43.6052 39.0314 37.2504 40.4466Z" fill="#343434"/>
<path fill-rule="evenodd" clip-rule="evenodd" d="M45.9357 36.1505C44.4966 36.1758 43.0576 36.2768 41.6312 36.4411C42.2425 36.6812 42.701 37.2119 42.7519 37.8563C42.8029 38.3617 42.6246 38.8292 42.3189 39.1957C43.4141 39.0819 44.5221 39.0061 45.6173 38.9682C45.2735 38.6523 45.0315 38.2101 45.006 37.7047C44.9933 37.0476 45.3626 36.479 45.9357 36.1505Z" fill="#343434"/>
<path fill-rule="evenodd" clip-rule="evenodd" d="M52.1631 36.4411C50.7368 36.2768 49.2977 36.1758 47.8587 36.1505C48.4317 36.479 48.8138 37.0476 48.7756 37.7047C48.7501 38.2101 48.5081 38.6523 48.1643 38.9682C49.2595 39.0061 50.3675 39.0819 51.4627 39.1957C51.157 38.8419 50.9787 38.3617 51.0297 37.8689C51.0933 37.2119 51.5518 36.6938 52.1631 36.4411Z" fill="#343434"/>
<path fill-rule="evenodd" clip-rule="evenodd" d="M54.7738 38.387C54.6846 38.8924 54.3917 39.2841 53.9969 39.5621C54.7483 39.6885 55.5124 39.8401 56.2638 40.0043C56.4675 39.0819 56.6713 38.1722 56.875 37.2498C55.9454 37.0476 55.0157 36.8707 54.0733 36.7191C54.5955 37.0982 54.8884 37.7299 54.7738 38.387Z" fill="#343434"/>
<path fill-rule="evenodd" clip-rule="evenodd" d="M39.7337 36.7065C38.8041 36.8581 37.8617 37.035 36.932 37.2371C37.1358 38.1595 37.3395 39.0693 37.5433 39.9917C38.2947 39.8274 39.046 39.6758 39.8101 39.5621C39.4281 39.2968 39.1224 38.8924 39.0333 38.387C38.9059 37.7299 39.1989 37.0982 39.7337 36.7065Z" fill="#343434"/>
<path fill-rule="evenodd" clip-rule="evenodd" d="M55.1049 34.3562L55.5379 34.7985C55.869 34.4826 56.1746 34.1667 56.4293 33.8634L55.9454 33.4591C55.7034 33.7497 55.4233 34.053 55.1049 34.3562Z" fill="#343434"/>
<path fill-rule="evenodd" clip-rule="evenodd" d="M57.3462 30.2623V30.2749L57.983 30.2623C57.983 29.8074 57.9193 29.3652 57.7665 28.9355L57.168 29.1377C57.2826 29.5041 57.3462 29.8832 57.3462 30.2623Z" fill="#343434"/>
<path fill-rule="evenodd" clip-rule="evenodd" d="M57.117 31.5006C57.0406 31.8038 56.8878 32.145 56.6713 32.4988L57.2189 32.8273C57.4736 32.423 57.6391 32.0313 57.7283 31.7028L57.7538 31.6269L57.1552 31.4248L57.117 31.5006Z" fill="#343434"/>
<path fill-rule="evenodd" clip-rule="evenodd" d="M37.8362 33.4717L37.3523 33.8761C37.6197 34.1793 37.9126 34.4952 38.2437 34.8111L38.6767 34.3562C38.3838 34.053 38.0909 33.7497 37.8362 33.4717Z" fill="#343434"/>
<path fill-rule="evenodd" clip-rule="evenodd" d="M36.6391 29.1377L36.0406 28.9355C35.9005 29.3652 35.8241 29.8074 35.8241 30.2623V30.2749L36.4608 30.2623C36.4481 29.8832 36.5245 29.5041 36.6391 29.1377Z" fill="#343434"/>
<path fill-rule="evenodd" clip-rule="evenodd" d="M36.6519 31.3995L36.066 31.6522C36.1552 32.0186 36.3335 32.4103 36.5754 32.8147L37.123 32.4861C36.9066 32.1323 36.7665 31.8038 36.6773 31.4879L36.6519 31.3995Z" fill="#343434"/>
<path fill-rule="evenodd" clip-rule="evenodd" d="M41.0964 33.497C41.3256 33.8255 41.5803 34.1414 41.8605 34.4699L42.3444 34.0656C42.0897 33.7497 41.835 33.4464 41.6185 33.1306L41.0964 33.497Z" fill="#343434"/>
<path fill-rule="evenodd" clip-rule="evenodd" d="M43.8344 24.6647L44 24.0582C43.5542 23.9445 43.0958 23.9192 42.6628 23.995L42.7647 24.6142C43.1085 24.551 43.4778 24.5763 43.8344 24.6647Z" fill="#343434"/>
<path fill-rule="evenodd" clip-rule="evenodd" d="M40.4087 32.4735L40.9563 32.145C40.7398 31.7912 40.5615 31.45 40.4214 31.1089L39.8356 31.3616C39.9884 31.7154 40.1794 32.0945 40.4087 32.4735Z" fill="#343434"/>
<path fill-rule="evenodd" clip-rule="evenodd" d="M40.0903 30.0222C39.9884 29.6179 39.9375 29.2514 39.9375 28.8976L39.3007 28.9103C39.3135 29.3146 39.3771 29.719 39.479 30.1612L40.0903 30.0222Z" fill="#343434"/>
<path fill-rule="evenodd" clip-rule="evenodd" d="M45.5791 25.9283L46.0885 25.5618C45.821 25.1954 45.5281 24.8795 45.1843 24.6268L44.8022 25.1322C45.0952 25.3597 45.3499 25.625 45.5791 25.9283Z" fill="#343434"/>
<path fill-rule="evenodd" clip-rule="evenodd" d="M41.7713 24.9932L41.3765 24.5005C41.0327 24.7279 40.727 25.0059 40.4596 25.3344L40.9563 25.7261C41.16 25.4481 41.4275 25.2207 41.7713 24.9932Z" fill="#343434"/>
<path fill-rule="evenodd" clip-rule="evenodd" d="M40.3577 26.6864L39.7719 26.4337C39.6064 26.8128 39.479 27.2297 39.3899 27.6467L40.0139 27.7604C40.0903 27.394 40.2049 27.0276 40.3577 26.6864Z" fill="#343434"/>
<path fill-rule="evenodd" clip-rule="evenodd" d="M48.9793 25.1575L48.5973 24.6521C48.2534 24.9048 47.9605 25.2207 47.6931 25.5871L48.2152 25.9535C48.4445 25.6376 48.6992 25.3723 48.9793 25.1575Z" fill="#343434"/>
<path fill-rule="evenodd" clip-rule="evenodd" d="M53.7168 29.9969L54.3408 30.1486C54.4427 29.7442 54.4936 29.3146 54.5191 28.8976L53.8823 28.8724C53.8696 29.2514 53.8059 29.6305 53.7168 29.9969Z" fill="#343434"/>
<path fill-rule="evenodd" clip-rule="evenodd" d="M53.3984 32.4482C53.6276 32.0692 53.8186 31.6901 53.9715 31.3363L53.3857 31.0836C53.2456 31.4121 53.0673 31.7659 52.8508 32.1197L53.3984 32.4482Z" fill="#343434"/>
<path fill-rule="evenodd" clip-rule="evenodd" d="M54.4044 27.6214C54.328 27.2045 54.2007 26.7875 54.0224 26.4084L53.4366 26.6738C53.5894 27.0149 53.704 27.3687 53.7804 27.7478L54.4044 27.6214Z" fill="#343434"/>
<path fill-rule="evenodd" clip-rule="evenodd" d="M52.8508 25.7135L53.3347 25.3091C53.0673 24.9932 52.7616 24.7152 52.4305 24.5004L52.3669 24.4499L52.023 24.9806L52.0867 25.0311C52.3669 25.208 52.6216 25.4481 52.8508 25.7135Z" fill="#343434"/>
<path fill-rule="evenodd" clip-rule="evenodd" d="M51.0169 24.6015L51.1188 23.9824C50.6731 23.9192 50.2146 23.9445 49.7816 24.0582L49.9472 24.6647C50.3038 24.5763 50.6731 24.551 51.0169 24.6015Z" fill="#343434"/>
<path fill-rule="evenodd" clip-rule="evenodd" d="M52.7107 33.4717L52.1886 33.1053C51.9593 33.4212 51.7174 33.7371 51.4627 34.0403L51.9466 34.4447C52.2268 34.1161 52.4687 33.8002 52.7107 33.4717Z" fill="#343434"/>
<path fill-rule="evenodd" clip-rule="evenodd" d="M46.2668 23.4896C44.5858 22.1881 42.2935 22.0112 40.4851 23.1863C40.2941 23.3127 40.1158 23.4517 39.9375 23.6033C38.906 23.6286 37.8999 23.8939 37.0084 24.3867C34.9836 25.5113 33.7355 27.6467 33.7355 29.959C33.7355 30.6161 33.8374 31.2858 34.0284 31.8544C34.2959 33.0674 35.1109 34.3309 36.1425 35.5566C36.1425 35.5566 36.1425 35.5566 36.1297 35.5566C36.2316 35.9862 36.3335 36.4285 36.4226 36.8581C43.3123 35.3292 50.4439 35.3292 57.3208 36.8581C57.4227 36.4285 57.5118 35.9862 57.6137 35.5566C57.5755 35.544 57.55 35.544 57.5118 35.5313C58.5815 34.3309 59.4221 33.0927 59.7022 31.9049C59.9187 31.2731 60.0333 30.6034 60.0333 29.9464C60.0333 27.6341 58.7089 25.4987 56.5821 24.3741C55.7416 23.9318 54.7992 23.6791 53.8441 23.6159C53.6658 23.4643 53.4748 23.3127 53.2838 23.1863C51.4881 22.0112 49.1831 22.1881 47.5148 23.4896H46.2668ZM47.5403 25.3091C48.8138 23.6286 50.9533 23.1611 52.6088 24.2477C53.9715 25.1449 54.8247 26.8633 54.8247 28.746C54.8247 29.2893 54.7483 29.8327 54.5955 30.3886C54.3408 31.7659 53.3729 33.2696 52.1886 34.6847C50.9278 34.5457 49.667 34.4826 48.4063 34.4447C48.6482 34.1288 48.8011 33.7497 48.8011 33.3327C48.8011 32.5114 48.2662 31.8165 47.5276 31.5637V25.3091H47.5403ZM46.9035 32.6883C47.2601 32.6883 47.5403 32.9663 47.5403 33.3201C47.5403 33.6739 47.2601 33.9519 46.9035 33.9519C46.5597 33.9519 46.2668 33.6739 46.2668 33.3201C46.2668 32.9663 46.547 32.6883 46.9035 32.6883ZM41.1855 24.2351C41.8095 23.8308 42.4718 23.6286 43.1722 23.6286C44.3565 23.6286 45.4645 24.2351 46.2668 25.2965V31.5385C45.5282 31.8038 44.9933 32.4861 44.9933 33.3075C44.9933 33.7371 45.1461 34.1035 45.3753 34.4194C44.1146 34.4573 42.8665 34.5331 41.6058 34.6595C40.4214 33.2316 39.4408 31.7027 39.1734 30.3255C39.0333 29.7948 38.9569 29.2641 38.9569 28.7207C38.9696 26.8507 39.8229 25.1322 41.1855 24.2351ZM35.2637 31.5258C35.0982 31.0078 35.0218 30.4897 35.0218 29.9464C35.0218 28.089 36.0278 26.3831 37.6452 25.4734C37.989 25.2838 38.3583 25.1322 38.7404 25.0311C38.3456 25.6629 38.0527 26.3579 37.8871 27.116L37.6197 26.7622C37.2504 27.0402 36.932 27.3687 36.6646 27.7225L37.174 28.1016C37.3523 27.8489 37.5815 27.6214 37.8362 27.4193C37.7598 27.8489 37.7089 28.2785 37.7089 28.7207C37.7089 29.3651 37.798 30.0222 37.9508 30.6034C38.2183 31.9934 39.0715 33.4717 40.154 34.849C39.288 34.9627 38.4348 35.1144 37.5815 35.2786C36.4354 34.0277 35.5312 32.7262 35.2637 31.5258ZM58.5051 31.5764C58.2377 32.7515 57.2953 34.0277 56.0982 35.266C55.2832 35.1143 54.4681 34.988 53.6531 34.8743C54.7228 33.497 55.5761 32.0439 55.8308 30.6666C56.0091 30.0475 56.0982 29.3904 56.0982 28.7334C56.0982 28.2911 56.0473 27.8489 55.9709 27.4319C56.2128 27.6341 56.4421 27.8615 56.6331 28.1142L57.1425 27.7352C56.875 27.3814 56.5567 27.0528 56.1874 26.7748L55.9199 27.1286C55.7544 26.4084 55.4869 25.7387 55.1176 25.1196C55.4233 25.2207 55.7289 25.3344 56.0218 25.486C57.7283 26.3831 58.798 28.1016 58.798 29.9464C58.7853 30.4771 58.6962 31.0078 58.5051 31.5764Z" fill="#343434"/>
<path fill-rule="evenodd" clip-rule="evenodd" d="M38.7659 12.1934C37.1103 12.4966 36.0278 14.1392 36.0278 14.1392C36.0278 14.1392 37.6324 15.2891 39.288 14.9732C40.9435 14.6699 43.6179 13.0526 43.6179 13.0526C43.6179 13.0526 40.4214 11.8775 38.7659 12.1934Z" fill="#343434"/>
<path fill-rule="evenodd" clip-rule="evenodd" d="M32.5002 13.8107C31.8635 15.3649 30.0296 16.0851 30.0296 16.0851C30.0296 16.0851 29.2273 14.2909 29.8641 12.7367C30.5008 11.1825 32.6403 8.93338 32.6403 8.93338C32.6403 8.93338 33.137 12.2692 32.5002 13.8107Z" fill="#343434"/>
<path fill-rule="evenodd" clip-rule="evenodd" d="M33.6336 16.4895C32.0672 15.8577 30.2716 16.6411 30.2716 16.6411C30.2716 16.6411 30.9975 18.4733 32.5639 19.105C34.1176 19.7368 37.2504 19.8 37.2504 19.8C37.2504 19.8 35.1873 17.1212 33.6336 16.4895Z" fill="#343434"/>
<path fill-rule="evenodd" clip-rule="evenodd" d="M25.8016 16.9191C25.4323 18.5617 23.7513 19.5852 23.7513 19.5852C23.7513 19.5852 22.6433 17.9552 22.9999 16.3252C23.3565 14.6952 25.063 12.1049 25.063 12.1049C25.063 12.1049 26.1582 15.2765 25.8016 16.9191Z" fill="#343434"/>
<path fill-rule="evenodd" clip-rule="evenodd" d="M27.3808 19.3578C25.7379 19.004 24.0951 20.1033 24.0951 20.1033C24.0951 20.1033 25.1267 21.7712 26.7822 22.1376C28.425 22.4914 31.5196 22.0239 31.5196 22.0239C31.5196 22.0239 29.0236 19.7116 27.3808 19.3578Z" fill="#343434"/>
<path fill-rule="evenodd" clip-rule="evenodd" d="M19.7397 21.1267C19.6761 22.7946 18.1861 24.0961 18.1861 24.0961C18.1861 24.0961 16.8107 22.6809 16.8871 21.013C16.9508 19.3451 18.1861 16.5021 18.1861 16.5021C18.1861 16.5021 19.8034 19.4588 19.7397 21.1267Z" fill="#343434"/>
<path fill-rule="evenodd" clip-rule="evenodd" d="M21.7137 23.2495C20.0327 23.1863 18.6063 24.5384 18.6063 24.5384C18.6063 24.5384 19.918 26.0041 21.5991 26.0799C23.2801 26.1431 26.2346 25.1449 26.2346 25.1449C26.2346 25.1449 23.4074 23.3127 21.7137 23.2495Z" fill="#343434"/>
<path fill-rule="evenodd" clip-rule="evenodd" d="M14.5057 26.3073C14.7349 27.9626 13.4996 29.5041 13.4996 29.5041C13.4996 29.5041 11.9077 28.3543 11.6785 26.6864C11.4493 25.0311 12.1752 22.0112 12.1752 22.0112C12.1752 22.0112 14.2764 24.6521 14.5057 26.3073Z" fill="#343434"/>
<path fill-rule="evenodd" clip-rule="evenodd" d="M16.8234 28.0637C15.1552 28.2911 13.9835 29.8706 13.9835 29.8706C13.9835 29.8706 15.5372 31.0962 17.2055 30.8688C18.8738 30.6413 21.6245 29.163 21.6245 29.163C21.6245 29.163 18.5045 27.8489 16.8234 28.0637Z" fill="#343434"/>
<path fill-rule="evenodd" clip-rule="evenodd" d="M10.2649 32.3219C10.7743 33.914 9.83192 35.6324 9.83192 35.6324C9.83192 35.6324 8.06176 34.7732 7.53962 33.1811C7.03022 31.5764 7.20851 28.4933 7.20851 28.4933C7.20851 28.4933 9.75552 30.7298 10.2649 32.3219Z" fill="#343434"/>
<path fill-rule="evenodd" clip-rule="evenodd" d="M12.8628 33.6486C11.2582 34.154 10.3795 35.923 10.3795 35.923C10.3795 35.923 12.1115 36.8581 13.7161 36.3526C15.3334 35.8346 17.7658 33.9013 17.7658 33.9013C17.7658 33.9013 14.4675 33.1432 12.8628 33.6486Z" fill="#343434"/>
<path fill-rule="evenodd" clip-rule="evenodd" d="M7.13211 38.9682C7.92168 40.4592 7.28493 42.304 7.28493 42.304C7.28493 42.304 5.38741 41.7607 4.59784 40.2823C3.80827 38.804 3.45169 35.7335 3.45169 35.7335C3.45169 35.7335 6.35527 37.4899 7.13211 38.9682Z" fill="#343434"/>
<path fill-rule="evenodd" clip-rule="evenodd" d="M9.92106 39.8401C8.41833 40.6108 7.87073 42.5062 7.87073 42.5062C7.87073 42.5062 9.75551 43.138 11.2455 42.3546C12.7355 41.5712 14.7986 39.2462 14.7986 39.2462C14.7986 39.2462 11.4111 39.0567 9.92106 39.8401Z" fill="#343434"/>
<path fill-rule="evenodd" clip-rule="evenodd" d="M5.22183 46.0568C6.25337 47.3835 5.96046 49.3168 5.96046 49.3168C5.96046 49.3168 3.98654 49.1146 2.96773 47.7879C1.9362 46.4611 1.03201 43.4918 1.03201 43.4918C1.03201 43.4918 4.1903 44.7427 5.22183 46.0568Z" fill="#343434"/>
<path fill-rule="evenodd" clip-rule="evenodd" d="M8.11268 46.4359C6.77551 47.4594 6.57175 49.4179 6.57175 49.4179C6.57175 49.4179 8.5202 49.7085 9.87011 48.685C11.2073 47.6615 12.8246 45.0081 12.8246 45.0081C12.8246 45.0081 9.44986 45.3998 8.11268 46.4359Z" fill="#343434"/>
<path fill-rule="evenodd" clip-rule="evenodd" d="M4.57236 53.3728C5.82039 54.4974 5.87133 56.4559 5.87133 56.4559C5.87133 56.4559 3.8974 56.5949 2.64937 55.4577C1.40134 54.3458 0.000488281 51.5786 0.000488281 51.5786C0.000488281 51.5786 3.32433 52.2482 4.57236 53.3728Z" fill="#343434"/>
<path fill-rule="evenodd" clip-rule="evenodd" d="M7.48867 53.2338C6.34252 54.4721 6.48261 56.4306 6.48261 56.4306C6.48261 56.4306 8.45654 56.3801 9.58995 55.1418C10.7234 53.9035 11.8568 51.0099 11.8568 51.0099C11.8568 51.0099 8.62209 51.9955 7.48867 53.2338Z" fill="#343434"/>
<path fill-rule="evenodd" clip-rule="evenodd" d="M5.22183 60.6888C6.64815 61.586 7.04294 63.5066 7.04294 63.5066C7.04294 63.5066 5.11995 63.9741 3.69363 63.077C2.26731 62.1798 0.395264 59.7032 0.395264 59.7032C0.395264 59.7032 3.79551 59.7917 5.22183 60.6888Z" fill="#343434"/>
<path fill-rule="evenodd" clip-rule="evenodd" d="M8.06175 60.0444C7.15757 61.4596 7.6415 63.3676 7.6415 63.3676C7.6415 63.3676 9.57722 62.9759 10.4814 61.5607C11.3856 60.1455 11.9841 57.1129 11.9841 57.1129C11.9841 57.1129 8.96594 58.6292 8.06175 60.0444Z" fill="#343434"/>
<path fill-rule="evenodd" clip-rule="evenodd" d="M7.13208 67.7774C8.69849 68.4092 9.42439 70.2413 9.42439 70.2413C9.42439 70.2413 7.61601 71.0374 6.04961 70.393C4.49594 69.7612 2.21637 67.6384 2.21637 67.6384C2.21637 67.6384 5.56568 67.133 7.13208 67.7774Z" fill="#343434"/>
<path fill-rule="evenodd" clip-rule="evenodd" d="M9.81919 66.6528C9.18244 68.207 9.97201 70.0013 9.97201 70.0013C9.97201 70.0013 11.8186 69.2811 12.4553 67.7269C13.0921 66.1727 13.1685 63.077 13.1685 63.077C13.1685 63.077 10.4559 65.1113 9.81919 66.6528Z" fill="#343434"/>
<path fill-rule="evenodd" clip-rule="evenodd" d="M10.2522 74.4237C11.9077 74.7775 12.9393 76.4581 12.9393 76.4581C12.9393 76.4581 11.3092 77.5574 9.65364 77.2036C8.01082 76.8498 5.40015 75.144 5.40015 75.144C5.40015 75.144 8.60937 74.0699 10.2522 74.4237Z" fill="#343434"/>
<path fill-rule="evenodd" clip-rule="evenodd" d="M12.71 72.8569C12.3534 74.4869 13.4614 76.1169 13.4614 76.1169C13.4614 76.1169 15.1424 75.0934 15.5117 73.4508C15.8683 71.8082 15.3971 68.7504 15.3971 68.7504C15.3971 68.7504 13.0666 71.2269 12.71 72.8569Z" fill="#343434"/>
<path fill-rule="evenodd" clip-rule="evenodd" d="M14.4929 80.4383C16.174 80.5015 17.4857 81.9672 17.4857 81.9672C17.4857 81.9672 16.0593 83.3318 14.3783 83.2687C12.6973 83.2055 9.81918 81.9798 9.81918 81.9798C9.81918 81.9798 12.8119 80.3751 14.4929 80.4383Z" fill="#343434"/>
<path fill-rule="evenodd" clip-rule="evenodd" d="M16.6452 78.4798C16.5815 80.1477 17.9441 81.5629 17.9441 81.5629C17.9441 81.5629 19.4214 80.2614 19.4978 78.5935C19.5615 76.913 18.5681 73.9815 18.5681 73.9815C18.5681 73.9815 16.7088 76.7992 16.6452 78.4798Z" fill="#343434"/>
<path fill-rule="evenodd" clip-rule="evenodd" d="M19.727 85.6315C21.3953 85.4041 22.949 86.6171 22.949 86.6171C22.949 86.6171 21.7901 88.2092 20.1091 88.4366C18.4408 88.6514 15.3971 87.9438 15.3971 87.9438C15.3971 87.9438 18.0587 85.859 19.727 85.6315Z" fill="#343434"/>
<path fill-rule="evenodd" clip-rule="evenodd" d="M21.4972 83.3192C21.7137 84.9871 23.3183 86.137 23.3183 86.137C23.3183 86.137 24.5536 84.5954 24.3244 82.9402C24.0951 81.2849 22.5924 78.5682 22.5924 78.5682C22.5924 78.5682 21.2679 81.664 21.4972 83.3192Z" fill="#343434"/>
<path fill-rule="evenodd" clip-rule="evenodd" d="M25.7889 89.8392C27.3935 89.3211 29.1255 90.2688 29.1255 90.2688C29.1255 90.2688 28.2595 92.0252 26.6421 92.5432C25.0375 93.0613 21.9174 92.8717 21.9174 92.8717C21.9174 92.8717 24.1715 90.3446 25.7889 89.8392Z" fill="#343434"/>
<path fill-rule="evenodd" clip-rule="evenodd" d="M27.1261 87.2615C27.6355 88.8536 29.4184 89.7128 29.4184 89.7128C29.4184 89.7128 30.3608 87.9817 29.8514 86.3897C29.3292 84.7976 27.3808 82.3842 27.3808 82.3842C27.3808 82.3842 26.6039 85.6694 27.1261 87.2615Z" fill="#343434"/>
<path fill-rule="evenodd" clip-rule="evenodd" d="M32.4875 92.9349C33.9902 92.1515 35.8495 92.7833 35.8495 92.7833C35.8495 92.7833 35.3019 94.666 33.8119 95.4494C32.3219 96.2328 29.2146 96.5992 29.2146 96.5992C29.2146 96.5992 30.9975 93.7183 32.4875 92.9349Z" fill="#343434"/>
<path fill-rule="evenodd" clip-rule="evenodd" d="M33.3535 90.1804C34.1303 91.6587 36.0406 92.202 36.0406 92.202C36.0406 92.202 36.6646 90.3446 35.8877 88.8662C35.0982 87.3752 32.7549 85.3409 32.7549 85.3409C32.7549 85.3409 32.5639 88.702 33.3535 90.1804Z" fill="#343434"/>
<path fill-rule="evenodd" clip-rule="evenodd" d="M39.6318 94.8429C40.969 93.8194 42.9175 94.11 42.9175 94.11C42.9175 94.11 42.7137 96.0559 41.3765 97.0794C40.0394 98.1029 37.0466 99 37.0466 99C37.0466 99 38.2947 95.8664 39.6318 94.8429Z" fill="#343434"/>
<path fill-rule="evenodd" clip-rule="evenodd" d="M40.0012 91.9746C41.0327 93.3014 42.9939 93.5035 42.9939 93.5035C42.9939 93.5035 43.2868 91.5576 42.2552 90.2435C41.2237 88.9168 38.5494 87.3121 38.5494 87.3121C38.5494 87.3121 38.9696 90.6479 40.0012 91.9746Z" fill="#343434"/>
<path fill-rule="evenodd" clip-rule="evenodd" d="M46.929 94.1985C24.2862 94.1985 5.87134 75.9274 5.87134 53.4486C5.87134 35.0512 18.3644 18.8776 36.2443 14.1013L36.2953 14.3162C18.5045 19.0545 6.08783 35.1523 6.08783 53.4486C6.08783 75.801 24.4135 93.971 46.929 93.971V94.1985Z" fill="#343434"/>
<path fill-rule="evenodd" clip-rule="evenodd" d="M55.1049 12.1934C56.7732 12.4966 57.8556 14.1392 57.8556 14.1392C57.8556 14.1392 56.251 15.2891 54.5827 14.9732C52.9272 14.6699 50.2656 13.0526 50.2656 13.0526C50.2656 13.0526 53.4493 11.8775 55.1049 12.1934Z" fill="#343434"/>
<path fill-rule="evenodd" clip-rule="evenodd" d="M61.3705 13.8107C62.0072 15.3649 63.8538 16.0851 63.8538 16.0851C63.8538 16.0851 64.6561 14.2909 64.0194 12.7367C63.3826 11.1825 61.2431 8.93338 61.2431 8.93338C61.2431 8.93338 60.7337 12.2692 61.3705 13.8107Z" fill="#343434"/>
<path fill-rule="evenodd" clip-rule="evenodd" d="M60.2371 16.4895C61.8035 15.8577 63.6119 16.6411 63.6119 16.6411C63.6119 16.6411 62.886 18.4733 61.3196 19.105C59.7532 19.7368 56.6331 19.8 56.6331 19.8C56.6331 19.8 58.6834 17.1212 60.2371 16.4895Z" fill="#343434"/>
<path fill-rule="evenodd" clip-rule="evenodd" d="M68.0691 16.9191C68.4257 18.5617 70.1067 19.5852 70.1067 19.5852C70.1067 19.5852 71.2147 17.9552 70.8581 16.3252C70.5015 14.6952 68.7823 12.1049 68.7823 12.1049C68.7823 12.1049 67.7125 15.2765 68.0691 16.9191Z" fill="#343434"/>
<path fill-rule="evenodd" clip-rule="evenodd" d="M66.49 19.3578C68.1328 19.004 69.7756 20.1033 69.7756 20.1033C69.7756 20.1033 68.7441 21.7712 67.0885 22.1376C65.433 22.4914 62.3511 22.0239 62.3511 22.0239C62.3511 22.0239 64.8472 19.7116 66.49 19.3578Z" fill="#343434"/>
<path fill-rule="evenodd" clip-rule="evenodd" d="M74.131 21.1267C74.1947 22.7946 75.6719 24.0961 75.6719 24.0961C75.6719 24.0961 77.0473 22.6809 76.9836 21.013C76.92 19.3451 75.6847 16.5021 75.6847 16.5021C75.6847 16.5021 74.0673 19.4588 74.131 21.1267Z" fill="#343434"/>
<path fill-rule="evenodd" clip-rule="evenodd" d="M72.157 23.2495C73.8381 23.1863 75.2644 24.5384 75.2644 24.5384C75.2644 24.5384 73.9527 26.0041 72.2717 26.0799C70.5906 26.1431 67.6234 25.1449 67.6234 25.1449C67.6234 25.1449 70.4633 23.3127 72.157 23.2495Z" fill="#343434"/>
<path fill-rule="evenodd" clip-rule="evenodd" d="M79.3651 26.3073C79.1359 27.9626 80.3712 29.5041 80.3712 29.5041C80.3712 29.5041 81.963 28.3543 82.1923 26.6864C82.4215 25.0311 81.6956 22.0112 81.6956 22.0112C81.6956 22.0112 79.5943 24.6521 79.3651 26.3073Z" fill="#343434"/>
<path fill-rule="evenodd" clip-rule="evenodd" d="M77.0473 28.0637C78.7156 28.2911 79.8872 29.8706 79.8872 29.8706C79.8872 29.8706 78.3463 31.0962 76.6653 30.8688C74.997 30.6413 72.2589 29.163 72.2589 29.163C72.2589 29.163 75.3663 27.8489 77.0473 28.0637Z" fill="#343434"/>
<path fill-rule="evenodd" clip-rule="evenodd" d="M83.6058 32.3219C83.0964 33.914 84.0388 35.6324 84.0388 35.6324C84.0388 35.6324 85.8217 34.7732 86.3311 33.1811C86.8405 31.5764 86.6622 28.4933 86.6622 28.4933C86.6622 28.4933 84.1152 30.7298 83.6058 32.3219Z" fill="#343434"/>
<path fill-rule="evenodd" clip-rule="evenodd" d="M81.0079 33.6486C82.6125 34.154 83.4912 35.923 83.4912 35.923C83.4912 35.923 81.7465 36.8581 80.1419 36.3526C78.5373 35.8346 76.1049 33.9013 76.1049 33.9013C76.1049 33.9013 79.4033 33.1432 81.0079 33.6486Z" fill="#343434"/>
<path fill-rule="evenodd" clip-rule="evenodd" d="M86.7259 38.9682C85.9491 40.4592 86.5731 42.304 86.5731 42.304C86.5731 42.304 88.4706 41.7607 89.2602 40.2823C90.0497 38.804 90.4063 35.7335 90.4063 35.7335C90.4063 35.7335 87.5155 37.4899 86.7259 38.9682Z" fill="#343434"/>
<path fill-rule="evenodd" clip-rule="evenodd" d="M83.9497 39.8401C85.4397 40.6108 85.9873 42.5062 85.9873 42.5062C85.9873 42.5062 84.1152 43.138 82.6252 42.3546C81.1352 41.5712 79.0722 39.2462 79.0722 39.2462C79.0722 39.2462 82.4597 39.0567 83.9497 39.8401Z" fill="#343434"/>
<path fill-rule="evenodd" clip-rule="evenodd" d="M88.6489 46.0568C87.6174 47.3835 87.9103 49.3168 87.9103 49.3168C87.9103 49.3168 89.8715 49.1146 90.903 47.7879C91.9345 46.4611 92.8387 43.4918 92.8387 43.4918C92.8387 43.4918 89.6804 44.7427 88.6489 46.0568Z" fill="#343434"/>
<path fill-rule="evenodd" clip-rule="evenodd" d="M85.758 46.4359C87.0952 47.4594 87.299 49.4179 87.299 49.4179C87.299 49.4179 85.3378 49.7085 84.0006 48.685C82.6634 47.6615 81.0461 45.0081 81.0461 45.0081C81.0461 45.0081 84.4209 45.3998 85.758 46.4359Z" fill="#343434"/>
<path fill-rule="evenodd" clip-rule="evenodd" d="M89.2984 53.3728C88.0504 54.4974 87.9994 56.4559 87.9994 56.4559C87.9994 56.4559 89.9733 56.5949 91.2214 55.4577C92.4694 54.3331 93.8703 51.5659 93.8703 51.5659C93.8703 51.5659 90.5464 52.2482 89.2984 53.3728Z" fill="#343434"/>
<path fill-rule="evenodd" clip-rule="evenodd" d="M86.3821 53.2338C87.5155 54.4721 87.3754 56.4306 87.3754 56.4306C87.3754 56.4306 85.4015 56.3801 84.2681 55.1418C83.1346 53.9035 82.0012 51.0099 82.0012 51.0099C82.0012 51.0099 85.2487 51.9955 86.3821 53.2338Z" fill="#343434"/>
<path fill-rule="evenodd" clip-rule="evenodd" d="M88.6489 60.6888C87.2226 61.586 86.8278 63.5066 86.8278 63.5066C86.8278 63.5066 88.7508 63.9741 90.1771 63.077C91.6034 62.1798 93.4755 59.7032 93.4755 59.7032C93.4755 59.7032 90.0752 59.7917 88.6489 60.6888Z" fill="#343434"/>
<path fill-rule="evenodd" clip-rule="evenodd" d="M85.7963 60.0444C86.7004 61.4596 86.2292 63.3549 86.2292 63.3549C86.2292 63.3549 84.2935 62.9632 83.3893 61.548C82.4852 60.1329 81.8739 57.1003 81.8739 57.1003C81.8739 57.1003 84.9048 58.6292 85.7963 60.0444Z" fill="#343434"/>
<path fill-rule="evenodd" clip-rule="evenodd" d="M86.7386 67.7774C85.185 68.4092 84.4591 70.2413 84.4591 70.2413C84.4591 70.2413 86.2674 71.0374 87.8339 70.393C89.4003 69.7612 91.6671 67.6384 91.6671 67.6384C91.6671 67.6384 88.3051 67.133 86.7386 67.7774Z" fill="#343434"/>
<path fill-rule="evenodd" clip-rule="evenodd" d="M84.0516 66.6528C84.6883 68.207 83.886 70.0013 83.886 70.0013C83.886 70.0013 82.0394 69.2811 81.4027 67.7269C80.7659 66.1727 80.6895 63.077 80.6895 63.077C80.6895 63.077 83.4148 65.1113 84.0516 66.6528Z" fill="#343434"/>
<path fill-rule="evenodd" clip-rule="evenodd" d="M83.6186 74.4237C81.9758 74.7775 80.9315 76.4581 80.9315 76.4581C80.9315 76.4581 82.5743 77.5574 84.2299 77.2036C85.8727 76.8498 88.4834 75.144 88.4834 75.144C88.4834 75.144 85.2614 74.0699 83.6186 74.4237Z" fill="#343434"/>
<path fill-rule="evenodd" clip-rule="evenodd" d="M81.1607 72.8569C81.5173 74.4869 80.4093 76.1169 80.4093 76.1169C80.4093 76.1169 78.7283 75.0934 78.3717 73.4508C78.0024 71.8082 78.4864 68.7504 78.4864 68.7504C78.4864 68.7504 80.7914 71.2269 81.1607 72.8569Z" fill="#343434"/>
<path fill-rule="evenodd" clip-rule="evenodd" d="M79.3778 80.4383C77.6968 80.5015 76.3723 81.9672 76.3723 81.9672C76.3723 81.9672 77.7987 83.3318 79.4924 83.2687C81.1734 83.2055 84.0388 81.9798 84.0388 81.9798C84.0388 81.9798 81.0588 80.3751 79.3778 80.4383Z" fill="#343434"/>
<path fill-rule="evenodd" clip-rule="evenodd" d="M77.2256 78.4798C77.2893 80.1477 75.9139 81.5629 75.9139 81.5629C75.9139 81.5629 74.4366 80.2614 74.3602 78.5935C74.2965 76.913 75.2899 73.9815 75.2899 73.9815C75.2899 73.9815 77.1619 76.7992 77.2256 78.4798Z" fill="#343434"/>
<path fill-rule="evenodd" clip-rule="evenodd" d="M74.1437 85.6315C72.4627 85.4041 70.9218 86.6171 70.9218 86.6171C70.9218 86.6171 72.0806 88.2092 73.7617 88.4366C75.4299 88.6514 78.4736 87.9438 78.4736 87.9438C78.4736 87.9438 75.812 85.859 74.1437 85.6315Z" fill="#343434"/>
<path fill-rule="evenodd" clip-rule="evenodd" d="M72.3736 83.3192C72.1443 84.9871 70.5525 86.137 70.5525 86.137C70.5525 86.137 69.3172 84.5954 69.5464 82.9402C69.7756 81.2849 71.2784 78.5682 71.2784 78.5682C71.2784 78.5682 72.6028 81.664 72.3736 83.3192Z" fill="#343434"/>
<path fill-rule="evenodd" clip-rule="evenodd" d="M68.0818 89.8392C66.4772 89.3211 64.7325 90.2688 64.7325 90.2688C64.7325 90.2688 65.5985 92.0252 67.2159 92.5432C68.8205 93.0613 71.9406 92.8717 71.9406 92.8717C71.9406 92.8717 69.6992 90.3446 68.0818 89.8392Z" fill="#343434"/>
<path fill-rule="evenodd" clip-rule="evenodd" d="M66.7447 87.2615C66.2225 88.8536 64.4524 89.7128 64.4524 89.7128C64.4524 89.7128 63.51 87.9817 64.0194 86.3897C64.5288 84.7976 66.49 82.3842 66.49 82.3842C66.49 82.3842 67.2668 85.6694 66.7447 87.2615Z" fill="#343434"/>
<path fill-rule="evenodd" clip-rule="evenodd" d="M61.3832 92.9349C59.8932 92.1515 58.0085 92.7833 58.0085 92.7833C58.0085 92.7833 58.5561 94.666 60.0461 95.4494C61.5488 96.2328 64.6434 96.5992 64.6434 96.5992C64.6434 96.5992 62.8732 93.7183 61.3832 92.9349Z" fill="#343434"/>
<path fill-rule="evenodd" clip-rule="evenodd" d="M60.5173 90.1804C59.7277 91.6587 57.8302 92.202 57.8302 92.202C57.8302 92.202 57.2062 90.3446 57.983 88.8662C58.7726 87.3752 61.1158 85.3409 61.1158 85.3409C61.1158 85.3409 61.3068 88.702 60.5173 90.1804Z" fill="#343434"/>
<path fill-rule="evenodd" clip-rule="evenodd" d="M54.2389 94.8429C52.9017 93.8194 50.9533 94.11 50.9533 94.11C50.9533 94.11 51.157 96.0559 52.4942 97.0794C53.8314 98.1029 56.8114 99 56.8114 99C56.8114 99 55.5761 95.8664 54.2389 94.8429Z" fill="#343434"/>
<path fill-rule="evenodd" clip-rule="evenodd" d="M53.8696 91.9746C52.838 93.3014 50.8641 93.5035 50.8641 93.5035C50.8641 93.5035 50.5712 91.5576 51.6027 90.2435C52.6343 88.9168 55.3086 87.3121 55.3086 87.3121C55.3086 87.3121 54.9011 90.6479 53.8696 91.9746Z" fill="#343434"/>
<path fill-rule="evenodd" clip-rule="evenodd" d="M46.929 94.1985V93.9837C69.4445 93.9837 87.7702 75.801 87.7702 53.4613C87.7702 35.1649 75.3408 19.0671 57.55 14.3288L57.6137 14.114C75.5064 18.8776 87.9994 35.0512 87.9994 53.4486C87.9994 75.9148 69.5718 94.1985 46.929 94.1985Z" fill="#343434"/>
</g>
<defs>
<clipPath id="clip0_1_11">
<rect width="380" height="99" fill="white" transform="translate(0.000488281)"/>
</clipPath>
</defs>
</svg>
