<svg width="182" height="11" viewBox="0 0 182 11" fill="none" xmlns="http://www.w3.org/2000/svg">
<path d="M0.192479 10.0002V0.200243H5.72248C6.82381 0.200243 7.62648 0.410244 8.13048 0.830244C8.63448 1.24091 8.88648 1.90358 8.88648 2.81824C8.88648 3.82624 8.58315 4.53091 7.97648 4.93224C8.78848 5.32424 9.19448 6.11291 9.19448 7.29824C9.19448 8.24091 8.94248 8.92691 8.43848 9.35624C7.93448 9.78558 7.12715 10.0002 6.01648 10.0002H0.192479ZM2.16648 8.15224H6.01648C6.48315 8.15224 6.81915 8.06358 7.02448 7.88624C7.23915 7.69958 7.34648 7.41024 7.34648 7.01824C7.34648 6.62624 7.23915 6.34158 7.02448 6.16424C6.81915 5.97758 6.48315 5.88424 6.01648 5.88424H2.16648V8.15224ZM2.16648 4.16224H5.66648C6.15181 4.16224 6.50181 4.07824 6.71648 3.91024C6.94048 3.74224 7.05248 3.47158 7.05248 3.09824C7.05248 2.73424 6.94515 2.46824 6.73048 2.30024C6.51581 2.13224 6.17981 2.04824 5.72248 2.04824H2.16648V4.16224ZM10.0524 10.0002V8.15224H10.4724C10.6871 8.15224 10.8504 8.07758 10.9624 7.92824C11.0744 7.77891 11.1677 7.46624 11.2424 6.99024C11.3171 6.51424 11.3824 5.78158 11.4384 4.79224L11.5364 2.72024H17.6404V10.0002H15.7924V4.44224H13.2584L13.2444 4.94624C13.1884 6.28091 13.0531 7.31691 12.8384 8.05424C12.6331 8.79158 12.3531 9.30024 11.9984 9.58024C11.6437 9.86024 11.1631 10.0002 10.5564 10.0002H10.0524ZM19.8355 3.49024C20.4328 2.89291 21.3895 2.59424 22.7055 2.59424C24.0215 2.59424 24.9781 2.89291 25.5755 3.49024C26.1728 4.08758 26.4715 5.04424 26.4715 6.36024C26.4715 7.68558 26.1728 8.64691 25.5755 9.24424C24.9781 9.83224 24.0215 10.1262 22.7055 10.1262C21.3895 10.1262 20.4328 9.83224 19.8355 9.24424C19.2475 8.64691 18.9535 7.68558 18.9535 6.36024C18.9535 5.04424 19.2475 4.08758 19.8355 3.49024ZM20.7875 6.36024C20.7875 7.06958 20.9368 7.58758 21.2355 7.91424C21.5435 8.24091 22.0335 8.40424 22.7055 8.40424C23.3775 8.40424 23.8628 8.24091 24.1615 7.91424C24.4695 7.58758 24.6235 7.06958 24.6235 6.36024C24.6235 5.64158 24.4695 5.12358 24.1615 4.80624C23.8628 4.47958 23.3775 4.31624 22.7055 4.31624C22.0335 4.31624 21.5435 4.47958 21.2355 4.80624C20.9368 5.12358 20.7875 5.64158 20.7875 6.36024ZM29.2123 10.0002H26.9723L29.6603 6.27624L27.1683 2.72024H29.3523L31.2423 5.43624H31.9843V2.72024H33.8323V5.43624H34.5883L36.4783 2.72024H38.6623L36.1703 6.27624L38.8583 10.0002H36.6183L34.5883 7.15824H33.8323V10.0002H31.9843V7.15824H31.2423L29.2123 10.0002ZM40.2476 9.23024C39.6596 8.63291 39.3656 7.67624 39.3656 6.36024C39.3656 5.04424 39.6596 4.08758 40.2476 3.49024C40.8356 2.89291 41.7876 2.59424 43.1036 2.59424C44.4102 2.59424 45.3529 2.89291 45.9316 3.49024C46.5196 4.08758 46.8136 5.04424 46.8136 6.36024C46.8136 6.49091 46.8042 6.68691 46.7856 6.94824H41.2556C41.3769 8.00291 41.9976 8.53024 43.1176 8.53024C43.9576 8.53024 44.5129 8.24558 44.7836 7.67624H46.6876C46.5009 8.58158 46.1042 9.21624 45.4976 9.58024C44.8909 9.94424 44.0929 10.1262 43.1036 10.1262C41.7876 10.1262 40.8356 9.82758 40.2476 9.23024ZM43.1176 4.19024C42.5949 4.19024 42.1796 4.29758 41.8716 4.51224C41.5636 4.72691 41.3676 5.08158 41.2836 5.57624H44.9516C44.8676 5.08158 44.6716 4.72691 44.3636 4.51224C44.0649 4.29758 43.6496 4.19024 43.1176 4.19024ZM48.1091 10.0002V2.72024H49.9571V5.49224H53.3591V2.72024H55.2071V10.0002H53.3591V7.22824H49.9571V10.0002H48.1091ZM56.8318 10.0002V2.72024H58.6798V7.01824L62.3198 2.72024H63.9298V10.0002H62.0818V5.70224L58.4418 10.0002H56.8318ZM65.2604 10.0002L66.9264 7.60624C65.9278 7.30758 65.4284 6.52358 65.4284 5.25424C65.4284 4.36758 65.6618 3.72358 66.1284 3.32224C66.6044 2.92091 67.3651 2.72024 68.4104 2.72024H72.2604V10.0002H70.4124V7.78824H68.9844L67.4724 10.0002H65.2604ZM67.2624 5.25424C67.2624 5.54358 67.3651 5.75358 67.5704 5.88424C67.7758 6.00558 68.1071 6.06624 68.5644 6.06624H70.4124V4.44224H68.5644C67.6964 4.44224 67.2624 4.71291 67.2624 5.25424ZM78.146 3.49024C78.7433 2.89291 79.7 2.59424 81.016 2.59424C82.332 2.59424 83.2887 2.89291 83.886 3.49024C84.4833 4.08758 84.782 5.04424 84.782 6.36024C84.782 7.68558 84.4833 8.64691 83.886 9.24424C83.2887 9.83224 82.332 10.1262 81.016 10.1262C79.7 10.1262 78.7433 9.83224 78.146 9.24424C77.558 8.64691 77.264 7.68558 77.264 6.36024C77.264 5.04424 77.558 4.08758 78.146 3.49024ZM79.098 6.36024C79.098 7.06958 79.2473 7.58758 79.546 7.91424C79.854 8.24091 80.344 8.40424 81.016 8.40424C81.688 8.40424 82.1733 8.24091 82.472 7.91424C82.78 7.58758 82.934 7.06958 82.934 6.36024C82.934 5.64158 82.78 5.12358 82.472 4.80624C82.1733 4.47958 81.688 4.31624 81.016 4.31624C80.344 4.31624 79.854 4.47958 79.546 4.80624C79.2473 5.12358 79.098 5.64158 79.098 6.36024ZM85.4326 4.44224V2.72024H92.6006V4.44224H89.9406V10.0002H88.0926V4.44224H85.4326ZM96.8945 2.63624L100.759 0.200243H102.019V10.0002H100.171V2.63624L97.9025 4.13424L96.8945 2.63624ZM107.462 7.07424H109.31C109.31 7.53158 109.473 7.86758 109.8 8.08224C110.126 8.29691 110.649 8.40424 111.368 8.40424C112.077 8.40424 112.595 8.30158 112.922 8.09624C113.258 7.88158 113.426 7.54558 113.426 7.08824C113.426 6.63091 113.248 6.30424 112.894 6.10824C112.539 5.90291 111.956 5.80024 111.144 5.80024H110.682V4.19024H111.214C111.96 4.19024 112.497 4.09691 112.824 3.91024C113.15 3.71424 113.314 3.40158 113.314 2.97224C113.314 2.55224 113.164 2.25358 112.866 2.07624C112.567 1.88958 112.086 1.79624 111.424 1.79624C110.761 1.79624 110.276 1.89424 109.968 2.09024C109.669 2.27691 109.52 2.58024 109.52 3.00024H107.672C107.672 1.97358 107.966 1.23158 108.554 0.774244C109.151 0.307577 110.108 0.0742434 111.424 0.0742434C112.73 0.0742434 113.678 0.28891 114.266 0.718243C114.863 1.13824 115.162 1.81958 115.162 2.76224C115.162 3.81691 114.756 4.55891 113.944 4.98824C114.83 5.40824 115.274 6.18291 115.274 7.31224C115.274 8.30158 114.961 9.02024 114.336 9.46824C113.72 9.90691 112.73 10.1262 111.368 10.1262C110.005 10.1262 109.011 9.88824 108.386 9.41224C107.77 8.92691 107.462 8.14758 107.462 7.07424ZM120.874 0.0742434C122.414 0.0742434 123.525 0.47091 124.206 1.26424C124.897 2.05758 125.242 3.33624 125.242 5.10024C125.242 6.86424 124.897 8.14291 124.206 8.93624C123.525 9.72958 122.414 10.1262 120.874 10.1262C119.343 10.1262 118.228 9.72958 117.528 8.93624C116.837 8.13358 116.492 6.85491 116.492 5.10024C116.492 3.33624 116.837 2.05758 117.528 1.26424C118.228 0.47091 119.343 0.0742434 120.874 0.0742434ZM118.326 5.10024C118.326 6.24824 118.531 7.08824 118.942 7.62024C119.353 8.14291 119.997 8.40424 120.874 8.40424C121.77 8.40424 122.414 8.14291 122.806 7.62024C123.207 7.09758 123.408 6.25758 123.408 5.10024C123.408 3.93358 123.207 3.09358 122.806 2.58024C122.414 2.05758 121.77 1.79624 120.874 1.79624C119.997 1.79624 119.353 2.05758 118.942 2.58024C118.531 3.10291 118.326 3.94291 118.326 5.10024ZM130.909 0.0742434C132.449 0.0742434 133.56 0.47091 134.241 1.26424C134.932 2.05758 135.277 3.33624 135.277 5.10024C135.277 6.86424 134.932 8.14291 134.241 8.93624C133.56 9.72958 132.449 10.1262 130.909 10.1262C129.378 10.1262 128.263 9.72958 127.563 8.93624C126.872 8.13358 126.527 6.85491 126.527 5.10024C126.527 3.33624 126.872 2.05758 127.563 1.26424C128.263 0.47091 129.378 0.0742434 130.909 0.0742434ZM128.361 5.10024C128.361 6.24824 128.566 7.08824 128.977 7.62024C129.388 8.14291 130.032 8.40424 130.909 8.40424C131.805 8.40424 132.449 8.14291 132.841 7.62024C133.242 7.09758 133.443 6.25758 133.443 5.10024C133.443 3.93358 133.242 3.09358 132.841 2.58024C132.449 2.05758 131.805 1.79624 130.909 1.79624C130.032 1.79624 129.388 2.05758 128.977 2.58024C128.566 3.10291 128.361 3.94291 128.361 5.10024ZM144.636 0.0742434C146.176 0.0742434 147.286 0.47091 147.968 1.26424C148.658 2.05758 149.004 3.33624 149.004 5.10024C149.004 6.86424 148.658 8.14291 147.968 8.93624C147.286 9.72958 146.176 10.1262 144.636 10.1262C143.105 10.1262 141.99 9.72958 141.29 8.93624C140.599 8.13358 140.254 6.85491 140.254 5.10024C140.254 3.33624 140.599 2.05758 141.29 1.26424C141.99 0.47091 143.105 0.0742434 144.636 0.0742434ZM142.088 5.10024C142.088 6.24824 142.293 7.08824 142.704 7.62024C143.114 8.14291 143.758 8.40424 144.636 8.40424C145.532 8.40424 146.176 8.14291 146.568 7.62024C146.969 7.09758 147.17 6.25758 147.17 5.10024C147.17 3.93358 146.969 3.09358 146.568 2.58024C146.176 2.05758 145.532 1.79624 144.636 1.79624C143.758 1.79624 143.114 2.05758 142.704 2.58024C142.293 3.10291 142.088 3.94291 142.088 5.10024ZM154.671 0.0742434C156.211 0.0742434 157.321 0.47091 158.003 1.26424C158.693 2.05758 159.039 3.33624 159.039 5.10024C159.039 6.86424 158.693 8.14291 158.003 8.93624C157.321 9.72958 156.211 10.1262 154.671 10.1262C153.14 10.1262 152.025 9.72958 151.325 8.93624C150.634 8.13358 150.289 6.85491 150.289 5.10024C150.289 3.33624 150.634 2.05758 151.325 1.26424C152.025 0.47091 153.14 0.0742434 154.671 0.0742434ZM152.123 5.10024C152.123 6.24824 152.328 7.08824 152.739 7.62024C153.149 8.14291 153.793 8.40424 154.671 8.40424C155.567 8.40424 156.211 8.14291 156.603 7.62024C157.004 7.09758 157.205 6.25758 157.205 5.10024C157.205 3.93358 157.004 3.09358 156.603 2.58024C156.211 2.05758 155.567 1.79624 154.671 1.79624C153.793 1.79624 153.149 2.05758 152.739 2.58024C152.328 3.10291 152.123 3.94291 152.123 5.10024ZM164.706 0.0742434C166.246 0.0742434 167.357 0.47091 168.038 1.26424C168.729 2.05758 169.074 3.33624 169.074 5.10024C169.074 6.86424 168.729 8.14291 168.038 8.93624C167.357 9.72958 166.246 10.1262 164.706 10.1262C163.175 10.1262 162.06 9.72958 161.36 8.93624C160.669 8.13358 160.324 6.85491 160.324 5.10024C160.324 3.33624 160.669 2.05758 161.36 1.26424C162.06 0.47091 163.175 0.0742434 164.706 0.0742434ZM162.158 5.10024C162.158 6.24824 162.363 7.08824 162.774 7.62024C163.185 8.14291 163.829 8.40424 164.706 8.40424C165.602 8.40424 166.246 8.14291 166.638 7.62024C167.039 7.09758 167.24 6.25758 167.24 5.10024C167.24 3.93358 167.039 3.09358 166.638 2.58024C166.246 2.05758 165.602 1.79624 164.706 1.79624C163.829 1.79624 163.185 2.05758 162.774 2.58024C162.363 3.10291 162.158 3.94291 162.158 5.10024ZM178.238 6.59824H176.502V7.36824H179.624V8.60024H176.502V10.0002H174.584V8.60024H173.534V7.36824H174.584V6.59824H173.534V4.90424H174.584V0.200243H178.238C179.162 0.200243 179.941 0.517577 180.576 1.15224C181.22 1.78691 181.542 2.55224 181.542 3.44824C181.542 4.34424 181.224 5.09558 180.59 5.70224C179.964 6.29958 179.18 6.59824 178.238 6.59824ZM178.238 2.00624H176.502V4.90424H178.238C178.63 4.90424 178.956 4.76424 179.218 4.48424C179.488 4.20424 179.624 3.85891 179.624 3.44824C179.624 3.03758 179.488 2.69691 179.218 2.42624C178.956 2.14624 178.63 2.00624 178.238 2.00624Z" fill="#343434"/>
</svg>
