<svg width="60" height="60" viewBox="0 0 60 60" fill="none" xmlns="http://www.w3.org/2000/svg">
<path d="M23.75 23.3125V36.6875C23.75 37.6458 24.1875 38.375 25.0625 38.875C25.9375 39.375 26.7917 39.3333 27.625 38.75L38 32.125C38.7917 31.625 39.1875 30.9167 39.1875 30C39.1875 29.0833 38.7917 28.375 38 27.875L27.625 21.25C26.7917 20.6667 25.9375 20.625 25.0625 21.125C24.1875 21.625 23.75 22.3542 23.75 23.3125ZM30 55C26.5417 55 23.2917 54.3433 20.25 53.03C17.2083 51.7167 14.5625 49.9358 12.3125 47.6875C10.0625 45.4375 8.28167 42.7917 6.97 39.75C5.65833 36.7083 5.00167 33.4583 5 30C5 26.5417 5.65667 23.2917 6.97 20.25C8.28333 17.2083 10.0642 14.5625 12.3125 12.3125C14.5625 10.0625 17.2083 8.28167 20.25 6.97C23.2917 5.65833 26.5417 5.00167 30 5C33.4583 5 36.7083 5.65667 39.75 6.97C42.7917 8.28333 45.4375 10.0642 47.6875 12.3125C49.9375 14.5625 51.7192 17.2083 53.0325 20.25C54.3458 23.2917 55.0017 26.5417 55 30C55 33.4583 54.3433 36.7083 53.03 39.75C51.7167 42.7917 49.9358 45.4375 47.6875 47.6875C45.4375 49.9375 42.7917 51.7192 39.75 53.0325C36.7083 54.3458 33.4583 55.0017 30 55Z" fill="#FFD600"/>
</svg>
