<svg width="640" height="640" viewBox="0 0 640 640" fill="none" xmlns="http://www.w3.org/2000/svg">
<path d="M640 320C640 496.731 496.731 640 320 640C143.269 640 0 496.731 0 320C0 143.269 143.269 0 320 0C496.731 0 640 143.269 640 320Z" fill="url(#paint0_linear_94_3)"/>
<g clip-path="url(#clip0_94_3)">
<path fill-rule="evenodd" clip-rule="evenodd" d="M269.174 65.3739C258.875 67.2766 252.14 77.5825 252.14 77.5825C252.14 77.5825 262.123 84.7966 272.423 82.8147C282.723 80.912 299.361 70.7647 299.361 70.7647C299.361 70.7647 279.474 63.4713 269.174 65.3739Z" fill="#FFE455"/>
<path fill-rule="evenodd" clip-rule="evenodd" d="M230.193 75.6006C226.232 85.3515 214.823 89.8702 214.823 89.8702C214.823 89.8702 209.832 78.6131 213.793 68.8621C217.754 59.1112 231.065 45 231.065 45C231.065 45 234.155 65.8496 230.193 75.6006Z" fill="#FFE455"/>
<path fill-rule="evenodd" clip-rule="evenodd" d="M237.245 92.4071C227.5 88.4433 216.328 93.3584 216.328 93.3584C216.328 93.3584 220.844 104.853 230.59 108.817C240.256 112.781 259.746 113.177 259.746 113.177C259.746 113.177 246.911 96.3709 237.245 92.4071Z" fill="#FFE455"/>
<path fill-rule="evenodd" clip-rule="evenodd" d="M188.519 95.0232C186.221 105.329 175.763 111.75 175.763 111.75C175.763 111.75 168.87 101.524 171.088 91.2972C173.307 81.0706 183.923 64.819 183.923 64.819C183.923 64.819 190.737 84.7966 188.519 95.0232Z" fill="#FFE455"/>
<path fill-rule="evenodd" clip-rule="evenodd" d="M198.343 110.323C188.123 108.104 177.902 115.001 177.902 115.001C177.902 115.001 184.32 125.465 194.619 127.764C204.84 129.984 224.093 127.051 224.093 127.051C224.093 127.051 208.564 112.543 198.343 110.323Z" fill="#FFE455"/>
<path fill-rule="evenodd" clip-rule="evenodd" d="M150.806 121.422C150.33 131.966 141.14 140.131 141.14 140.131C141.14 140.131 132.583 131.252 133.058 120.788C133.454 110.323 141.14 92.4864 141.14 92.4864C141.14 92.4864 151.202 110.958 150.806 121.422Z" fill="#FFE455"/>
<path fill-rule="evenodd" clip-rule="evenodd" d="M163.086 134.82C152.628 134.423 143.754 142.906 143.754 142.906C143.754 142.906 151.915 152.102 162.373 152.578C172.831 152.974 191.213 146.711 191.213 146.711C191.213 146.711 173.624 135.216 163.086 134.82Z" fill="#FFE455"/>
<path fill-rule="evenodd" clip-rule="evenodd" d="M118.242 154.005C119.668 164.39 111.983 174.061 111.983 174.061C111.983 174.061 102.08 166.847 100.653 156.383C99.2273 145.998 103.743 127.051 103.743 127.051C103.743 127.051 116.816 143.619 118.242 154.005Z" fill="#FFE455"/>
<path fill-rule="evenodd" clip-rule="evenodd" d="M132.662 165.024C122.283 166.451 114.994 176.36 114.994 176.36C114.994 176.36 124.66 184.05 135.039 182.623C145.418 181.196 162.532 171.921 162.532 171.921C162.532 171.921 143.12 163.597 132.662 165.024Z" fill="#FFE455"/>
<path fill-rule="evenodd" clip-rule="evenodd" d="M91.8589 191.74C95.0281 201.729 89.1651 212.51 89.1651 212.51C89.1651 212.51 78.1522 207.119 74.9038 197.131C71.7346 187.063 72.8439 167.719 72.8439 167.719C72.8439 167.719 88.6897 181.751 91.8589 191.74Z" fill="#FFE455"/>
<path fill-rule="evenodd" clip-rule="evenodd" d="M108.022 200.064C98.0388 203.235 92.572 214.334 92.572 214.334C92.572 214.334 103.347 220.2 113.33 217.029C123.392 213.779 138.525 201.649 138.525 201.649C138.525 201.649 118.005 196.893 108.022 200.064Z" fill="#FFE455"/>
<path fill-rule="evenodd" clip-rule="evenodd" d="M72.3685 233.439C77.2807 242.794 73.3192 254.368 73.3192 254.368C73.3192 254.368 61.514 250.959 56.6018 241.684C51.6896 232.408 49.4712 213.144 49.4712 213.144C49.4712 213.144 67.5355 224.164 72.3685 233.439Z" fill="#FFE455"/>
<path fill-rule="evenodd" clip-rule="evenodd" d="M89.7197 238.83C80.3706 243.666 76.9638 255.557 76.9638 255.557C76.9638 255.557 88.6897 259.521 97.9596 254.606C107.229 249.691 120.065 235.104 120.065 235.104C120.065 235.104 98.9896 233.994 89.7197 238.83Z" fill="#FFE455"/>
<path fill-rule="evenodd" clip-rule="evenodd" d="M60.484 277.913C66.9016 286.237 65.0794 298.366 65.0794 298.366C65.0794 298.366 52.7988 297.098 46.4604 288.774C40.0429 280.45 34.4176 261.82 34.4176 261.82C34.4176 261.82 54.0665 269.589 60.484 277.913Z" fill="#FFE455"/>
<path fill-rule="evenodd" clip-rule="evenodd" d="M78.4691 280.212C70.1501 286.633 68.8824 298.921 68.8824 298.921C68.8824 298.921 81.0045 300.744 89.4028 294.323C97.7219 287.902 107.784 271.254 107.784 271.254C107.784 271.254 86.7882 273.791 78.4691 280.212Z" fill="#FFE455"/>
<path fill-rule="evenodd" clip-rule="evenodd" d="M56.4434 323.814C64.2078 330.869 64.5248 343.157 64.5248 343.157C64.5248 343.157 52.2442 344.029 44.4797 336.894C36.7152 329.839 28 312.477 28 312.477C28 312.477 48.6789 316.679 56.4434 323.814Z" fill="#FFE455"/>
<path fill-rule="evenodd" clip-rule="evenodd" d="M74.5869 322.942C67.4563 330.711 68.3278 342.999 68.3278 342.999C68.3278 342.999 80.6083 342.681 87.6598 334.912C94.7112 327.143 101.763 308.989 101.763 308.989C101.763 308.989 81.6383 315.173 74.5869 322.942Z" fill="#FFE455"/>
<path fill-rule="evenodd" clip-rule="evenodd" d="M60.4841 369.635C69.3578 375.264 71.8139 387.314 71.8139 387.314C71.8139 387.314 59.8502 390.247 50.9765 384.618C42.1028 378.99 30.4561 363.452 30.4561 363.452C30.4561 363.452 51.6104 364.086 60.4841 369.635Z" fill="#FFE455"/>
<path fill-rule="evenodd" clip-rule="evenodd" d="M78.1522 365.671C72.5269 374.55 75.5377 386.442 75.5377 386.442C75.5377 386.442 87.5805 383.984 93.2058 375.105C98.8311 366.226 102.555 347.2 102.555 347.2C102.555 347.2 83.7775 356.793 78.1522 365.671Z" fill="#FFE455"/>
<path fill-rule="evenodd" clip-rule="evenodd" d="M72.3685 414.109C82.1137 418.073 86.6298 429.568 86.6298 429.568C86.6298 429.568 75.3792 434.562 65.634 430.519C55.968 426.555 41.7859 413.237 41.7859 413.237C41.7859 413.237 62.6233 410.145 72.3685 414.109Z" fill="#FFE455"/>
<path fill-rule="evenodd" clip-rule="evenodd" d="M89.0859 407.133C85.1244 416.884 90.0366 428.141 90.0366 428.141C90.0366 428.141 101.525 423.622 105.486 413.871C109.448 404.12 109.923 384.698 109.923 384.698C109.923 384.698 93.0473 397.382 89.0859 407.133Z" fill="#FFE455"/>
<path fill-rule="evenodd" clip-rule="evenodd" d="M91.7797 455.888C102.079 458.107 108.497 468.651 108.497 468.651C108.497 468.651 98.3557 475.548 88.0559 473.328C77.8353 471.108 61.5933 460.406 61.5933 460.406C61.5933 460.406 81.5591 453.668 91.7797 455.888Z" fill="#FFE455"/>
<path fill-rule="evenodd" clip-rule="evenodd" d="M107.071 446.057C104.853 456.284 111.745 466.51 111.745 466.51C111.745 466.51 122.204 460.089 124.501 449.783C126.72 439.477 123.788 420.293 123.788 420.293C123.788 420.293 109.289 435.751 107.071 446.057Z" fill="#FFE455"/>
<path fill-rule="evenodd" clip-rule="evenodd" d="M118.163 493.623C128.621 494.019 136.782 503.215 136.782 503.215C136.782 503.215 127.908 511.777 117.45 511.381C106.992 510.984 89.0859 503.295 89.0859 503.295C89.0859 503.295 107.705 493.147 118.163 493.623Z" fill="#FFE455"/>
<path fill-rule="evenodd" clip-rule="evenodd" d="M131.553 481.256C131.157 491.72 139.634 500.599 139.634 500.599C139.634 500.599 148.825 492.434 149.3 481.969C149.696 471.426 143.516 453.034 143.516 453.034C143.516 453.034 131.949 470.791 131.553 481.256Z" fill="#FFE455"/>
<path fill-rule="evenodd" clip-rule="evenodd" d="M150.726 526.205C161.105 524.778 170.771 532.389 170.771 532.389C170.771 532.389 163.562 542.378 153.103 543.805C142.724 545.152 123.788 540.713 123.788 540.713C123.788 540.713 140.347 527.553 150.726 526.205Z" fill="#FFE455"/>
<path fill-rule="evenodd" clip-rule="evenodd" d="M161.739 511.698C163.086 522.162 173.069 529.376 173.069 529.376C173.069 529.376 180.754 519.705 179.328 509.32C177.902 498.934 168.553 481.89 168.553 481.89C168.553 481.89 160.313 501.233 161.739 511.698Z" fill="#FFE455"/>
<path fill-rule="evenodd" clip-rule="evenodd" d="M188.44 552.604C198.422 549.354 209.198 555.3 209.198 555.3C209.198 555.3 203.81 566.319 193.748 569.569C183.765 572.82 164.354 571.63 164.354 571.63C164.354 571.63 178.377 555.775 188.44 552.604Z" fill="#FFE455"/>
<path fill-rule="evenodd" clip-rule="evenodd" d="M196.759 536.432C199.928 546.421 211.02 551.811 211.02 551.811C211.02 551.811 216.883 540.951 213.714 530.962C210.465 520.973 198.343 505.831 198.343 505.831C198.343 505.831 193.51 526.443 196.759 536.432Z" fill="#FFE455"/>
<path fill-rule="evenodd" clip-rule="evenodd" d="M230.114 572.027C239.463 567.112 251.031 571.076 251.031 571.076C251.031 571.076 247.624 582.888 238.354 587.803C229.084 592.718 209.752 595.017 209.752 595.017C209.752 595.017 220.844 576.942 230.114 572.027Z" fill="#FFE455"/>
<path fill-rule="evenodd" clip-rule="evenodd" d="M235.502 554.665C240.335 563.941 252.219 567.35 252.219 567.35C252.219 567.35 256.101 555.696 251.268 546.421C246.356 537.066 231.778 524.303 231.778 524.303C231.778 524.303 230.59 545.39 235.502 554.665Z" fill="#FFE455"/>
<path fill-rule="evenodd" clip-rule="evenodd" d="M274.562 583.918C282.881 577.497 295.003 579.32 295.003 579.32C295.003 579.32 293.735 591.529 285.416 597.95C277.097 604.371 258.478 610 258.478 610C258.478 610 266.243 590.419 274.562 583.918Z" fill="#FFE455"/>
<path fill-rule="evenodd" clip-rule="evenodd" d="M276.86 565.923C283.277 574.247 295.479 575.515 295.479 575.515C295.479 575.515 297.301 563.306 290.883 555.062C284.466 546.738 267.827 536.67 267.827 536.67C267.827 536.67 270.442 557.599 276.86 565.923Z" fill="#FFE455"/>
<path fill-rule="evenodd" clip-rule="evenodd" d="M319.96 579.875C179.09 579.875 64.5247 465.242 64.5247 324.21C64.5247 208.784 142.249 107.311 253.487 77.3446L253.804 78.6923C143.12 108.5 65.8717 209.498 65.8717 324.289C65.8717 464.529 179.883 578.527 319.96 578.527V579.875Z" fill="#FFE455"/>
<path fill-rule="evenodd" clip-rule="evenodd" d="M370.826 65.3739C381.205 67.2766 387.939 77.5825 387.939 77.5825C387.939 77.5825 377.956 84.7966 367.577 82.8147C357.277 80.912 340.719 70.7647 340.719 70.7647C340.719 70.7647 360.526 63.4713 370.826 65.3739Z" fill="#FFE455"/>
<path fill-rule="evenodd" clip-rule="evenodd" d="M409.807 75.6006C413.768 85.3515 425.256 89.8702 425.256 89.8702C425.256 89.8702 430.248 78.6131 426.286 68.8621C422.246 59.1112 408.935 45 408.935 45C408.935 45 405.845 65.8496 409.807 75.6006Z" fill="#FFE455"/>
<path fill-rule="evenodd" clip-rule="evenodd" d="M402.755 92.4071C412.5 88.4433 423.751 93.3584 423.751 93.3584C423.751 93.3584 419.235 104.853 409.49 108.817C399.744 112.781 380.333 113.177 380.333 113.177C380.333 113.177 393.089 96.3709 402.755 92.4071Z" fill="#FFE455"/>
<path fill-rule="evenodd" clip-rule="evenodd" d="M451.481 95.0232C453.7 105.329 464.158 111.75 464.158 111.75C464.158 111.75 471.051 101.524 468.832 91.2972C466.614 81.0706 455.918 64.819 455.918 64.819C455.918 64.819 449.263 84.7966 451.481 95.0232Z" fill="#FFE455"/>
<path fill-rule="evenodd" clip-rule="evenodd" d="M441.657 110.323C451.877 108.104 462.098 115.001 462.098 115.001C462.098 115.001 455.68 125.465 445.381 127.764C435.081 129.984 415.907 127.051 415.907 127.051C415.907 127.051 431.436 112.543 441.657 110.323Z" fill="#FFE455"/>
<path fill-rule="evenodd" clip-rule="evenodd" d="M489.194 121.422C489.591 131.887 498.781 140.052 498.781 140.052C498.781 140.052 507.338 131.173 506.942 120.709C506.546 110.244 498.86 92.4071 498.86 92.4071C498.86 92.4071 488.798 110.958 489.194 121.422Z" fill="#FFE455"/>
<path fill-rule="evenodd" clip-rule="evenodd" d="M476.914 134.82C487.372 134.423 496.246 142.906 496.246 142.906C496.246 142.906 488.085 152.102 477.627 152.578C467.169 152.974 448.708 146.711 448.708 146.711C448.708 146.711 466.376 135.216 476.914 134.82Z" fill="#FFE455"/>
<path fill-rule="evenodd" clip-rule="evenodd" d="M521.758 154.005C520.332 164.39 528.017 174.061 528.017 174.061C528.017 174.061 537.92 166.847 539.347 156.383C540.773 145.998 536.257 127.051 536.257 127.051C536.257 127.051 523.184 143.619 521.758 154.005Z" fill="#FFE455"/>
<path fill-rule="evenodd" clip-rule="evenodd" d="M507.338 165.024C517.717 166.451 525.006 176.36 525.006 176.36C525.006 176.36 515.419 184.05 504.961 182.623C494.503 181.196 477.468 171.842 477.468 171.842C477.468 171.842 496.88 163.597 507.338 165.024Z" fill="#FFE455"/>
<path fill-rule="evenodd" clip-rule="evenodd" d="M548.141 191.74C544.972 201.729 550.835 212.51 550.835 212.51C550.835 212.51 561.927 207.119 565.096 197.131C568.265 187.063 567.156 167.719 567.156 167.719C567.156 167.719 551.31 181.751 548.141 191.74Z" fill="#FFE455"/>
<path fill-rule="evenodd" clip-rule="evenodd" d="M531.978 200.064C541.961 203.235 547.428 214.334 547.428 214.334C547.428 214.334 536.574 220.2 526.591 217.029C516.608 213.779 501.475 201.649 501.475 201.649C501.475 201.649 521.995 196.893 531.978 200.064Z" fill="#FFE455"/>
<path fill-rule="evenodd" clip-rule="evenodd" d="M567.552 233.439C562.719 242.794 566.602 254.368 566.602 254.368C566.602 254.368 578.407 250.959 583.319 241.684C588.231 232.408 590.45 213.144 590.45 213.144C590.45 213.144 572.465 224.164 567.552 233.439Z" fill="#FFE455"/>
<path fill-rule="evenodd" clip-rule="evenodd" d="M550.28 238.83C559.55 243.666 562.957 255.557 562.957 255.557C562.957 255.557 551.31 259.521 542.04 254.606C532.771 249.691 519.935 235.104 519.935 235.104C519.935 235.104 541.01 233.994 550.28 238.83Z" fill="#FFE455"/>
<path fill-rule="evenodd" clip-rule="evenodd" d="M579.516 277.913C573.098 286.237 574.921 298.366 574.921 298.366C574.921 298.366 587.122 297.098 593.54 288.774C599.957 280.45 605.582 261.82 605.582 261.82C605.582 261.82 585.934 269.589 579.516 277.913Z" fill="#FFE455"/>
<path fill-rule="evenodd" clip-rule="evenodd" d="M561.531 280.212C569.85 286.633 571.118 298.921 571.118 298.921C571.118 298.921 558.916 300.744 550.597 294.323C542.278 287.902 532.216 271.254 532.216 271.254C532.216 271.254 553.212 273.791 561.531 280.212Z" fill="#FFE455"/>
<path fill-rule="evenodd" clip-rule="evenodd" d="M583.557 323.814C575.792 330.869 575.475 343.157 575.475 343.157C575.475 343.157 587.756 344.029 595.52 336.894C603.285 329.839 612 312.477 612 312.477C612 312.477 591.321 316.679 583.557 323.814Z" fill="#FFE455"/>
<path fill-rule="evenodd" clip-rule="evenodd" d="M565.413 322.942C572.465 330.711 571.593 342.999 571.593 342.999C571.593 342.999 559.312 342.681 552.261 334.912C545.21 327.143 538.158 308.989 538.158 308.989C538.158 308.989 558.362 315.173 565.413 322.942Z" fill="#FFE455"/>
<path fill-rule="evenodd" clip-rule="evenodd" d="M579.516 369.635C570.642 375.264 568.186 387.314 568.186 387.314C568.186 387.314 580.15 390.247 589.023 384.618C597.897 378.99 609.544 363.452 609.544 363.452C609.544 363.452 588.39 364.086 579.516 369.635Z" fill="#FFE455"/>
<path fill-rule="evenodd" clip-rule="evenodd" d="M561.769 365.671C567.394 374.55 564.462 386.442 564.462 386.442C564.462 386.442 552.42 383.984 546.794 375.105C541.169 366.226 537.366 347.2 537.366 347.2C537.366 347.2 556.223 356.793 561.769 365.671Z" fill="#FFE455"/>
<path fill-rule="evenodd" clip-rule="evenodd" d="M567.632 414.109C557.966 418.073 553.449 429.568 553.449 429.568C553.449 429.568 564.7 434.562 574.445 430.519C584.19 426.555 598.293 413.237 598.293 413.237C598.293 413.237 577.377 410.145 567.632 414.109Z" fill="#FFE455"/>
<path fill-rule="evenodd" clip-rule="evenodd" d="M550.914 407.133C554.876 416.884 549.884 428.141 549.884 428.141C549.884 428.141 538.396 423.622 534.434 413.871C530.473 404.12 529.998 384.698 529.998 384.698C529.998 384.698 546.953 397.382 550.914 407.133Z" fill="#FFE455"/>
<path fill-rule="evenodd" clip-rule="evenodd" d="M548.22 455.888C538 458.107 531.503 468.651 531.503 468.651C531.503 468.651 541.724 475.548 552.023 473.328C562.244 471.108 578.486 460.406 578.486 460.406C578.486 460.406 558.441 453.668 548.22 455.888Z" fill="#FFE455"/>
<path fill-rule="evenodd" clip-rule="evenodd" d="M532.929 446.057C535.147 456.284 528.255 466.51 528.255 466.51C528.255 466.51 517.796 460.089 515.578 449.783C513.28 439.477 516.291 420.293 516.291 420.293C516.291 420.293 530.631 435.751 532.929 446.057Z" fill="#FFE455"/>
<path fill-rule="evenodd" clip-rule="evenodd" d="M521.837 493.623C511.379 494.019 503.139 503.215 503.139 503.215C503.139 503.215 512.012 511.777 522.55 511.381C533.008 510.984 550.835 503.295 550.835 503.295C550.835 503.295 532.295 493.147 521.837 493.623Z" fill="#FFE455"/>
<path fill-rule="evenodd" clip-rule="evenodd" d="M508.447 481.256C508.843 491.72 500.287 500.599 500.287 500.599C500.287 500.599 491.096 492.434 490.621 481.969C490.224 471.426 496.404 453.034 496.404 453.034C496.404 453.034 508.051 470.791 508.447 481.256Z" fill="#FFE455"/>
<path fill-rule="evenodd" clip-rule="evenodd" d="M489.274 526.205C478.815 524.778 469.229 532.389 469.229 532.389C469.229 532.389 476.439 542.378 486.897 543.805C497.276 545.152 516.212 540.713 516.212 540.713C516.212 540.713 499.653 527.553 489.274 526.205Z" fill="#FFE455"/>
<path fill-rule="evenodd" clip-rule="evenodd" d="M478.261 511.698C476.835 522.162 466.931 529.376 466.931 529.376C466.931 529.376 459.246 519.705 460.672 509.32C462.098 498.934 471.447 481.89 471.447 481.89C471.447 481.89 479.687 501.233 478.261 511.698Z" fill="#FFE455"/>
<path fill-rule="evenodd" clip-rule="evenodd" d="M451.56 552.604C441.578 549.354 430.723 555.3 430.723 555.3C430.723 555.3 436.111 566.319 446.173 569.569C456.156 572.82 475.567 571.63 475.567 571.63C475.567 571.63 461.623 555.775 451.56 552.604Z" fill="#FFE455"/>
<path fill-rule="evenodd" clip-rule="evenodd" d="M443.241 536.432C439.993 546.421 428.98 551.811 428.98 551.811C428.98 551.811 423.117 540.951 426.286 530.962C429.455 520.973 441.657 505.831 441.657 505.831C441.657 505.831 446.49 526.443 443.241 536.432Z" fill="#FFE455"/>
<path fill-rule="evenodd" clip-rule="evenodd" d="M409.886 572.027C400.616 567.112 388.89 571.076 388.89 571.076C388.89 571.076 392.297 582.888 401.567 587.803C410.916 592.718 430.169 595.017 430.169 595.017C430.169 595.017 419.156 576.942 409.886 572.027Z" fill="#FFE455"/>
<path fill-rule="evenodd" clip-rule="evenodd" d="M404.498 554.665C399.586 563.941 387.781 567.35 387.781 567.35C387.781 567.35 383.898 555.696 388.731 546.421C393.644 537.066 408.222 524.303 408.222 524.303C408.222 524.303 409.41 545.39 404.498 554.665Z" fill="#FFE455"/>
<path fill-rule="evenodd" clip-rule="evenodd" d="M365.438 583.918C357.119 577.497 344.997 579.32 344.997 579.32C344.997 579.32 346.265 591.529 354.584 597.95C362.903 604.371 381.442 610 381.442 610C381.442 610 373.757 590.419 365.438 583.918Z" fill="#FFE455"/>
<path fill-rule="evenodd" clip-rule="evenodd" d="M363.14 565.923C356.723 574.247 344.442 575.515 344.442 575.515C344.442 575.515 342.62 563.306 349.038 555.062C355.455 546.738 372.093 536.67 372.093 536.67C372.093 536.67 369.558 557.599 363.14 565.923Z" fill="#FFE455"/>
<path fill-rule="evenodd" clip-rule="evenodd" d="M319.96 579.875V578.528C460.038 578.528 574.049 464.449 574.049 324.289C574.049 209.498 496.721 108.5 386.038 78.7716L386.434 77.4239C497.751 107.311 575.475 208.864 575.475 324.289C575.475 465.242 460.83 579.875 319.96 579.875Z" fill="#FFE455"/>
</g>
<defs>
<linearGradient id="paint0_linear_94_3" x1="666.737" y1="0.00144646" x2="-22.9371" y2="5.55874" gradientUnits="userSpaceOnUse">
<stop stop-color="#FFD600"/>
<stop offset="1" stop-color="#FFAD00"/>
</linearGradient>
<clipPath id="clip0_94_3">
<rect width="584" height="565" fill="white" transform="translate(28 45)"/>
</clipPath>
</defs>
</svg>
