<svg width="398" height="426" viewBox="0 0 398 426" fill="none" xmlns="http://www.w3.org/2000/svg">
<path d="M121 285.5C123.761 285.5 126 287.739 126 290.5L126 385.5L6 385.5L6.00001 290.5C6.00001 287.739 8.23859 285.5 11 285.5L121 285.5Z" fill="url(#paint0_linear_13_400)"/>
<path d="M4.64955 229.186C1.99075 229.932 0.439991 232.692 1.18583 235.35C1.93166 238.009 4.69166 239.56 7.35045 238.814L4.64955 229.186ZM398 0L341.866 13.5001L381.624 55.3639L398 0ZM6 234C7.35045 238.814 7.35133 238.814 7.3527 238.814C7.35381 238.813 7.35568 238.813 7.35791 238.812C7.36237 238.811 7.36881 238.809 7.37721 238.807C7.394 238.802 7.41865 238.795 7.45105 238.786C7.51586 238.768 7.6117 238.741 7.73788 238.705C7.99024 238.633 8.36395 238.527 8.85336 238.387C9.83218 238.107 11.2739 237.691 13.1334 237.147C16.8522 236.06 22.2428 234.459 28.944 232.402C42.3446 228.288 60.9962 222.346 82.008 215.033C123.948 200.435 175.606 180.265 213.635 158.151L208.608 149.506C171.447 171.116 120.544 191.032 78.7208 205.589C57.8511 212.852 39.3204 218.756 26.0092 222.842C19.3546 224.885 14.0068 226.473 10.3263 227.55C8.48613 228.088 7.06292 228.498 6.10173 228.773C5.62114 228.911 5.25607 229.014 5.01216 229.083C4.89021 229.118 4.79854 229.144 4.73787 229.161C4.70753 229.17 4.68495 229.176 4.6702 229.18C4.66282 229.182 4.65741 229.184 4.65396 229.185C4.65224 229.185 4.65114 229.185 4.65027 229.186C4.64966 229.186 4.64955 229.186 6 234ZM213.635 158.151C263.924 128.907 330.021 70.554 368.766 34.6592L361.97 27.3234C323.146 63.2908 257.806 120.897 208.608 149.506L213.635 158.151Z" fill="url(#paint1_linear_13_400)"/>
<path d="M257 246.5C259.761 246.5 262 248.739 262 251.5L262 385.5L142 385.5L142 251.5C142 248.739 144.239 246.5 147 246.5L257 246.5Z" fill="url(#paint2_linear_13_400)"/>
<path d="M393 187.5C395.761 187.5 398 189.739 398 192.5L398 385.5L278 385.5L278 192.5C278 189.739 280.239 187.5 283 187.5L393 187.5Z" fill="url(#paint3_linear_13_400)"/>
<path d="M126 355.5L126 385.5L6 385.5L6 355.5L126 355.5Z" fill="#343434"/>
<path d="M262 355.5L262 385.5L142 385.5L142 355.5L262 355.5Z" fill="#343434"/>
<path d="M398 355.5L398 385.5L278 385.5L278 355.5L398 355.5Z" fill="#343434"/>
<path d="M52.8755 364.56C54.2382 364.56 55.2322 364.812 55.8575 365.316C56.4922 365.811 56.8095 366.613 56.8095 367.724C56.8095 368.461 56.6602 369.049 56.3615 369.488C56.0628 369.927 55.5962 370.244 54.9615 370.44L51.9095 371.378C51.6482 371.453 51.4615 371.569 51.3495 371.728C51.2375 371.877 51.1815 372.097 51.1815 372.386V372.54H56.7255V374.5H49.0815V372.624C49.0815 371 49.6975 370.001 50.9295 369.628L54.0235 368.676C54.4808 368.536 54.7095 368.233 54.7095 367.766C54.7095 367.337 54.5555 367.024 54.2475 366.828C53.9488 366.623 53.4728 366.52 52.8195 366.52C51.6062 366.52 50.9995 366.917 50.9995 367.71H48.8995C48.8995 366.609 49.2168 365.811 49.8515 365.316C50.4862 364.812 51.4942 364.56 52.8755 364.56ZM62.2679 364.56C63.8172 364.56 64.9372 364.961 65.6279 365.764C66.3279 366.557 66.6779 367.836 66.6779 369.6C66.6779 371.364 66.3279 372.647 65.6279 373.45C64.9372 374.243 63.8172 374.64 62.2679 374.64C60.7279 374.64 59.6079 374.243 58.9079 373.45C58.2079 372.647 57.8579 371.364 57.8579 369.6C57.8579 367.836 58.2079 366.557 58.9079 365.764C59.6079 364.961 60.7279 364.56 62.2679 364.56ZM59.9579 369.6C59.9579 370.664 60.1445 371.443 60.5179 371.938C60.8912 372.433 61.4745 372.68 62.2679 372.68C63.0892 372.68 63.6772 372.437 64.0319 371.952C64.3959 371.467 64.5779 370.683 64.5779 369.6C64.5779 368.508 64.3959 367.724 64.0319 367.248C63.6772 366.763 63.0892 366.52 62.2679 366.52C61.4745 366.52 60.8912 366.767 60.5179 367.262C60.1445 367.747 59.9579 368.527 59.9579 369.6ZM67.5873 367.15L71.5213 364.7H72.9493V374.5H70.8493V367.472L68.7353 368.858L67.5873 367.15ZM74.77 371.63V368.382C74.77 367.047 75.0873 366.077 75.722 365.47C76.366 364.863 77.3926 364.56 78.802 364.56C80.2113 364.56 81.2333 364.803 81.868 365.288C82.5026 365.773 82.82 366.557 82.82 367.64H80.72C80.72 367.248 80.5706 366.963 80.272 366.786C79.9733 366.609 79.4833 366.52 78.802 366.52C78.1206 366.52 77.626 366.66 77.318 366.94C77.0193 367.22 76.87 367.677 76.87 368.312V368.704C77.206 368.368 77.8873 368.2 78.914 368.2C80.3886 368.2 81.4526 368.457 82.106 368.97C82.7686 369.474 83.1 370.291 83.1 371.42C83.1 372.54 82.7686 373.357 82.106 373.87C81.4526 374.383 80.398 374.64 78.942 374.64C77.4766 374.64 76.4126 374.402 75.75 373.926C75.0966 373.45 74.77 372.685 74.77 371.63ZM76.87 371.42C76.87 371.859 77.0333 372.181 77.36 372.386C77.6866 372.582 78.214 372.68 78.942 372.68C79.6606 372.68 80.1833 372.582 80.51 372.386C80.8366 372.181 81 371.859 81 371.42C81 370.972 80.8366 370.65 80.51 370.454C80.1926 370.258 79.67 370.16 78.942 370.16C78.2046 370.16 77.6726 370.258 77.346 370.454C77.0286 370.65 76.87 370.972 76.87 371.42Z" fill="#FFAD00"/>
<path d="M18.7797 262.15L22.7137 259.7H24.1417V269.5H22.0417V262.472L19.9277 263.858L18.7797 262.15ZM29.7983 259.56C31.161 259.56 32.155 259.812 32.7803 260.316C33.415 260.811 33.7323 261.613 33.7323 262.724C33.7323 263.461 33.583 264.049 33.2843 264.488C32.9857 264.927 32.519 265.244 31.8843 265.44L28.8323 266.378C28.571 266.453 28.3843 266.569 28.2723 266.728C28.1603 266.877 28.1043 267.097 28.1043 267.386V267.54H33.6483V269.5H26.0043V267.624C26.0043 266 26.6203 265.001 27.8523 264.628L30.9463 263.676C31.4037 263.536 31.6323 263.233 31.6323 262.766C31.6323 262.337 31.4783 262.024 31.1703 261.828C30.8717 261.623 30.3957 261.52 29.7423 261.52C28.529 261.52 27.9223 261.917 27.9223 262.71H25.8223C25.8223 261.609 26.1397 260.811 26.7743 260.316C27.409 259.812 28.417 259.56 29.7983 259.56ZM42.8274 259.56C44.3768 259.56 45.4968 259.961 46.1874 260.764C46.8874 261.557 47.2374 262.836 47.2374 264.6C47.2374 266.364 46.8874 267.647 46.1874 268.45C45.4968 269.243 44.3768 269.64 42.8274 269.64C41.2874 269.64 40.1674 269.243 39.4674 268.45C38.7674 267.647 38.4174 266.364 38.4174 264.6C38.4174 262.836 38.7674 261.557 39.4674 260.764C40.1674 259.961 41.2874 259.56 42.8274 259.56ZM40.5174 264.6C40.5174 265.664 40.7041 266.443 41.0774 266.938C41.4508 267.433 42.0341 267.68 42.8274 267.68C43.6488 267.68 44.2368 267.437 44.5914 266.952C44.9554 266.467 45.1374 265.683 45.1374 264.6C45.1374 263.508 44.9554 262.724 44.5914 262.248C44.2368 261.763 43.6488 261.52 42.8274 261.52C42.0341 261.52 41.4508 261.767 41.0774 262.262C40.7041 262.747 40.5174 263.527 40.5174 264.6ZM52.7669 259.56C54.3162 259.56 55.4362 259.961 56.1269 260.764C56.8269 261.557 57.1769 262.836 57.1769 264.6C57.1769 266.364 56.8269 267.647 56.1269 268.45C55.4362 269.243 54.3162 269.64 52.7669 269.64C51.2269 269.64 50.1069 269.243 49.4069 268.45C48.7069 267.647 48.3569 266.364 48.3569 264.6C48.3569 262.836 48.7069 261.557 49.4069 260.764C50.1069 259.961 51.2269 259.56 52.7669 259.56ZM50.4569 264.6C50.4569 265.664 50.6435 266.443 51.0169 266.938C51.3902 267.433 51.9735 267.68 52.7669 267.68C53.5882 267.68 54.1762 267.437 54.5309 266.952C54.8949 266.467 55.0769 265.683 55.0769 264.6C55.0769 263.508 54.8949 262.724 54.5309 262.248C54.1762 261.763 53.5882 261.52 52.7669 261.52C51.9735 261.52 51.3902 261.767 51.0169 262.262C50.6435 262.747 50.4569 263.527 50.4569 264.6ZM62.7063 259.56C64.2557 259.56 65.3757 259.961 66.0663 260.764C66.7663 261.557 67.1163 262.836 67.1163 264.6C67.1163 266.364 66.7663 267.647 66.0663 268.45C65.3757 269.243 64.2557 269.64 62.7063 269.64C61.1663 269.64 60.0463 269.243 59.3463 268.45C58.6463 267.647 58.2963 266.364 58.2963 264.6C58.2963 262.836 58.6463 261.557 59.3463 260.764C60.0463 259.961 61.1663 259.56 62.7063 259.56ZM60.3963 264.6C60.3963 265.664 60.583 266.443 60.9563 266.938C61.3297 267.433 61.913 267.68 62.7063 267.68C63.5277 267.68 64.1157 267.437 64.4703 266.952C64.8343 266.467 65.0163 265.683 65.0163 264.6C65.0163 263.508 64.8343 262.724 64.4703 262.248C64.1157 261.763 63.5277 261.52 62.7063 261.52C61.913 261.52 61.3297 261.767 60.9563 262.262C60.583 262.747 60.3963 263.527 60.3963 264.6ZM76.2825 259.56C77.8318 259.56 78.9518 259.961 79.6425 260.764C80.3425 261.557 80.6925 262.836 80.6925 264.6C80.6925 266.364 80.3425 267.647 79.6425 268.45C78.9518 269.243 77.8318 269.64 76.2825 269.64C74.7425 269.64 73.6225 269.243 72.9225 268.45C72.2225 267.647 71.8725 266.364 71.8725 264.6C71.8725 262.836 72.2225 261.557 72.9225 260.764C73.6225 259.961 74.7425 259.56 76.2825 259.56ZM73.9725 264.6C73.9725 265.664 74.1592 266.443 74.5325 266.938C74.9058 267.433 75.4892 267.68 76.2825 267.68C77.1038 267.68 77.6918 267.437 78.0465 266.952C78.4105 266.467 78.5925 265.683 78.5925 264.6C78.5925 263.508 78.4105 262.724 78.0465 262.248C77.6918 261.763 77.1038 261.52 76.2825 261.52C75.4892 261.52 74.9058 261.767 74.5325 262.262C74.1592 262.747 73.9725 263.527 73.9725 264.6ZM86.222 259.56C87.7713 259.56 88.8913 259.961 89.582 260.764C90.282 261.557 90.632 262.836 90.632 264.6C90.632 266.364 90.282 267.647 89.582 268.45C88.8913 269.243 87.7713 269.64 86.222 269.64C84.682 269.64 83.562 269.243 82.862 268.45C82.162 267.647 81.812 266.364 81.812 264.6C81.812 262.836 82.162 261.557 82.862 260.764C83.562 259.961 84.682 259.56 86.222 259.56ZM83.912 264.6C83.912 265.664 84.0986 266.443 84.472 266.938C84.8453 267.433 85.4286 267.68 86.222 267.68C87.0433 267.68 87.6313 267.437 87.986 266.952C88.35 266.467 88.532 265.683 88.532 264.6C88.532 263.508 88.35 262.724 87.986 262.248C87.6313 261.763 87.0433 261.52 86.222 261.52C85.4286 261.52 84.8453 261.767 84.472 262.262C84.0986 262.747 83.912 263.527 83.912 264.6ZM96.1614 259.56C97.7107 259.56 98.8307 259.961 99.5214 260.764C100.221 261.557 100.571 262.836 100.571 264.6C100.571 266.364 100.221 267.647 99.5214 268.45C98.8307 269.243 97.7107 269.64 96.1614 269.64C94.6214 269.64 93.5014 269.243 92.8014 268.45C92.1014 267.647 91.7514 266.364 91.7514 264.6C91.7514 262.836 92.1014 261.557 92.8014 260.764C93.5014 259.961 94.6214 259.56 96.1614 259.56ZM93.8514 264.6C93.8514 265.664 94.0381 266.443 94.4114 266.938C94.7847 267.433 95.3681 267.68 96.1614 267.68C96.9827 267.68 97.5707 267.437 97.9254 266.952C98.2894 266.467 98.4714 265.683 98.4714 264.6C98.4714 263.508 98.2894 262.724 97.9254 262.248C97.5707 261.763 96.9827 261.52 96.1614 261.52C95.3681 261.52 94.7847 261.767 94.4114 262.262C94.0381 262.747 93.8514 263.527 93.8514 264.6ZM105.608 269.5V259.7H110.648C111.87 259.7 112.757 259.966 113.308 260.498C113.868 261.03 114.148 261.884 114.148 263.06C114.148 264.236 113.868 265.09 113.308 265.622C112.757 266.154 111.87 266.42 110.648 266.42H107.848V269.5H105.608ZM107.848 264.32H110.508C110.993 264.32 111.348 264.222 111.572 264.026C111.796 263.821 111.908 263.499 111.908 263.06C111.908 262.621 111.796 262.304 111.572 262.108C111.348 261.903 110.993 261.8 110.508 261.8H107.848V264.32Z" fill="#FFD600"/>
<rect x="6" y="395.5" width="392" height="30" fill="white"/>
<path d="M110.68 415.5H103.96V404.3H110.36C111.651 404.3 112.584 404.545 113.16 405.036C113.747 405.516 114.04 406.284 114.04 407.34C114.04 408.439 113.709 409.228 113.048 409.708C113.923 410.167 114.36 411.057 114.36 412.38C114.36 413.468 114.067 414.263 113.48 414.764C112.904 415.255 111.971 415.5 110.68 415.5ZM106.52 413.1H110.68C111.128 413.1 111.453 413.015 111.656 412.844C111.859 412.663 111.96 412.385 111.96 412.012C111.96 411.639 111.859 411.367 111.656 411.196C111.453 411.025 111.128 410.94 110.68 410.94H106.52V413.1ZM106.52 408.7H110.28C110.749 408.7 111.091 408.62 111.304 408.46C111.528 408.3 111.64 408.044 111.64 407.692C111.64 407.351 111.539 407.1 111.336 406.94C111.133 406.78 110.808 406.7 110.36 406.7H106.52V408.7ZM115.882 404.3H118.442V407.98H121.642C123.039 407.98 124.053 408.279 124.682 408.876C125.322 409.463 125.642 410.417 125.642 411.74C125.642 413.052 125.322 414.007 124.682 414.604C124.053 415.201 123.039 415.5 121.642 415.5H115.882V404.3ZM126.922 415.5V404.3H129.482V415.5H126.922ZM121.482 410.38H118.442V413.1H121.482C122.037 413.1 122.442 412.993 122.698 412.78C122.954 412.556 123.082 412.209 123.082 411.74C123.082 411.26 122.954 410.913 122.698 410.7C122.453 410.487 122.047 410.38 121.482 410.38ZM131.398 415.5V404.3H137.158C138.555 404.3 139.568 404.604 140.198 405.212C140.838 405.82 141.158 406.796 141.158 408.14C141.158 409.484 140.838 410.46 140.198 411.068C139.568 411.676 138.555 411.98 137.158 411.98H133.958V415.5H131.398ZM133.958 409.58H136.998C137.552 409.58 137.958 409.468 138.214 409.244C138.47 409.009 138.598 408.641 138.598 408.14C138.598 407.639 138.47 407.276 138.214 407.052C137.958 406.817 137.552 406.7 136.998 406.7H133.958V409.58ZM146.592 412.764L141.568 404.3H144.464L147.968 410.38L151.088 404.3H153.888L149.36 412.876C148.869 413.793 148.288 414.46 147.616 414.876C146.944 415.292 146.101 415.5 145.088 415.5H143.808V413.468H144.896C145.589 413.468 146.155 413.233 146.592 412.764ZM159.773 411.772C157.938 411.772 156.632 411.447 155.853 410.796C155.074 410.145 154.685 409.084 154.685 407.612V404.3H157.245V407.388C157.245 408.103 157.432 408.615 157.805 408.924C158.189 409.223 158.85 409.372 159.789 409.372C160.525 409.372 161.437 409.303 162.525 409.164V404.3H165.085V415.5H162.525V411.58C161.448 411.708 160.53 411.772 159.773 411.772ZM167.007 415.5V404.3H169.567V408.556H171.087L174.399 404.3H177.503L173.247 409.724L177.871 415.5H174.687L171.103 410.956H169.567V415.5H167.007ZM181.069 415.5H178.349L183.309 404.3H186.173L191.133 415.5H188.413L187.597 413.628H181.885L181.069 415.5ZM184.749 407.02L182.925 411.228H186.573L184.749 407.02ZM197.531 414.3C196.625 413.383 196.171 411.916 196.171 409.9C196.171 407.884 196.625 406.423 197.531 405.516C198.449 404.599 199.915 404.14 201.931 404.14C203.691 404.14 205.025 404.487 205.931 405.18C206.849 405.863 207.409 406.956 207.611 408.46H204.971C204.79 407.799 204.454 407.313 203.963 407.004C203.473 406.695 202.795 406.54 201.931 406.54C200.811 406.54 199.995 406.807 199.483 407.34C198.982 407.873 198.731 408.727 198.731 409.9C198.731 411.073 198.982 411.927 199.483 412.46C199.995 412.993 200.811 413.26 201.931 413.26C202.795 413.26 203.473 413.105 203.963 412.796C204.454 412.487 204.79 412.001 204.971 411.34H207.611C207.409 412.844 206.849 413.943 205.931 414.636C205.025 415.319 203.691 415.66 201.931 415.66C199.915 415.66 198.449 415.207 197.531 414.3ZM218.618 415.5H209.21V404.3H218.618V406.7H211.77V408.78H217.818V411.02H211.77V413.1H218.618V415.5ZM230.624 406.7H226.464V415.5H223.904V406.7H219.744V404.3H230.624V406.7ZM231.991 415.5V404.3H234.551V411.724L240.631 404.3H243.191V415.5H240.631V408.076L234.551 415.5H231.991ZM255.993 415.5H249.273V404.3H255.673C256.963 404.3 257.897 404.545 258.473 405.036C259.059 405.516 259.353 406.284 259.353 407.34C259.353 408.439 259.022 409.228 258.361 409.708C259.235 410.167 259.673 411.057 259.673 412.38C259.673 413.468 259.379 414.263 258.793 414.764C258.217 415.255 257.283 415.5 255.993 415.5ZM251.833 413.1H255.993C256.441 413.1 256.766 413.015 256.969 412.844C257.171 412.663 257.273 412.385 257.273 412.012C257.273 411.639 257.171 411.367 256.969 411.196C256.766 411.025 256.441 410.94 255.993 410.94H251.833V413.1ZM251.833 408.7H255.593C256.062 408.7 256.403 408.62 256.617 408.46C256.841 408.3 256.953 408.044 256.953 407.692C256.953 407.351 256.851 407.1 256.649 406.94C256.446 406.78 256.121 406.7 255.673 406.7H251.833V408.7ZM265.351 415.5V404.3H273.591V406.7H267.911V415.5H265.351ZM275.5 405.516C276.417 404.599 277.884 404.14 279.9 404.14C281.916 404.14 283.377 404.599 284.284 405.516C285.201 406.423 285.66 407.884 285.66 409.9C285.66 411.916 285.201 413.383 284.284 414.3C283.377 415.207 281.916 415.66 279.9 415.66C277.884 415.66 276.417 415.207 275.5 414.3C274.593 413.383 274.14 411.916 274.14 409.9C274.14 407.884 274.593 406.423 275.5 405.516ZM277.452 407.34C276.951 407.873 276.7 408.727 276.7 409.9C276.7 411.073 276.951 411.927 277.452 412.46C277.964 412.993 278.78 413.26 279.9 413.26C281.02 413.26 281.831 412.993 282.332 412.46C282.844 411.927 283.1 411.073 283.1 409.9C283.1 408.727 282.844 407.873 282.332 407.34C281.831 406.807 281.02 406.54 279.9 406.54C278.78 406.54 277.964 406.807 277.452 407.34ZM286.136 418.06V413.1H287.656C287.838 412.929 287.987 412.7 288.104 412.412C288.222 412.124 288.35 411.511 288.488 410.572C288.638 409.623 288.75 408.364 288.824 406.796L288.952 404.3H297.8V413.1H299.56V418.06H297V415.5H288.696V418.06H286.136ZM290.344 413.1H295.24V406.7H291.352L291.336 406.94C291.198 409.841 290.867 411.895 290.344 413.1Z" fill="#343434"/>
<path d="M188.444 364.56C189.807 364.56 190.801 364.812 191.426 365.316C192.061 365.811 192.378 366.613 192.378 367.724C192.378 368.461 192.229 369.049 191.93 369.488C191.631 369.927 191.165 370.244 190.53 370.44L187.478 371.378C187.217 371.453 187.03 371.569 186.918 371.728C186.806 371.877 186.75 372.097 186.75 372.386V372.54H192.294V374.5H184.65V372.624C184.65 371 185.266 370.001 186.498 369.628L189.592 368.676C190.049 368.536 190.278 368.233 190.278 367.766C190.278 367.337 190.124 367.024 189.816 366.828C189.517 366.623 189.041 366.52 188.388 366.52C187.175 366.52 186.568 366.917 186.568 367.71H184.468C184.468 366.609 184.785 365.811 185.42 365.316C186.055 364.812 187.063 364.56 188.444 364.56ZM197.836 364.56C199.386 364.56 200.506 364.961 201.196 365.764C201.896 366.557 202.246 367.836 202.246 369.6C202.246 371.364 201.896 372.647 201.196 373.45C200.506 374.243 199.386 374.64 197.836 374.64C196.296 374.64 195.176 374.243 194.476 373.45C193.776 372.647 193.426 371.364 193.426 369.6C193.426 367.836 193.776 366.557 194.476 365.764C195.176 364.961 196.296 364.56 197.836 364.56ZM195.526 369.6C195.526 370.664 195.713 371.443 196.086 371.938C196.46 372.433 197.043 372.68 197.836 372.68C198.658 372.68 199.246 372.437 199.6 371.952C199.964 371.467 200.146 370.683 200.146 369.6C200.146 368.508 199.964 367.724 199.6 367.248C199.246 366.763 198.658 366.52 197.836 366.52C197.043 366.52 196.46 366.767 196.086 367.262C195.713 367.747 195.526 368.527 195.526 369.6ZM203.156 367.15L207.09 364.7H208.518V374.5H206.418V367.472L204.304 368.858L203.156 367.15ZM214.286 364.56C215.724 364.56 216.764 364.798 217.408 365.274C218.062 365.75 218.388 366.515 218.388 367.57V370.818C218.388 372.153 218.066 373.123 217.422 373.73C216.778 374.337 215.742 374.64 214.314 374.64C212.896 374.64 211.864 374.397 211.22 373.912C210.586 373.417 210.268 372.633 210.268 371.56H212.368C212.368 371.952 212.522 372.237 212.83 372.414C213.148 372.591 213.642 372.68 214.314 372.68C215.014 372.68 215.518 372.54 215.826 372.26C216.134 371.98 216.288 371.523 216.288 370.888V370.496C215.934 370.907 215.266 371.112 214.286 371.112C212.858 371.112 211.818 370.851 211.164 370.328C210.52 369.796 210.198 368.956 210.198 367.808C210.198 366.669 210.52 365.843 211.164 365.33C211.818 364.817 212.858 364.56 214.286 364.56ZM212.298 367.808C212.298 368.704 212.961 369.152 214.286 369.152C215.621 369.152 216.288 368.704 216.288 367.808C216.288 367.369 216.125 367.047 215.798 366.842C215.481 366.627 214.977 366.52 214.286 366.52C213.605 366.52 213.101 366.627 212.774 366.842C212.457 367.047 212.298 367.369 212.298 367.808Z" fill="#FFAD00"/>
<path d="M152.645 226.72L156.929 220.7H160.135V226.72H161.535V228.68H160.135V230.5H158.035V228.68H152.645V226.72ZM155.025 226.72H158.035V222.464L155.025 226.72ZM162.302 227.518H164.402C164.402 228.293 165.056 228.68 166.362 228.68C167.081 228.68 167.608 228.568 167.944 228.344C168.29 228.12 168.462 227.765 168.462 227.28C168.462 226.785 168.276 226.426 167.902 226.202C167.538 225.969 166.95 225.852 166.138 225.852C165.13 225.852 164.626 226.039 164.626 226.412H162.666V220.7H169.806V222.8H164.626V224.368C165.121 224.051 165.863 223.892 166.852 223.892C168.122 223.892 169.055 224.163 169.652 224.704C170.259 225.236 170.562 226.071 170.562 227.21C170.562 228.414 170.226 229.287 169.554 229.828C168.882 230.369 167.814 230.64 166.348 230.64C164.93 230.64 163.898 230.393 163.254 229.898C162.62 229.403 162.302 228.61 162.302 227.518ZM179.266 220.56C180.703 220.56 181.744 220.798 182.388 221.274C183.041 221.75 183.368 222.515 183.368 223.57V226.818C183.368 228.153 183.046 229.123 182.402 229.73C181.758 230.337 180.722 230.64 179.294 230.64C177.875 230.64 176.844 230.397 176.2 229.912C175.565 229.417 175.248 228.633 175.248 227.56H177.348C177.348 227.952 177.502 228.237 177.81 228.414C178.127 228.591 178.622 228.68 179.294 228.68C179.994 228.68 180.498 228.54 180.806 228.26C181.114 227.98 181.268 227.523 181.268 226.888V226.496C180.913 226.907 180.246 227.112 179.266 227.112C177.838 227.112 176.797 226.851 176.144 226.328C175.5 225.796 175.178 224.956 175.178 223.808C175.178 222.669 175.5 221.843 176.144 221.33C176.797 220.817 177.838 220.56 179.266 220.56ZM177.278 223.808C177.278 224.704 177.94 225.152 179.266 225.152C180.6 225.152 181.268 224.704 181.268 223.808C181.268 223.369 181.104 223.047 180.778 222.842C180.46 222.627 179.956 222.52 179.266 222.52C178.584 222.52 178.08 222.627 177.754 222.842C177.436 223.047 177.278 223.369 177.278 223.808ZM188.902 220.56C190.451 220.56 191.571 220.961 192.262 221.764C192.962 222.557 193.312 223.836 193.312 225.6C193.312 227.364 192.962 228.647 192.262 229.45C191.571 230.243 190.451 230.64 188.902 230.64C187.362 230.64 186.242 230.243 185.542 229.45C184.842 228.647 184.492 227.364 184.492 225.6C184.492 223.836 184.842 222.557 185.542 221.764C186.242 220.961 187.362 220.56 188.902 220.56ZM186.592 225.6C186.592 226.664 186.778 227.443 187.152 227.938C187.525 228.433 188.108 228.68 188.902 228.68C189.723 228.68 190.311 228.437 190.666 227.952C191.03 227.467 191.212 226.683 191.212 225.6C191.212 224.508 191.03 223.724 190.666 223.248C190.311 222.763 189.723 222.52 188.902 222.52C188.108 222.52 187.525 222.767 187.152 223.262C186.778 223.747 186.592 224.527 186.592 225.6ZM198.841 220.56C200.39 220.56 201.51 220.961 202.201 221.764C202.901 222.557 203.251 223.836 203.251 225.6C203.251 227.364 202.901 228.647 202.201 229.45C201.51 230.243 200.39 230.64 198.841 230.64C197.301 230.64 196.181 230.243 195.481 229.45C194.781 228.647 194.431 227.364 194.431 225.6C194.431 223.836 194.781 222.557 195.481 221.764C196.181 220.961 197.301 220.56 198.841 220.56ZM196.531 225.6C196.531 226.664 196.718 227.443 197.091 227.938C197.464 228.433 198.048 228.68 198.841 228.68C199.662 228.68 200.25 228.437 200.605 227.952C200.969 227.467 201.151 226.683 201.151 225.6C201.151 224.508 200.969 223.724 200.605 223.248C200.25 222.763 199.662 222.52 198.841 222.52C198.048 222.52 197.464 222.767 197.091 223.262C196.718 223.747 196.531 224.527 196.531 225.6ZM212.417 220.56C213.967 220.56 215.087 220.961 215.777 221.764C216.477 222.557 216.827 223.836 216.827 225.6C216.827 227.364 216.477 228.647 215.777 229.45C215.087 230.243 213.967 230.64 212.417 230.64C210.877 230.64 209.757 230.243 209.057 229.45C208.357 228.647 208.007 227.364 208.007 225.6C208.007 223.836 208.357 222.557 209.057 221.764C209.757 220.961 210.877 220.56 212.417 220.56ZM210.107 225.6C210.107 226.664 210.294 227.443 210.667 227.938C211.041 228.433 211.624 228.68 212.417 228.68C213.239 228.68 213.827 228.437 214.181 227.952C214.545 227.467 214.727 226.683 214.727 225.6C214.727 224.508 214.545 223.724 214.181 223.248C213.827 222.763 213.239 222.52 212.417 222.52C211.624 222.52 211.041 222.767 210.667 223.262C210.294 223.747 210.107 224.527 210.107 225.6ZM222.357 220.56C223.906 220.56 225.026 220.961 225.717 221.764C226.417 222.557 226.767 223.836 226.767 225.6C226.767 227.364 226.417 228.647 225.717 229.45C225.026 230.243 223.906 230.64 222.357 230.64C220.817 230.64 219.697 230.243 218.997 229.45C218.297 228.647 217.947 227.364 217.947 225.6C217.947 223.836 218.297 222.557 218.997 221.764C219.697 220.961 220.817 220.56 222.357 220.56ZM220.047 225.6C220.047 226.664 220.233 227.443 220.607 227.938C220.98 228.433 221.563 228.68 222.357 228.68C223.178 228.68 223.766 228.437 224.121 227.952C224.485 227.467 224.667 226.683 224.667 225.6C224.667 224.508 224.485 223.724 224.121 223.248C223.766 222.763 223.178 222.52 222.357 222.52C221.563 222.52 220.98 222.767 220.607 223.262C220.233 223.747 220.047 224.527 220.047 225.6ZM232.296 220.56C233.846 220.56 234.966 220.961 235.656 221.764C236.356 222.557 236.706 223.836 236.706 225.6C236.706 227.364 236.356 228.647 235.656 229.45C234.966 230.243 233.846 230.64 232.296 230.64C230.756 230.64 229.636 230.243 228.936 229.45C228.236 228.647 227.886 227.364 227.886 225.6C227.886 223.836 228.236 222.557 228.936 221.764C229.636 220.961 230.756 220.56 232.296 220.56ZM229.986 225.6C229.986 226.664 230.173 227.443 230.546 227.938C230.92 228.433 231.503 228.68 232.296 228.68C233.118 228.68 233.706 228.437 234.06 227.952C234.424 227.467 234.606 226.683 234.606 225.6C234.606 224.508 234.424 223.724 234.06 223.248C233.706 222.763 233.118 222.52 232.296 222.52C231.503 222.52 230.92 222.767 230.546 223.262C230.173 223.747 229.986 224.527 229.986 225.6ZM241.742 230.5V220.7H246.782C248.005 220.7 248.892 220.966 249.442 221.498C250.002 222.03 250.282 222.884 250.282 224.06C250.282 225.236 250.002 226.09 249.442 226.622C248.892 227.154 248.005 227.42 246.782 227.42H243.982V230.5H241.742ZM243.982 225.32H246.642C247.128 225.32 247.482 225.222 247.706 225.026C247.93 224.821 248.042 224.499 248.042 224.06C248.042 223.621 247.93 223.304 247.706 223.108C247.482 222.903 247.128 222.8 246.642 222.8H243.982V225.32Z" fill="#FFD600"/>
<path d="M323.699 364.56C325.061 364.56 326.055 364.812 326.681 365.316C327.315 365.811 327.633 366.613 327.633 367.724C327.633 368.461 327.483 369.049 327.185 369.488C326.886 369.927 326.419 370.244 325.785 370.44L322.733 371.378C322.471 371.453 322.285 371.569 322.173 371.728C322.061 371.877 322.005 372.097 322.005 372.386V372.54H327.549V374.5H319.905V372.624C319.905 371 320.521 370.001 321.753 369.628L324.847 368.676C325.304 368.536 325.533 368.233 325.533 367.766C325.533 367.337 325.379 367.024 325.071 366.828C324.772 366.623 324.296 366.52 323.643 366.52C322.429 366.52 321.823 366.917 321.823 367.71H319.723C319.723 366.609 320.04 365.811 320.675 365.316C321.309 364.812 322.317 364.56 323.699 364.56ZM333.091 364.56C334.64 364.56 335.76 364.961 336.451 365.764C337.151 366.557 337.501 367.836 337.501 369.6C337.501 371.364 337.151 372.647 336.451 373.45C335.76 374.243 334.64 374.64 333.091 374.64C331.551 374.64 330.431 374.243 329.731 373.45C329.031 372.647 328.681 371.364 328.681 369.6C328.681 367.836 329.031 366.557 329.731 365.764C330.431 364.961 331.551 364.56 333.091 364.56ZM330.781 369.6C330.781 370.664 330.968 371.443 331.341 371.938C331.714 372.433 332.298 372.68 333.091 372.68C333.912 372.68 334.5 372.437 334.855 371.952C335.219 371.467 335.401 370.683 335.401 369.6C335.401 368.508 335.219 367.724 334.855 367.248C334.5 366.763 333.912 366.52 333.091 366.52C332.298 366.52 331.714 366.767 331.341 367.262C330.968 367.747 330.781 368.527 330.781 369.6ZM342.457 364.56C343.819 364.56 344.813 364.812 345.439 365.316C346.073 365.811 346.391 366.613 346.391 367.724C346.391 368.461 346.241 369.049 345.943 369.488C345.644 369.927 345.177 370.244 344.543 370.44L341.491 371.378C341.229 371.453 341.043 371.569 340.931 371.728C340.819 371.877 340.763 372.097 340.763 372.386V372.54H346.307V374.5H338.663V372.624C338.663 371 339.279 370.001 340.511 369.628L343.605 368.676C344.062 368.536 344.291 368.233 344.291 367.766C344.291 367.337 344.137 367.024 343.829 366.828C343.53 366.623 343.054 366.52 342.401 366.52C341.187 366.52 340.581 366.917 340.581 367.71H338.481C338.481 366.609 338.798 365.811 339.433 365.316C340.067 364.812 341.075 364.56 342.457 364.56ZM351.275 364.56C352.638 364.56 353.632 364.812 354.257 365.316C354.892 365.811 355.209 366.613 355.209 367.724C355.209 368.461 355.06 369.049 354.761 369.488C354.462 369.927 353.996 370.244 353.361 370.44L350.309 371.378C350.048 371.453 349.861 371.569 349.749 371.728C349.637 371.877 349.581 372.097 349.581 372.386V372.54H355.125V374.5H347.481V372.624C347.481 371 348.097 370.001 349.329 369.628L352.423 368.676C352.88 368.536 353.109 368.233 353.109 367.766C353.109 367.337 352.955 367.024 352.647 366.828C352.348 366.623 351.872 366.52 351.219 366.52C350.006 366.52 349.399 366.917 349.399 367.71H347.299C347.299 366.609 347.616 365.811 348.251 365.316C348.886 364.812 349.894 364.56 351.275 364.56Z" fill="#FFAD00"/>
<path d="M289.207 163.66V161.7H297.047V163.66L292.133 171.5H289.739L294.653 163.66H289.207ZM297.817 168.63V165.382C297.817 164.047 298.134 163.077 298.769 162.47C299.413 161.863 300.44 161.56 301.849 161.56C303.258 161.56 304.28 161.803 304.915 162.288C305.55 162.773 305.867 163.557 305.867 164.64H303.767C303.767 164.248 303.618 163.963 303.319 163.786C303.02 163.609 302.53 163.52 301.849 163.52C301.168 163.52 300.673 163.66 300.365 163.94C300.066 164.22 299.917 164.677 299.917 165.312V165.704C300.253 165.368 300.934 165.2 301.961 165.2C303.436 165.2 304.5 165.457 305.153 165.97C305.816 166.474 306.147 167.291 306.147 168.42C306.147 169.54 305.816 170.357 305.153 170.87C304.5 171.383 303.445 171.64 301.989 171.64C300.524 171.64 299.46 171.402 298.797 170.926C298.144 170.45 297.817 169.685 297.817 168.63ZM299.917 168.42C299.917 168.859 300.08 169.181 300.407 169.386C300.734 169.582 301.261 169.68 301.989 169.68C302.708 169.68 303.23 169.582 303.557 169.386C303.884 169.181 304.047 168.859 304.047 168.42C304.047 167.972 303.884 167.65 303.557 167.454C303.24 167.258 302.717 167.16 301.989 167.16C301.252 167.16 300.72 167.258 300.393 167.454C300.076 167.65 299.917 167.972 299.917 168.42ZM310.554 167.72L314.838 161.7H318.044V167.72H319.444V169.68H318.044V171.5H315.944V169.68H310.554V167.72ZM312.934 167.72H315.944V163.464L312.934 167.72ZM320.001 167.72L324.285 161.7H327.491V167.72H328.891V169.68H327.491V171.5H325.391V169.68H320.001V167.72ZM322.381 167.72H325.391V163.464L322.381 167.72ZM334.069 161.56C335.618 161.56 336.738 161.961 337.429 162.764C338.129 163.557 338.479 164.836 338.479 166.6C338.479 168.364 338.129 169.647 337.429 170.45C336.738 171.243 335.618 171.64 334.069 171.64C332.529 171.64 331.409 171.243 330.709 170.45C330.009 169.647 329.659 168.364 329.659 166.6C329.659 164.836 330.009 163.557 330.709 162.764C331.409 161.961 332.529 161.56 334.069 161.56ZM331.759 166.6C331.759 167.664 331.945 168.443 332.319 168.938C332.692 169.433 333.275 169.68 334.069 169.68C334.89 169.68 335.478 169.437 335.833 168.952C336.197 168.467 336.379 167.683 336.379 166.6C336.379 165.508 336.197 164.724 335.833 164.248C335.478 163.763 334.89 163.52 334.069 163.52C333.275 163.52 332.692 163.767 332.319 164.262C331.945 164.747 331.759 165.527 331.759 166.6ZM347.645 161.56C349.194 161.56 350.314 161.961 351.005 162.764C351.705 163.557 352.055 164.836 352.055 166.6C352.055 168.364 351.705 169.647 351.005 170.45C350.314 171.243 349.194 171.64 347.645 171.64C346.105 171.64 344.985 171.243 344.285 170.45C343.585 169.647 343.235 168.364 343.235 166.6C343.235 164.836 343.585 163.557 344.285 162.764C344.985 161.961 346.105 161.56 347.645 161.56ZM345.335 166.6C345.335 167.664 345.521 168.443 345.895 168.938C346.268 169.433 346.851 169.68 347.645 169.68C348.466 169.68 349.054 169.437 349.409 168.952C349.773 168.467 349.955 167.683 349.955 166.6C349.955 165.508 349.773 164.724 349.409 164.248C349.054 163.763 348.466 163.52 347.645 163.52C346.851 163.52 346.268 163.767 345.895 164.262C345.521 164.747 345.335 165.527 345.335 166.6ZM357.584 161.56C359.134 161.56 360.254 161.961 360.944 162.764C361.644 163.557 361.994 164.836 361.994 166.6C361.994 168.364 361.644 169.647 360.944 170.45C360.254 171.243 359.134 171.64 357.584 171.64C356.044 171.64 354.924 171.243 354.224 170.45C353.524 169.647 353.174 168.364 353.174 166.6C353.174 164.836 353.524 163.557 354.224 162.764C354.924 161.961 356.044 161.56 357.584 161.56ZM355.274 166.6C355.274 167.664 355.461 168.443 355.834 168.938C356.208 169.433 356.791 169.68 357.584 169.68C358.406 169.68 358.994 169.437 359.348 168.952C359.712 168.467 359.894 167.683 359.894 166.6C359.894 165.508 359.712 164.724 359.348 164.248C358.994 163.763 358.406 163.52 357.584 163.52C356.791 163.52 356.208 163.767 355.834 164.262C355.461 164.747 355.274 165.527 355.274 166.6ZM367.524 161.56C369.073 161.56 370.193 161.961 370.884 162.764C371.584 163.557 371.934 164.836 371.934 166.6C371.934 168.364 371.584 169.647 370.884 170.45C370.193 171.243 369.073 171.64 367.524 171.64C365.984 171.64 364.864 171.243 364.164 170.45C363.464 169.647 363.114 168.364 363.114 166.6C363.114 164.836 363.464 163.557 364.164 162.764C364.864 161.961 365.984 161.56 367.524 161.56ZM365.214 166.6C365.214 167.664 365.4 168.443 365.774 168.938C366.147 169.433 366.73 169.68 367.524 169.68C368.345 169.68 368.933 169.437 369.288 168.952C369.652 168.467 369.834 167.683 369.834 166.6C369.834 165.508 369.652 164.724 369.288 164.248C368.933 163.763 368.345 163.52 367.524 163.52C366.73 163.52 366.147 163.767 365.774 164.262C365.4 164.747 365.214 165.527 365.214 166.6ZM376.97 171.5V161.7H382.01C383.233 161.7 384.119 161.966 384.67 162.498C385.23 163.03 385.51 163.884 385.51 165.06C385.51 166.236 385.23 167.09 384.67 167.622C384.119 168.154 383.233 168.42 382.01 168.42H379.21V171.5H376.97ZM379.21 166.32H381.87C382.355 166.32 382.71 166.222 382.934 166.026C383.158 165.821 383.27 165.499 383.27 165.06C383.27 164.621 383.158 164.304 382.934 164.108C382.71 163.903 382.355 163.8 381.87 163.8H379.21V166.32Z" fill="#FFE455"/>
<defs>
<linearGradient id="paint0_linear_13_400" x1="6.00001" y1="376.409" x2="45.7112" y2="258.467" gradientUnits="userSpaceOnUse">
<stop stop-color="#FFE455"/>
<stop offset="1" stop-color="#FFAD00"/>
</linearGradient>
<linearGradient id="paint1_linear_13_400" x1="414.377" y1="0.000528862" x2="-7.99945" y2="5.70202" gradientUnits="userSpaceOnUse">
<stop stop-color="#FFD600"/>
<stop offset="1" stop-color="#FFAD00"/>
</linearGradient>
<linearGradient id="paint2_linear_13_400" x1="142" y1="372.864" x2="212.075" y2="223.135" gradientUnits="userSpaceOnUse">
<stop stop-color="#FFE455"/>
<stop offset="1" stop-color="#FFAD00"/>
</linearGradient>
<linearGradient id="paint3_linear_13_400" x1="278" y1="367.5" x2="398" y2="187.5" gradientUnits="userSpaceOnUse">
<stop stop-color="#FFE455"/>
<stop offset="1" stop-color="#FFAD00"/>
</linearGradient>
</defs>
</svg>
