<?xml version="1.0" standalone="no"?>
<!DOCTYPE svg PUBLIC "-//W3C//DTD SVG 1.1//EN" "http://www.w3.org/Graphics/SVG/1.1/DTD/svg11.dtd" >
<svg xmlns="http://www.w3.org/2000/svg" xmlns:xlink="http://www.w3.org/1999/xlink" version="1.1">
<metadata></metadata>
<defs>
<font id="ruberoidextra_bold" horiz-adv-x="1372" >
<font-face units-per-em="2048" ascent="1522" descent="-526" />
<missing-glyph horiz-adv-x="532" />
<glyph unicode="&#xfb01;" horiz-adv-x="1320" d="M20 778v287h164v20q0 236 106.5 343.5t342.5 107.5h155v-287h-139q-82 0 -119.5 -39t-37.5 -125v-20h276v-287h-276v-778h-308v778h-164zM885 1356q0 94 43 137t137 43t137 -43t43 -137t-43 -137t-137 -43t-137 43t-43 137zM911 0v1065h308v-1065h-308z" />
<glyph unicode="&#xfb02;" horiz-adv-x="1320" d="M20 778v287h164v20q0 236 106.5 343.5t342.5 107.5h155v-287h-139q-82 0 -119.5 -39t-37.5 -125v-20h276v-287h-276v-778h-308v778h-164zM911 0v1536h308v-1536h-308z" />
<glyph horiz-adv-x="0" />
<glyph horiz-adv-x="0" />
<glyph unicode="&#xd;" horiz-adv-x="512" />
<glyph unicode=" "  horiz-adv-x="532" />
<glyph unicode="&#x09;" horiz-adv-x="532" />
<glyph unicode="&#xa0;" horiz-adv-x="532" />
<glyph unicode="!" horiz-adv-x="573" d="M82 184.5q0 106.5 49 155.5t155.5 49t156 -49t49.5 -155.5t-49.5 -155.5t-156 -49t-155.5 49t-49 155.5zM123 1434h328l-21 -922h-287z" />
<glyph unicode="&#x22;" horiz-adv-x="886" d="M102 1434h285l-20 -600h-244zM500 1434h284l-20 -600h-244z" />
<glyph unicode="#" horiz-adv-x="1443" d="M20 369l46 245h251l37 205h-252l45 246h252l66 369h276l-65 -369h225l66 369h276l-65 -369h245l-45 -246h-245l-37 -205h245l-45 -245h-245l-66 -369h-276l65 369h-225l-66 -369h-276l65 369h-252zM594 614h225l37 205h-225z" />
<glyph unicode="$" horiz-adv-x="1447" d="M72 449h338q33 -129 223 -154v285q-309 61 -425 156t-116 278q0 213 132 319.5t409 116.5v168h205v-172q238 -23 359.5 -132.5t148.5 -330.5h-342q-25 119 -166 147v-272q305 -66 421.5 -159t116.5 -273q0 -412 -538 -444v-166h-205v166q-266 16 -400 127t-161 340z M414 1032q0 -43 48 -72.5t171 -58.5v242q-219 -8 -219 -111zM838 289q217 14 217 114q0 45 -50.5 77t-166.5 59v-250z" />
<glyph unicode="%" horiz-adv-x="1904" d="M61 1034q0 221 90.5 320.5t289 99.5t288.5 -99.5t90 -320.5q0 -219 -90 -319.5t-288.5 -100.5t-289 100.5t-90.5 319.5zM328 1034q0 -174 112 -174q61 0 87 42t26 132q0 94 -25.5 134t-87.5 40q-112 0 -112 -174zM381 125l930 1329l209 -145l-930 -1329zM1085 399 q0 221 90.5 320.5t289 99.5t288.5 -99t90 -321q0 -219 -90 -319t-288.5 -100t-289 100t-90.5 319zM1352 399q0 -174 112 -174q61 0 87 42t26 132q0 94 -25.5 134t-87.5 40q-112 0 -112 -174z" />
<glyph unicode="&#x26;" horiz-adv-x="1607" d="M72 395q0 240 182 336q-166 96 -166 324q0 211 148.5 305t486.5 94q340 0 489.5 -104.5t149.5 -335.5h-307q0 154 -332 153q-168 0 -248 -35.5t-80 -113.5q0 -82 64.5 -118t212.5 -36h905v-266h-215v-162q0 -240 -155.5 -348t-489.5 -108t-489.5 99t-155.5 316zM379 434 q0 -168 348 -168q182 0 265 40t83 130v162h-391q-162 0 -233.5 -38t-71.5 -126z" />
<glyph unicode="'" horiz-adv-x="489" d="M102 1434h285l-20 -600h-244z" />
<glyph unicode="(" horiz-adv-x="768" d="M164 666q0 510 129 741t414 231v-245q-145 0 -211 -173t-66 -554q0 -377 67.5 -552t209.5 -175v-246q-283 0 -413 232.5t-130 740.5z" />
<glyph unicode=")" horiz-adv-x="768" d="M61 -61q141 0 209 175t68 552q0 381 -66 554t-211 173v245q285 0 414 -231t129 -741q0 -508 -130 -740.5t-413 -232.5v246z" />
<glyph unicode="*" horiz-adv-x="1263" d="M102 1051l86 270l334 -139l-30 354h284l-31 -354l328 137l88 -270l-346 -80l232 -271l-230 -166l-184 304l-187 -304l-229 166l232 269z" />
<glyph unicode="+" d="M123 573v287h420v420h286v-420h420v-287h-420v-419h-286v419h-420z" />
<glyph unicode="," horiz-adv-x="614" d="M102 184q0 106 49.5 155.5t156 49.5t155.5 -49t49 -156v-153q0 -229 -90 -333t-291 -104v134q96 0 141 60t47 192q-115 0 -166 45.5t-51 158.5z" />
<glyph unicode="-" horiz-adv-x="819" d="M102 410v286h615v-286h-615z" />
<glyph unicode="." horiz-adv-x="614" d="M102 184.5q0 106.5 49.5 155.5t156 49t155.5 -49t49 -155.5t-49 -155.5t-155.5 -49t-156 49t-49.5 155.5z" />
<glyph unicode="/" horiz-adv-x="1189" d="M0 -307l907 1945h283l-907 -1945h-283z" />
<glyph unicode="0" horiz-adv-x="1454" d="M82 717q0 387 153.5 562t491.5 175q340 0 492.5 -175t152.5 -562t-152.5 -562t-492.5 -175q-338 0 -491.5 175t-153.5 562zM389 717q0 -233 82 -342t256 -109q180 0 259 106.5t79 344.5q0 240 -79 345t-259 105q-174 0 -256 -107t-82 -343z" />
<glyph unicode="1" horiz-adv-x="1019" d="M51 1075l576 359h209v-1434h-308v1028l-309 -203z" />
<glyph unicode="2" horiz-adv-x="1290" d="M61 993q0 242 139.5 351.5t442.5 109.5q299 0 437.5 -109.5t138.5 -353.5q0 -162 -66 -258t-205 -139l-446 -137q-57 -16 -82 -50t-25 -98v-22h811v-287h-1118v274q0 356 270 439l453 139q100 31 100 133q0 94 -66.5 138t-209.5 44q-266 0 -266 -174h-308z" />
<glyph unicode="3" horiz-adv-x="1269" d="M41 436h307q0 -88 65.5 -129t207.5 -41q270 0 270 168q0 88 -71.5 126t-233.5 38h-64v266h76q147 0 211.5 36t64.5 118q0 80 -58 114.5t-187 34.5q-131 0 -190.5 -36.5t-59.5 -116.5h-307q0 231 132 335.5t425 104.5q291 0 422 -94t131 -305q0 -227 -166 -324 q182 -96 182 -336q0 -217 -137 -316t-440.5 -99t-441.5 108t-138 348z" />
<glyph unicode="4" horiz-adv-x="1382" d="M51 266v287l627 881h469v-881h205v-287h-205v-266h-307v266h-789zM399 553h441v623z" />
<glyph unicode="5" d="M82 436h307q0 -170 287 -170q158 0 232.5 49.5t74.5 155.5q0 109 -81 159t-259 50q-221 0 -221 -82h-287v836h1045v-308h-758v-229q109 70 326 70q279 0 410.5 -118t131.5 -368q0 -264 -147.5 -382.5t-468.5 -118.5q-311 0 -451.5 108t-140.5 348z" />
<glyph unicode="6" horiz-adv-x="1361" d="M82 420v475q0 293 140 426t449.5 133t449 -106.5t139.5 -343.5h-308q0 86 -65.5 124.5t-215 38.5t-216 -61.5t-66.5 -200.5v-57q74 74 299 74q324 0 468 -112t144 -359q0 -246 -144 -358.5t-464 -112.5q-322 0 -466 104.5t-144 335.5zM389 451q0 -96 71.5 -140.5 t231.5 -44.5q158 0 229.5 44t71.5 141q0 98 -70.5 141t-230.5 43q-162 0 -232.5 -43t-70.5 -141z" />
<glyph unicode="7" horiz-adv-x="1198" d="M20 1147v287h1147v-287l-718 -1147h-351l719 1147h-797z" />
<glyph unicode="8" horiz-adv-x="1382" d="M72 395q0 242 188 338q-168 96 -168 322q0 211 143.5 305t458.5 94q313 0 454.5 -94t141.5 -305q0 -229 -166 -322q186 -94 187 -338q0 -219 -146.5 -317t-472.5 -98q-324 0 -472 99t-148 316zM379 432q0 -166 313 -166q164 0 238 40t74 126t-73 124t-239 38 q-162 0 -237.5 -38t-75.5 -124zM399 1020q0 -80 71 -116t224.5 -36t221 35t67.5 117q0 78 -67.5 112.5t-221 34.5t-224.5 -34.5t-71 -112.5z" />
<glyph unicode="9" horiz-adv-x="1341" d="M61 979q0 250 142.5 362.5t455.5 112.5q315 0 458 -104.5t143 -335.5v-475q0 -293 -141.5 -426t-454.5 -133q-311 0 -451.5 107.5t-140.5 342.5h307q0 -86 68.5 -125t216.5 -39q154 0 221 61.5t67 200.5v58q-78 -90 -293 -90q-313 0 -455.5 115.5t-142.5 367.5zM369 979 q0 -197 290 -197q293 0 293 197q0 96 -70.5 142t-222.5 46q-150 0 -220 -46t-70 -142z" />
<glyph unicode=":" horiz-adv-x="614" d="M102 184.5q0 106.5 49.5 155.5t156 49t155.5 -49t49 -155.5t-49 -155.5t-155.5 -49t-156 49t-49.5 155.5zM102 880.5q0 106.5 49.5 155.5t156 49t155.5 -49t49 -155.5t-49 -155.5t-155.5 -49t-156 49t-49.5 155.5z" />
<glyph unicode=";" horiz-adv-x="614" d="M102 184q0 106 49.5 155.5t156 49.5t155.5 -49t49 -156v-153q0 -229 -90 -333t-291 -104v134q96 0 141 60t47 192q-115 0 -166 46t-51 158zM102 880.5q0 106.5 49.5 155.5t156 49t155.5 -49t49 -155.5t-49 -155.5t-155.5 -49t-156 49t-49.5 155.5z" />
<glyph unicode="&#x3c;" d="M88 573v287l1155 422v-307l-749 -258l749 -258v-307z" />
<glyph unicode="=" d="M123 307v287h1126v-287h-1126zM123 840v286h1126v-286h-1126z" />
<glyph unicode="&#x3e;" d="M129 152v307l750 258l-750 258v307l1155 -422v-287z" />
<glyph unicode="?" horiz-adv-x="1146" d="M31 993q31 244 164 352.5t407 108.5q258 0 381 -98.5t123 -315.5q0 -272 -205 -354l-162 -65q-35 -14 -34 -68v-61h-308v104q0 104 37 166.5t119 97.5l170 72q76 33 76 106q0 129 -201 129q-119 0 -178.5 -41t-81.5 -133h-307zM352 184.5q0 106.5 49.5 155.5t156 49 t155.5 -49t49 -155.5t-49 -155.5t-155.5 -49t-156 49t-49.5 155.5z" />
<glyph unicode="@" horiz-adv-x="2170" d="M102 555q0 502 238 731.5t760 229.5q508 0 738 -218.5t230 -695.5q0 -317 -102 -459.5t-328 -142.5q-238 0 -299 160q-111 -150 -364 -150q-244 0 -353.5 131t-109.5 422t109.5 422t353.5 131q227 0 336 -115v95h307v-731q0 -170 111 -170q86 0 125.5 88t39.5 280 q0 414 -190.5 601.5t-613.5 187.5q-426 0 -620 -188.5t-194 -602.5q0 -412 191.5 -599t611.5 -187q209 0 357 45l55 -156q-178 -53 -426 -53q-506 0 -734.5 226t-228.5 718zM819 565.5q0 -139.5 58.5 -204t185.5 -64.5t185.5 64.5t58.5 204t-58.5 201.5t-185.5 62 t-185.5 -62t-58.5 -201.5z" />
<glyph unicode="A" horiz-adv-x="1697" d="M31 0l635 1434h366l635 -1434h-348l-105 240h-731l-104 -240h-348zM616 547h467l-233 538z" />
<glyph unicode="B" horiz-adv-x="1525" d="M123 0v1434h819q248 0 359.5 -93.5t111.5 -296.5q0 -211 -127 -303q168 -88 168 -342q0 -209 -111.5 -304t-359.5 -95h-860zM451 307h532q86 0 125 34t39 105.5t-39 104.5t-125 33h-532v-277zM451 870h481q90 0 132 31t42 98q0 66 -39 96.5t-125 30.5h-491v-256z" />
<glyph unicode="C" horiz-adv-x="1628" d="M82 717q0 387 175 562t562 175q338 0 513 -132t214 -421h-338q-35 127 -129 186.5t-260 59.5q-215 0 -312 -102.5t-97 -327.5t97 -327.5t312 -102.5q166 0 260.5 59.5t128.5 185.5h338q-39 -289 -214 -420.5t-513 -131.5q-387 0 -562 175t-175 562z" />
<glyph unicode="D" horiz-adv-x="1556" d="M123 0v1434h614q387 0 562.5 -170t175.5 -547t-175.5 -547t-562.5 -170h-614zM451 307h276q221 0 320.5 97.5t99.5 312.5t-99.5 312t-320.5 97h-276v-819z" />
<glyph unicode="E" horiz-adv-x="1419" d="M123 0v1434h1204v-308h-876v-266h774v-287h-774v-266h876v-307h-1204z" />
<glyph unicode="F" horiz-adv-x="1378" d="M123 0v1434h1184v-308h-856v-256h753v-307h-753v-563h-328z" />
<glyph unicode="G" horiz-adv-x="1634" d="M82 717q0 387 175 562t562 175q330 0 504 -126t219 -396h-344q-78 215 -379 215q-215 0 -312 -102.5t-97 -327.5q0 -227 103 -328.5t347 -101.5q184 0 267 52t83 167v16h-407v287h735v-303q0 -276 -162 -401t-520 -125q-412 0 -593 174t-181 563z" />
<glyph unicode="H" horiz-adv-x="1710" d="M123 0v1434h328v-564h809v564h327v-1434h-327v563h-809v-563h-328z" />
<glyph unicode="I" horiz-adv-x="573" d="M123 0v1434h328v-1434h-328z" />
<glyph unicode="J" horiz-adv-x="1398" d="M61 467v104h330v-112q0 -172 283 -172q143 0 210.5 59.5t67.5 179.5v908h328v-926q0 -272 -145.5 -400t-463 -128t-464 117.5t-146.5 369.5z" />
<glyph unicode="K" horiz-adv-x="1544" d="M123 0v1434h328v-545h194l424 545h397l-544 -695l591 -739h-407l-459 582h-196v-582h-328z" />
<glyph unicode="L" horiz-adv-x="1351" d="M123 0v1434h328v-1127h819v-307h-1147z" />
<glyph unicode="M" horiz-adv-x="2086" d="M123 0v1434h534l387 -1065l383 1065h537v-1434h-328v1081l-409 -1081h-367l-409 1081v-1081h-328z" />
<glyph unicode="N" horiz-adv-x="1679" d="M123 0v1434h328l778 -951v951h327v-1434h-327l-778 950v-950h-328z" />
<glyph unicode="O" horiz-adv-x="1638" d="M82 717q0 387 175 562t562 175t562 -175t175 -562t-175 -562t-562 -175t-562 175t-175 562zM410 717q0 -225 97 -327.5t312 -102.5t312.5 102.5t97.5 327.5t-97.5 327.5t-312.5 102.5t-312 -102.5t-97 -327.5z" />
<glyph unicode="P" horiz-adv-x="1433" d="M123 0v1434h737q268 0 390 -117t122 -375t-122 -374.5t-390 -116.5h-409v-451h-328zM451 758h389q106 0 155 44t49 140t-49 140t-155 44h-389v-368z" />
<glyph unicode="Q" horiz-adv-x="1638" d="M82 717q0 387 175 562t562 175t562 -175t175 -562q0 -471 -266 -633l307 -285l-225 -225l-440 410q-74 -4 -113 -4q-387 0 -562 175t-175 562zM410 717q0 -225 97 -327.5t312 -102.5t312.5 102.5t97.5 327.5t-97.5 327.5t-312.5 102.5t-312 -102.5t-97 -327.5z" />
<glyph unicode="R" horiz-adv-x="1525" d="M123 0v1434h778q268 0 390 -103.5t122 -333.5q0 -262 -164 -366q143 -78 144 -281v-350h-328v334q0 72 -45 104.5t-143 32.5h-426v-471h-328zM451 778h430q106 0 155 42t49 134q0 90 -48 131t-156 41h-430v-348z" />
<glyph unicode="S" horiz-adv-x="1447" d="M72 449h338q20 -84 105 -123t249 -39q291 0 291 116q0 55 -79 92t-278 72q-348 63 -477 159.5t-129 287.5q0 225 148.5 331.5t461.5 106.5q307 0 460 -109.5t184 -359.5h-342q-16 84 -93 123t-229 39q-268 0 -268 -113q0 -53 71.5 -86t266.5 -69q358 -70 491 -165.5 t133 -285.5q0 -225 -157.5 -335.5t-485.5 -110.5q-317 0 -473.5 110.5t-187.5 358.5z" />
<glyph unicode="T" horiz-adv-x="1495" d="M51 1126v308h1393v-308h-533v-1126h-327v1126h-533z" />
<glyph unicode="U" horiz-adv-x="1617" d="M113 627v807h327v-783q0 -190 88 -277t280.5 -87t281 87t88.5 277v783h327v-807q0 -340 -165.5 -493.5t-530.5 -153.5t-530.5 153.5t-165.5 493.5z" />
<glyph unicode="V" horiz-adv-x="1677" d="M31 1434h348l461 -1086l458 1086h349l-625 -1434h-367z" />
<glyph unicode="W" horiz-adv-x="2371" d="M31 1434h338l327 -1024l316 1024h348l317 -1024l326 1024h338l-481 -1434h-367l-307 967l-307 -967h-367z" />
<glyph unicode="X" horiz-adv-x="1589" d="M31 0l565 731l-541 703h398l342 -443l342 443h397l-541 -703l566 -731h-402l-362 471l-363 -471h-401z" />
<glyph unicode="Y" horiz-adv-x="1636" d="M31 1434h389l399 -594l398 594h389l-623 -891v-543h-328v541z" />
<glyph unicode="Z" horiz-adv-x="1331" d="M51 0v287l770 839h-753v308h1202v-287l-770 -840h780v-307h-1229z" />
<glyph unicode="[" horiz-adv-x="757" d="M164 -307v1945h532v-245h-266v-1454h266v-246h-532z" />
<glyph unicode="\" horiz-adv-x="1189" d="M0 1638h283l907 -1945h-283z" />
<glyph unicode="]" horiz-adv-x="757" d="M61 -61h267v1454h-267v245h533v-1945h-533v246z" />
<glyph unicode="^" d="M143 911l543 543l545 -543l-203 -202l-340 340l-342 -340z" />
<glyph unicode="_" horiz-adv-x="1024" d="M0 -205h1024v-287h-1024v287z" />
<glyph unicode="`" horiz-adv-x="704" d="M61 1696l170 223l412 -332l-113 -153z" />
<glyph unicode="a" horiz-adv-x="1210" d="M61 319q0 180 104.5 258t338.5 78h295q-8 86 -59.5 125t-153.5 39q-172 0 -201 -123h-303q23 203 144.5 296t369.5 93q270 0 391 -111.5t121 -359.5v-614h-307v84q-113 -104 -344 -104q-205 0 -300.5 80.5t-95.5 258.5zM369 332q0 -86 168 -86q119 0 181 42t83 132v10 h-213q-219 0 -219 -98z" />
<glyph unicode="b" horiz-adv-x="1269" d="M102 0v1536h308v-567q110 116 334 116h4q242 0 351 -131t109 -421.5t-109.5 -421.5t-350.5 -131q-227 0 -338 116v-96h-308zM414 532q0 -139 58 -202.5t185 -63.5t185.5 63.5t58.5 202.5q0 141 -58.5 204t-185.5 63t-185 -62.5t-58 -204.5z" />
<glyph unicode="c" horiz-adv-x="1193" d="M61 532.5q0 290.5 127 421.5t408 131q258 0 387 -107.5t150 -342.5h-304q-18 86 -72.5 125t-154.5 39q-123 0 -178 -62.5t-55 -204.5q0 -139 55 -202.5t178 -63.5q193 0 227 164h304q-20 -236 -149.5 -343t-387.5 -107q-281 0 -408 131t-127 421.5z" />
<glyph unicode="d" horiz-adv-x="1269" d="M61 532.5q0 290.5 110 421.5t351 131q227 0 338 -116v567h307v-1536h-307v96q-110 -116 -334 -116h-4q-242 0 -351.5 131t-109.5 421.5zM369 532q0 -139 58 -202.5t185 -63.5t185.5 63.5t58.5 202.5q0 141 -58.5 204t-185.5 63t-185 -62.5t-58 -204.5z" />
<glyph unicode="e" horiz-adv-x="1218" d="M61 532.5q0 288.5 130.5 420.5t419 132t417.5 -131t129 -422q0 -33 -4 -98h-776q33 -188 237 -188q154 0 209 102h318q-39 -205 -174.5 -286.5t-356.5 -81.5q-289 0 -419 132t-130 420.5zM381 659h467q-41 160 -233.5 160t-233.5 -160z" />
<glyph unicode="f" horiz-adv-x="808" d="M20 778v287h164v20q0 236 106.5 343.5t342.5 107.5h155v-287h-139q-82 0 -119.5 -39t-37.5 -125v-20h276v-287h-276v-778h-308v778h-164z" />
<glyph unicode="g" horiz-adv-x="1269" d="M61 532.5q0 290.5 109.5 421.5t351.5 131q227 0 338 -116v96h307v-1059q0 -283 -128 -410.5t-412 -127.5q-260 0 -390.5 98t-150.5 311h303q37 -123 232 -123q125 0 182 61.5t57 196.5v84q-110 -116 -334 -116h-4q-242 0 -351.5 131t-109.5 421.5zM369 532 q0 -141 58 -203.5t185 -62.5t185.5 62.5t58.5 203.5q0 139 -58.5 203t-185.5 64t-185 -63.5t-58 -203.5z" />
<glyph unicode="h" horiz-adv-x="1257" d="M102 0v1536h308v-561q103 110 317 110h4q221 0 322.5 -116.5t101.5 -374.5v-594h-307v594q0 106 -51.5 155.5t-157.5 49.5q-121 0 -175 -62.5t-54 -204.5v-532h-308z" />
<glyph unicode="i" horiz-adv-x="512" d="M76 1356q0 94 42 137t138 43t138 -43t42 -137t-42 -137t-138 -43t-138 43t-42 137zM102 0v1065h308v-1065h-308z" />
<glyph unicode="j" horiz-adv-x="512" d="M-92 -225h37q82 0 119.5 41t37.5 129v1120h308v-1114q0 -242 -106.5 -352.5t-342.5 -110.5h-53v287zM76 1356q0 94 42 137t138 43t138 -43t42 -137t-42 -137t-138 -43t-138 43t-42 137z" />
<glyph unicode="k" horiz-adv-x="1185" d="M102 0v1536h308v-852h59l279 381h366l-383 -520l434 -545h-377l-313 397h-65v-397h-308z" />
<glyph unicode="l" horiz-adv-x="512" d="M102 0v1536h308v-1536h-308z" />
<glyph unicode="m" horiz-adv-x="1904" d="M102 0v1065h308v-82q100 102 297 102q233 0 325 -149q103 149 349 149h3q217 0 317.5 -116.5t100.5 -374.5v-594h-307v594q0 106 -44 155.5t-140 49.5q-109 0 -157 -62.5t-48 -204.5v-532h-307v594q0 106 -44 155.5t-141 49.5q-109 0 -156.5 -62.5t-47.5 -204.5v-532 h-308z" />
<glyph unicode="n" horiz-adv-x="1257" d="M102 0v1065h308v-90q103 110 317 110h4q221 0 322.5 -116.5t101.5 -374.5v-594h-307v594q0 106 -50 155.5t-159 49.5q-123 0 -176 -62.5t-53 -204.5v-532h-308z" />
<glyph unicode="o" horiz-adv-x="1228" d="M61 532.5q0 290.5 131.5 421.5t422 131t421.5 -131t131 -421.5t-131 -421.5t-421.5 -131t-422 131t-131.5 421.5zM369 532q0 -139 58 -202.5t187 -63.5t187.5 63.5t58.5 202.5q0 141 -58.5 204t-187.5 63t-187 -63t-58 -204z" />
<glyph unicode="p" horiz-adv-x="1269" d="M102 -512v1577h308v-96q110 116 334 116h4q242 0 351 -131t109 -421.5t-109.5 -421.5t-350.5 -131q-227 0 -338 116v-608h-308zM414 532q0 -141 58 -203.5t185 -62.5t185.5 62.5t58.5 203.5q0 139 -58.5 203t-185.5 64t-185 -63.5t-58 -203.5z" />
<glyph unicode="q" horiz-adv-x="1269" d="M61 532.5q0 290.5 110 421.5t351 131q227 0 338 -116v96h307v-1577h-307v608q-110 -116 -334 -116h-4q-242 0 -351.5 131t-109.5 421.5zM369 532q0 -141 58 -203.5t185 -62.5t185.5 62.5t58.5 203.5q0 139 -58.5 203t-185.5 64t-185 -63.5t-58 -203.5z" />
<glyph unicode="r" horiz-adv-x="825" d="M102 0v1065h308v-78q96 98 286 98h109v-286h-203q-104 0 -148 -62.5t-44 -204.5v-532h-308z" />
<glyph unicode="s" horiz-adv-x="1132" d="M61 348h304q33 -102 229 -102q180 0 180 61q0 66 -244 92q-250 29 -354 109t-104 244q0 174 111.5 253.5t355.5 79.5q252 0 375.5 -88t146.5 -280h-303q-35 102 -226 102q-164 0 -164 -55t220 -84q274 -37 378.5 -111.5t104.5 -234.5q0 -178 -116.5 -266t-370.5 -88 q-250 0 -376.5 87.5t-146.5 280.5z" />
<glyph unicode="t" horiz-adv-x="829" d="M31 778v287h143v229h307v-229h277v-287h-277v-360q0 -70 32 -100.5t105 -30.5h160v-287h-168q-229 0 -332.5 90t-103.5 289v399h-143z" />
<glyph unicode="u" horiz-adv-x="1249" d="M102 471v594h308v-594q0 -106 50 -155.5t156 -49.5q119 0 171.5 62.5t52.5 203.5v533h307v-1065h-307v88q-105 -108 -312 -108h-4q-219 0 -320.5 116.5t-101.5 374.5z" />
<glyph unicode="v" horiz-adv-x="1208" d="M20 1065h328l256 -700l256 700h328l-410 -1065h-348z" />
<glyph unicode="w" horiz-adv-x="1746" d="M20 1065h322l176 -666l205 666h301l199 -643l182 643h321l-327 -1065h-348l-177 575l-178 -575h-348z" />
<glyph unicode="x" horiz-adv-x="1267" d="M20 0l420 535l-415 530h383l227 -299l227 299h381l-412 -530l416 -535h-381l-231 305l-232 -305h-383z" />
<glyph unicode="y" horiz-adv-x="1198" d="M20 1065h328l252 -659l248 659h330l-611 -1577h-329l198 512z" />
<glyph unicode="z" horiz-adv-x="1024" d="M51 0v225l479 553h-479v287h922v-225l-481 -553h481v-287h-922z" />
<glyph unicode="{" horiz-adv-x="763" d="M41 541v247q8 2 19.5 5.5t43 16.5t55 29.5t43 44t19.5 58.5v336q0 190 78 275t250 85h153v-245h-106q-57 0 -83 -30t-26 -93v-348q0 -109 -47 -169.5t-153 -86.5q106 -25 153 -85.5t47 -172.5v-347q0 -63 26 -92.5t83 -29.5h106v-246h-147q-176 0 -255 85t-79 275v334 q0 49 -45 88t-90 53z" />
<glyph unicode="|" horiz-adv-x="593" d="M164 -307v1843h266v-1843h-266z" />
<glyph unicode="}" horiz-adv-x="763" d="M61 -61h107q57 0 82.5 29.5t25.5 92.5v347q0 113 47.5 173t153.5 85q-106 27 -153.5 87t-47.5 169v348q0 63 -25.5 93t-82.5 30h-107v245h154q172 0 250 -85t78 -275v-336q0 -49 45 -88t90 -51l45 -15v-247q-8 -2 -19.5 -5.5t-43 -16.5t-55 -29.5t-43 -44t-19.5 -58.5 v-334q0 -190 -79 -275t-255 -85h-148v246z" />
<glyph unicode="~" d="M123 539q0 373 323 372q102 0 195.5 -35.5t161 -71.5t110.5 -36q88 0 88 127h248q0 -373 -319 -373q-102 0 -194.5 36t-161 71t-113.5 35q-88 0 -88 -125h-250z" />
<glyph unicode="&#xa1;" horiz-adv-x="573" d="M82 880.5q0 106.5 49 155.5t155.5 49t156 -49t49.5 -155.5t-49.5 -155.5t-156 -49t-155.5 49t-49 155.5zM123 -369l20 922h287l21 -922h-328z" />
<glyph unicode="&#xa2;" horiz-adv-x="1193" d="M61 717q0 264 103.5 396t331.5 153v188h204v-188q205 -20 309.5 -128t123.5 -319h-304q-27 123 -129 152v-508q102 33 129 151h304q-18 -211 -123 -318.5t-310 -127.5v-188h-204v188q-227 20 -331 152.5t-104 396.5zM369 717q0 -205 127 -250v500q-127 -45 -127 -250z " />
<glyph unicode="&#xa3;" horiz-adv-x="1484" d="M61 0v307h195v197h-195v246h195v176q0 272 135 400t432 128t433.5 -117.5t136.5 -369.5v-105h-330v113q0 172 -242 172q-123 0 -180 -59.5t-57 -180.5v-157h409v-246h-409v-197h792v-307h-1315z" />
<glyph unicode="&#xa4;" d="M82 315l168 168q-35 90 -35 233.5t35 233.5l-168 168l203 203l168 -168q90 35 233 35q145 0 236 -35l168 168l202 -203l-170 -168q35 -90 35 -233.5t-35 -233.5l170 -168l-202 -202l-168 168q-90 -35 -236 -35q-143 0 -233 35l-168 -168zM461 717q0 -119 53 -172t172 -53 t172 53t53 172t-53 172t-172 53t-172 -53t-53 -172z" />
<glyph unicode="&#xa5;" horiz-adv-x="1636" d="M31 1434h389l399 -594l398 594h389l-537 -768h272v-185h-358v-102h358v-184h-358v-195h-328v195h-358v184h358v102h-358v185h272z" />
<glyph unicode="&#xa6;" horiz-adv-x="593" d="M164 -307v717h266v-717h-266zM164 819v717h266v-717h-266z" />
<glyph unicode="&#xa7;" horiz-adv-x="1218" d="M61 559q0 174 187 275q-125 96 -125 239q0 193 109.5 289t340.5 96q272 0 406.5 -88t157.5 -280h-303q-16 55 -70.5 78.5t-175.5 23.5q-190 0 -191 -98q0 -49 78 -88t190.5 -71t224 -75t189.5 -123t78 -190q0 -172 -178 -273q117 -92 117 -229q0 -190 -111 -283.5 t-348 -93.5q-268 0 -400.5 88t-154.5 281h303q16 -55 67.5 -79t168.5 -24q106 0 153 22t47 71q0 39 -56 69.5t-140 53t-183.5 56.5t-183.5 73.5t-140.5 112.5t-56.5 167zM356 592q0 -27 19.5 -50.5t63.5 -43t83 -32.5t109.5 -35.5t111.5 -37.5q119 43 119 121 q0 29 -19.5 52.5t-64.5 44t-84 34.5t-111.5 37t-111.5 37q-49 -20 -82 -54t-33 -73z" />
<glyph unicode="&#xa8;" horiz-adv-x="880" d="M61 1593q0 84 38 122t122 38q86 0 125 -38t39 -122t-39 -121.5t-125 -37.5q-84 0 -122 37.5t-38 121.5zM498 1593q0 84 37.5 122t123.5 38q84 0 122 -38t38 -122t-38 -121.5t-122 -37.5q-86 0 -123.5 37.5t-37.5 121.5z" />
<glyph unicode="&#xa9;" horiz-adv-x="1679" d="M102 717q0 387 175.5 562t562.5 175t562 -175t175 -562t-175 -562t-562 -175t-562.5 175t-175.5 562zM266 717q0 -301 136.5 -437.5t437.5 -136.5t437 136.5t136 437.5t-136 437t-437 136t-437.5 -136t-136.5 -437zM467 716.5q0 194.5 89 284t284 89.5q186 0 274 -79 t100 -243h-264q-18 82 -110 82q-61 0 -89 -32t-28 -101.5t27.5 -101t89.5 -31.5q92 0 110 80h264q-12 -164 -100 -242t-274 -78q-195 0 -284 89t-89 283.5z" />
<glyph unicode="&#xaa;" horiz-adv-x="925" d="M41 872q0 139 82 193.5t252 54.5h207q-10 102 -136 103q-109 0 -127 -64h-264q14 154 108.5 224.5t293.5 70.5q221 0 309 -91t88 -269v-455h-270v49q-84 -65 -242 -65q-156 0 -228.5 59t-72.5 190zM309 895q0 -41 103 -41q137 0 170 92h-131q-141 0 -142 -51z" />
<glyph unicode="&#xab;" horiz-adv-x="1085" d="M72 553l260 522l229 -112l-203 -410l203 -410l-229 -112zM514 553l260 522l230 -112l-203 -410l203 -410l-230 -112z" />
<glyph unicode="&#xac;" d="M123 635v287h1126v-594h-307v307h-819z" />
<glyph unicode="&#xad;" horiz-adv-x="819" d="M102 410v286h615v-286h-615z" />
<glyph unicode="&#xae;" horiz-adv-x="1679" d="M102 717q0 387 175.5 562t562.5 175t562 -175t175 -562t-175 -562t-562 -175t-562.5 175t-175.5 562zM266 717q0 -301 136.5 -437.5t437.5 -136.5t437 136.5t136 437.5t-136 437t-437 136t-437.5 -136t-136.5 -437zM516 354v717h414q137 0 205.5 -52t68.5 -179t-76 -185 q57 -39 58 -123v-178h-256v168q0 18 -37 19h-121v-187h-256zM772 760h131q45 0 45 45q0 37 -45 37h-131v-82z" />
<glyph unicode="&#xaf;" horiz-adv-x="858" d="M61 1434v245h736v-245h-736z" />
<glyph unicode="&#xb0;" horiz-adv-x="880" d="M41 1147q0 166 117.5 282.5t281.5 116.5t282 -116.5t118 -282.5q0 -164 -118 -281.5t-282 -117.5t-281.5 117.5t-117.5 281.5zM297 1146.5q0 -59.5 42 -101t101.5 -41.5t101.5 41.5t42 101t-42 101.5t-101.5 42t-101.5 -42t-42 -101.5z" />
<glyph unicode="&#xb1;" d="M123 102v287h1126v-287h-1126zM123 778v287h420v317h286v-317h420v-287h-420v-317h-286v317h-420z" />
<glyph unicode="&#xb2;" horiz-adv-x="638" d="M12 1307q0 125 73 183t230.5 58t230 -55t72.5 -178q0 -164 -149 -203l-199 -51q-39 -8 -39 -49h369v-193h-575v146q0 207 145 247l207 56q35 8 35 35q0 53 -101 53q-92 0 -92 -49h-207z" />
<glyph unicode="&#xb3;" horiz-adv-x="624" d="M6 1051h207q0 -51 94 -52q92 0 92 50q0 45 -110 45h-27v178h33q96 0 96 43q0 41 -80 41q-82 0 -82 -43h-206q0 123 68.5 179t220 56t219 -49t67.5 -158q0 -106 -70 -157q78 -51 78 -162q0 -113 -71.5 -164t-227.5 -51q-158 0 -229.5 58.5t-71.5 185.5z" />
<glyph unicode="&#xb4;" horiz-adv-x="704" d="M61 1587l412 332l170 -223l-469 -262z" />
<glyph unicode="&#xb5;" horiz-adv-x="1249" d="M102 -512v1577h308v-594q0 -106 50 -155.5t156 -49.5q119 0 171.5 62.5t52.5 203.5v533h307v-1065h-307v88q-106 -109 -316 -108q-74 0 -135 12l21 -504h-308z" />
<glyph unicode="&#xb6;" horiz-adv-x="1355" d="M82 962.5q0 245.5 109.5 358.5t349.5 113h282v-1844h-266v902q-248 0 -361.5 112.5t-113.5 358zM926 -410v1844h266v-1844h-266z" />
<glyph unicode="&#xb7;" horiz-adv-x="614" d="M102 716.5q0 106.5 49.5 156t156 49.5t155.5 -49.5t49 -156t-49 -155.5t-155.5 -49t-156 49t-49.5 155.5z" />
<glyph unicode="&#xb8;" horiz-adv-x="727" d="M61 -248h162q0 -92 137 -92q106 0 107 64q0 53 -61.5 77.5t-198.5 24.5l39 174h221l-16 -86q98 0 156.5 -56.5t58.5 -154.5q0 -100 -70 -147.5t-221 -47.5q-166 0 -240 57.5t-74 186.5z" />
<glyph unicode="&#xb9;" horiz-adv-x="520" d="M16 1354l301 182h140v-717h-207v445l-121 -78z" />
<glyph unicode="&#xba;" horiz-adv-x="937" d="M41 1038q0 217 101.5 316.5t326.5 99.5t326.5 -99.5t101.5 -316.5t-101.5 -316t-326.5 -99t-326.5 99t-101.5 316zM309 1038q0 -86 39 -126t121 -40t121 40t39 126q0 88 -38 127t-122 39t-122 -39t-38 -127z" />
<glyph unicode="&#xbb;" horiz-adv-x="1085" d="M82 143l203 410l-203 410l229 112l260 -522l-260 -522zM524 143l203 410l-203 410l230 112l260 -522l-260 -522z" />
<glyph unicode="&#xbc;" horiz-adv-x="1544" d="M16 1251l301 183h140v-717h-207v444l-121 -78zM152 0l987 1434h229l-987 -1434h-229zM889 113v192l254 412h313v-412h78v-192h-78v-113h-207v113h-360zM1112 305h137v217z" />
<glyph unicode="&#xbd;" horiz-adv-x="1576" d="M16 1251l301 183h140v-717h-207v444l-121 -78zM152 0l987 1434h229l-987 -1434h-229zM950 487q0 125 73 183.5t230.5 58.5t230 -55.5t72.5 -177.5q0 -164 -149 -203l-199 -51q-39 -8 -39 -49h369v-193h-575v145q0 207 145 248l207 56q35 8 35 34q0 53 -101 54 q-92 -1 -92 -50h-207z" />
<glyph unicode="&#xbe;" horiz-adv-x="1648" d="M6 948h207q0 -51 94 -51q92 0 92 49q0 45 -110 45h-27v178h33q96 0 96 43q0 41 -80 41q-82 0 -82 -43h-206q0 123 68.5 179.5t220 56.5t219 -49t67.5 -158q0 -106 -70 -158q78 -51 78 -161q0 -113 -71.5 -164t-227.5 -51q-158 0 -229.5 58t-71.5 185zM195 0l987 1434h229 l-987 -1434h-229zM993 113v192l254 412h314v-412h77v-192h-77v-113h-207v113h-361zM1217 305h137v217z" />
<glyph unicode="&#xbf;" horiz-adv-x="1146" d="M41 25q0 272 205 354l162 65q35 14 34 68v61h308v-104q0 -104 -37 -166.5t-119 -97.5l-170 -72q-76 -33 -76 -106q0 -129 201 -129q119 0 178 41t82 133h307q-31 -244 -164 -352.5t-407 -108.5q-258 0 -381 98.5t-123 315.5zM385 880.5q0 106.5 49 155.5t155.5 49 t156 -49t49.5 -155.5t-49.5 -155.5t-156 -49t-155.5 49t-49 155.5z" />
<glyph unicode="&#xc0;" horiz-adv-x="1697" d="M31 0l635 1434h366l635 -1434h-348l-105 240h-731l-104 -240h-348zM457 1798l170 223l411 -331l-112 -154zM616 547h467l-233 538z" />
<glyph unicode="&#xc1;" horiz-adv-x="1697" d="M31 0l635 1434h366l635 -1434h-348l-105 240h-731l-104 -240h-348zM616 547h467l-233 538zM662 1690l411 331l170 -223l-469 -262z" />
<glyph unicode="&#xc2;" horiz-adv-x="1697" d="M31 0l635 1434h366l635 -1434h-348l-105 240h-731l-104 -240h-348zM438 1669l412 311l412 -311l-113 -153l-299 188l-299 -188zM616 547h467l-233 538z" />
<glyph unicode="&#xc3;" horiz-adv-x="1697" d="M31 0l635 1434h366l635 -1434h-348l-105 240h-731l-104 -240h-348zM463 1556q0 150 54 219.5t165 69.5q84 0 189.5 -43t119.5 -43q45 0 45 76h199q0 -289 -217 -289q-84 0 -188.5 43t-122.5 43q-48 0 -48 -76h-196zM616 547h467l-233 538z" />
<glyph unicode="&#xc4;" horiz-adv-x="1697" d="M31 0l635 1434h366l635 -1434h-348l-105 240h-731l-104 -240h-348zM471 1696q0 84 38 121.5t122 37.5q86 0 125 -37.5t39 -121.5t-39 -122t-125 -38q-84 0 -122 38t-38 122zM616 547h467l-233 538zM907 1696q0 84 38 121.5t124 37.5q84 0 122 -37.5t38 -121.5t-38 -122 t-122 -38q-86 0 -124 38t-38 122z" />
<glyph unicode="&#xc5;" horiz-adv-x="1697" d="M31 0l635 1434h366l635 -1434h-348l-105 240h-731l-104 -240h-348zM594 1792q0 133 61.5 194.5t194.5 61.5t194.5 -61.5t61.5 -194.5t-61.5 -194.5t-194.5 -61.5t-194.5 61.5t-61.5 194.5zM616 547h467l-233 538zM774 1792q0 -74 76 -74q74 0 74 74t-74 74q-76 0 -76 -74 z" />
<glyph unicode="&#xc6;" horiz-adv-x="2412" d="M31 0l942 1434h1347v-308h-835v-266h733v-287h-733v-266h835v-307h-1163v240h-592l-155 -240h-379zM764 547h393v608z" />
<glyph unicode="&#xc7;" horiz-adv-x="1628" d="M82 717q0 387 175 562t562 175q338 0 513 -132t214 -421h-338q-35 127 -129 186.5t-260 59.5q-215 0 -312 -102.5t-97 -327.5t97 -327.5t312 -102.5q166 0 260.5 59.5t128.5 185.5h338q-35 -260 -180 -393t-420 -155l-14 -70q98 0 156.5 -56.5t58.5 -154.5 q0 -100 -69.5 -147.5t-221.5 -47.5q-166 0 -239.5 57.5t-73.5 186.5h162q0 -92 137 -92q106 0 106 64q0 53 -61.5 77.5t-198.5 24.5l35 156q-334 20 -487.5 196.5t-153.5 538.5z" />
<glyph unicode="&#xc8;" horiz-adv-x="1419" d="M123 0v1434h1204v-308h-876v-266h774v-287h-774v-266h876v-307h-1204zM332 1798l170 223l411 -331l-112 -154z" />
<glyph unicode="&#xc9;" horiz-adv-x="1419" d="M123 0v1434h1204v-308h-876v-266h774v-287h-774v-266h876v-307h-1204zM537 1690l411 331l170 -223l-469 -262z" />
<glyph unicode="&#xca;" horiz-adv-x="1419" d="M123 0v1434h1204v-308h-876v-266h774v-287h-774v-266h876v-307h-1204zM313 1669l412 311l412 -311l-113 -153l-299 188l-299 -188z" />
<glyph unicode="&#xcb;" horiz-adv-x="1419" d="M123 0v1434h1204v-308h-876v-266h774v-287h-774v-266h876v-307h-1204zM346 1696q0 84 38 121.5t122 37.5q86 0 125 -37.5t39 -121.5t-39 -122t-125 -38q-84 0 -122 38t-38 122zM782 1696q0 84 38 121.5t124 37.5q84 0 122 -37.5t38 -121.5t-38 -122t-122 -38 q-86 0 -124 38t-38 122z" />
<glyph unicode="&#xcc;" horiz-adv-x="573" d="M-106 1798l169 223l412 -331l-113 -154zM123 0v1434h328v-1434h-328z" />
<glyph unicode="&#xcd;" horiz-adv-x="573" d="M98 1690l412 331l170 -223l-469 -262zM123 0v1434h328v-1434h-328z" />
<glyph unicode="&#xce;" horiz-adv-x="573" d="M-125 1669l412 311l411 -311l-112 -153l-299 188l-299 -188zM123 0v1434h328v-1434h-328z" />
<glyph unicode="&#xcf;" horiz-adv-x="573" d="M-92 1696q0 84 38 121.5t122 37.5q86 0 124.5 -37.5t38.5 -121.5t-38.5 -122t-124.5 -38q-84 0 -122 38t-38 122zM123 0v1434h328v-1434h-328zM344 1696q0 84 38 121.5t124 37.5q84 0 122 -37.5t38 -121.5t-38 -122t-122 -38q-86 0 -124 38t-38 122z" />
<glyph unicode="&#xd0;" horiz-adv-x="1566" d="M10 594v246h123v594h615q387 0 562 -170t175 -547t-175 -547t-562 -170h-615v594h-123zM461 307h276q221 0 320.5 97.5t99.5 312.5t-99.5 312t-320.5 97h-276v-286h348v-246h-348v-287z" />
<glyph unicode="&#xd1;" horiz-adv-x="1679" d="M123 0v1434h328l778 -951v951h327v-1434h-327l-778 950v-950h-328zM453 1556q0 150 54 219.5t165 69.5q84 0 189.5 -43t119.5 -43q45 0 45 76h199q0 -289 -217 -289q-84 0 -188.5 43t-123.5 43q-47 0 -47 -76h-196z" />
<glyph unicode="&#xd2;" horiz-adv-x="1638" d="M82 717q0 387 175 562t562 175t562 -175t175 -562t-175 -562t-562 -175t-562 175t-175 562zM410 717q0 -225 97 -327.5t312 -102.5t312.5 102.5t97.5 327.5t-97.5 327.5t-312.5 102.5t-312 -102.5t-97 -327.5zM426 1798l170 223l412 -331l-113 -154z" />
<glyph unicode="&#xd3;" horiz-adv-x="1638" d="M82 717q0 387 175 562t562 175t562 -175t175 -562t-175 -562t-562 -175t-562 175t-175 562zM410 717q0 -225 97 -327.5t312 -102.5t312.5 102.5t97.5 327.5t-97.5 327.5t-312.5 102.5t-312 -102.5t-97 -327.5zM631 1690l411 331l170 -223l-469 -262z" />
<glyph unicode="&#xd4;" horiz-adv-x="1638" d="M82 717q0 387 175 562t562 175t562 -175t175 -562t-175 -562t-562 -175t-562 175t-175 562zM408 1669l411 311l412 -311l-113 -153l-299 188l-299 -188zM410 717q0 -225 97 -327.5t312 -102.5t312.5 102.5t97.5 327.5t-97.5 327.5t-312.5 102.5t-312 -102.5t-97 -327.5z " />
<glyph unicode="&#xd5;" horiz-adv-x="1638" d="M82 717q0 387 175 562t562 175t562 -175t175 -562t-175 -562t-562 -175t-562 175t-175 562zM410 717q0 -225 97 -327.5t312 -102.5t312.5 102.5t97.5 327.5t-97.5 327.5t-312.5 102.5t-312 -102.5t-97 -327.5zM432 1556q0 150 54.5 219.5t164.5 69.5q84 0 189.5 -43 t120.5 -43q45 0 45 76h198q0 -289 -217 -289q-84 0 -188.5 43t-122.5 43q-47 0 -47 -76h-197z" />
<glyph unicode="&#xd6;" horiz-adv-x="1638" d="M82 717q0 387 175 562t562 175t562 -175t175 -562t-175 -562t-562 -175t-562 175t-175 562zM410 717q0 -225 97 -327.5t312 -102.5t312.5 102.5t97.5 327.5t-97.5 327.5t-312.5 102.5t-312 -102.5t-97 -327.5zM440 1696q0 84 38 121.5t122 37.5q86 0 125 -37.5t39 -121.5 t-39 -122t-125 -38q-84 0 -122 38t-38 122zM877 1696q0 84 37.5 121.5t123.5 37.5q84 0 122 -37.5t38 -121.5t-38 -122t-122 -38q-86 0 -123.5 38t-37.5 122z" />
<glyph unicode="&#xd7;" d="M143 377l340 340l-340 340l203 203l340 -340l342 340l203 -203l-340 -340l340 -340l-203 -203l-340 340l-342 -340z" />
<glyph unicode="&#xd8;" horiz-adv-x="1638" d="M82 717q0 387 175 562t562 175q174 0 299 -33l31 54h217l-74 -127q264 -160 264 -631q0 -387 -175 -562t-562 -175q-174 0 -299 32l-31 -53h-217l74 127q-264 160 -264 631zM410 717q0 -238 106 -336l436 754q-59 12 -133 12q-215 0 -312 -102.5t-97 -327.5zM686 299 q59 -12 133 -12q215 0 312.5 102.5t97.5 327.5q0 238 -107 336z" />
<glyph unicode="&#xd9;" horiz-adv-x="1617" d="M113 627v807h327v-783q0 -190 88 -277t280.5 -87t281 87t88.5 277v783h327v-807q0 -340 -165.5 -493.5t-530.5 -153.5t-530.5 153.5t-165.5 493.5zM416 1798l170 223l411 -331l-112 -154z" />
<glyph unicode="&#xda;" horiz-adv-x="1617" d="M113 627v807h327v-783q0 -190 88 -277t280.5 -87t281 87t88.5 277v783h327v-807q0 -340 -165.5 -493.5t-530.5 -153.5t-530.5 153.5t-165.5 493.5zM621 1690l411 331l170 -223l-469 -262z" />
<glyph unicode="&#xdb;" horiz-adv-x="1617" d="M113 627v807h327v-783q0 -190 88 -277t280.5 -87t281 87t88.5 277v783h327v-807q0 -340 -165.5 -493.5t-530.5 -153.5t-530.5 153.5t-165.5 493.5zM397 1669l412 311l412 -311l-113 -153l-299 188l-299 -188z" />
<glyph unicode="&#xdc;" horiz-adv-x="1617" d="M113 627v807h327v-783q0 -190 88 -277t280.5 -87t281 87t88.5 277v783h327v-807q0 -340 -165.5 -493.5t-530.5 -153.5t-530.5 153.5t-165.5 493.5zM430 1696q0 84 38 121.5t122 37.5q86 0 125 -37.5t39 -121.5t-39 -122t-125 -38q-84 0 -122 38t-38 122zM866 1696 q0 84 38 121.5t124 37.5q84 0 122 -37.5t38 -121.5t-38 -122t-122 -38q-86 0 -124 38t-38 122z" />
<glyph unicode="&#xdd;" horiz-adv-x="1636" d="M31 1434h389l399 -594l398 594h389l-623 -891v-543h-328v541zM631 1690l411 331l170 -223l-469 -262z" />
<glyph unicode="&#xde;" horiz-adv-x="1433" d="M123 0v1434h328v-226h409q268 0 390 -116.5t122 -374.5t-122 -375t-390 -117h-409v-225h-328zM451 532h389q106 0 155 44.5t49 140.5t-49 140t-155 44h-389v-369z" />
<glyph unicode="&#xdf;" horiz-adv-x="1267" d="M102 0v1100q0 240 126 348t399 108q262 0 379.5 -104t117.5 -336q0 -225 -108 -325q190 -90 190 -371q0 -221 -113.5 -320.5t-365.5 -99.5h-184v266h172q96 0 140 47t44 147.5t-44 147.5t-142 47h-129v226h75q158 0 158 190q0 106 -46 152.5t-157 46.5q-104 0 -154 -40 t-50 -126v-1104h-308z" />
<glyph unicode="&#xe0;" horiz-adv-x="1210" d="M61 319q0 180 104.5 258t338.5 78h295q-8 86 -59.5 125t-153.5 39q-172 0 -201 -123h-303q23 203 144.5 296t369.5 93q270 0 391 -111.5t121 -359.5v-614h-307v84q-113 -104 -344 -104q-205 0 -300.5 80.5t-95.5 258.5zM193 1450l169 223l412 -332l-112 -153zM369 332 q0 -86 168 -86q119 0 181 42t83 132v10h-213q-219 0 -219 -98z" />
<glyph unicode="&#xe1;" horiz-adv-x="1210" d="M61 319q0 180 104.5 258t338.5 78h295q-8 86 -59.5 125t-153.5 39q-172 0 -201 -123h-303q23 203 144.5 296t369.5 93q270 0 391 -111.5t121 -359.5v-614h-307v84q-113 -104 -344 -104q-205 0 -300.5 80.5t-95.5 258.5zM369 332q0 -86 168 -86q119 0 181 42t83 132v10 h-213q-219 0 -219 -98zM397 1341l412 332l170 -223l-469 -262z" />
<glyph unicode="&#xe2;" horiz-adv-x="1210" d="M61 319q0 180 104.5 258t338.5 78h295q-8 86 -59.5 125t-153.5 39q-172 0 -201 -123h-303q23 203 144.5 296t369.5 93q270 0 391 -111.5t121 -359.5v-614h-307v84q-113 -104 -344 -104q-205 0 -300.5 80.5t-95.5 258.5zM174 1321l412 311l411 -311l-112 -154l-299 189 l-299 -189zM369 332q0 -86 168 -86q119 0 181 42t83 132v10h-213q-219 0 -219 -98z" />
<glyph unicode="&#xe3;" horiz-adv-x="1210" d="M61 319q0 180 104.5 258t338.5 78h295q-8 86 -59.5 125t-153.5 39q-172 0 -201 -123h-303q23 203 144.5 296t369.5 93q270 0 391 -111.5t121 -359.5v-614h-307v84q-113 -104 -344 -104q-205 0 -300.5 80.5t-95.5 258.5zM199 1208q0 150 54 219.5t165 69.5q84 0 189.5 -43 t119.5 -43q45 0 45 76h199q0 -289 -217 -289q-84 0 -188.5 43t-123.5 43q-47 0 -47 -76h-196zM369 332q0 -86 168 -86q119 0 181 42t83 132v10h-213q-219 0 -219 -98z" />
<glyph unicode="&#xe4;" horiz-adv-x="1210" d="M61 319q0 180 104.5 258t338.5 78h295q-8 86 -59.5 125t-153.5 39q-172 0 -201 -123h-303q23 203 144.5 296t369.5 93q270 0 391 -111.5t121 -359.5v-614h-307v84q-113 -104 -344 -104q-205 0 -300.5 80.5t-95.5 258.5zM207 1348q0 84 38 121.5t122 37.5 q86 0 124.5 -37.5t38.5 -121.5t-38.5 -122t-124.5 -38q-84 0 -122 38t-38 122zM369 332q0 -86 168 -86q119 0 181 42t83 132v10h-213q-219 0 -219 -98zM643 1348q0 84 38 121.5t124 37.5q84 0 122 -37.5t38 -121.5t-38 -122t-122 -38q-86 0 -124 38t-38 122z" />
<glyph unicode="&#xe5;" horiz-adv-x="1210" d="M61 319q0 180 104.5 258t338.5 78h295q-8 86 -59.5 125t-153.5 39q-172 0 -201 -123h-303q23 203 144.5 296t369.5 93q270 0 391 -111.5t121 -359.5v-614h-307v84q-113 -104 -344 -104q-205 0 -300.5 80.5t-95.5 258.5zM330 1444q0 133 61.5 194.5t194.5 61.5 t194.5 -61.5t61.5 -194.5t-61.5 -194.5t-194.5 -61.5t-194.5 61.5t-61.5 194.5zM369 332q0 -86 168 -86q119 0 181 42t83 132v10h-213q-219 0 -219 -98zM510 1444q0 -74 76 -74q74 0 74 74t-74 74q-76 0 -76 -74z" />
<glyph unicode="&#xe6;" horiz-adv-x="1955" d="M61 319q0 180 104.5 258t338.5 78h305q-20 164 -223 164q-172 0 -201 -123h-303q23 203 144.5 296t369.5 93q256 0 375 -98q125 98 375 98q291 0 419.5 -130t128.5 -412q0 -43 -4 -109h-776q33 -188 238 -188q154 0 209 102h317q-39 -203 -174 -285.5t-354 -82.5 q-352 0 -469 202q-107 -202 -424 -202q-205 0 -300.5 80.5t-95.5 258.5zM369 332q0 -86 168 -86q123 0 188.5 44t85.5 140h-223q-219 0 -219 -98zM1118 659h467q-41 160 -233.5 160t-233.5 -160z" />
<glyph unicode="&#xe7;" horiz-adv-x="1193" d="M61 532q0 291 127 422t408 131q258 0 387 -107.5t150 -342.5h-304q-18 86 -72.5 125t-154.5 39q-123 0 -178 -62.5t-55 -204.5q0 -139 55 -202.5t178 -63.5q193 0 227 164h304q-18 -207 -121 -315.5t-303 -128.5l-15 -72q98 0 156.5 -56.5t58.5 -154.5 q0 -100 -69.5 -147.5t-221.5 -47.5q-166 0 -239.5 57.5t-73.5 186.5h162q0 -92 137 -92q106 0 107 64q0 53 -61.5 77.5t-198.5 24.5l34 160q-221 23 -322.5 154.5t-101.5 391.5z" />
<glyph unicode="&#xe8;" horiz-adv-x="1218" d="M61 532.5q0 288.5 130.5 420.5t419 132t417.5 -131t129 -422q0 -33 -4 -98h-776q33 -188 237 -188q154 0 209 102h318q-39 -205 -174.5 -286.5t-356.5 -81.5q-289 0 -419 132t-130 420.5zM217 1450l170 223l412 -332l-113 -153zM381 659h467q-41 160 -233.5 160 t-233.5 -160z" />
<glyph unicode="&#xe9;" horiz-adv-x="1218" d="M61 532.5q0 288.5 130.5 420.5t419 132t417.5 -131t129 -422q0 -33 -4 -98h-776q33 -188 237 -188q154 0 209 102h318q-39 -205 -174.5 -286.5t-356.5 -81.5q-289 0 -419 132t-130 420.5zM381 659h467q-41 160 -233.5 160t-233.5 -160zM422 1341l412 332l170 -223 l-469 -262z" />
<glyph unicode="&#xea;" horiz-adv-x="1218" d="M61 532.5q0 288.5 130.5 420.5t419 132t417.5 -131t129 -422q0 -33 -4 -98h-776q33 -188 237 -188q154 0 209 102h318q-39 -205 -174.5 -286.5t-356.5 -81.5q-289 0 -419 132t-130 420.5zM199 1321l411 311l412 -311l-113 -154l-299 189l-299 -189zM381 659h467 q-41 160 -233.5 160t-233.5 -160z" />
<glyph unicode="&#xeb;" horiz-adv-x="1218" d="M61 532.5q0 288.5 130.5 420.5t419 132t417.5 -131t129 -422q0 -33 -4 -98h-776q33 -188 237 -188q154 0 209 102h318q-39 -205 -174.5 -286.5t-356.5 -81.5q-289 0 -419 132t-130 420.5zM231 1348q0 84 38 121.5t122 37.5q86 0 125 -37.5t39 -121.5t-39 -122t-125 -38 q-84 0 -122 38t-38 122zM381 659h467q-41 160 -233.5 160t-233.5 -160zM668 1348q0 84 37.5 121.5t123.5 37.5q84 0 122 -37.5t38 -121.5t-38 -122t-122 -38q-86 0 -123.5 38t-37.5 122z" />
<glyph unicode="&#xec;" horiz-adv-x="458" d="M-164 1450l170 223l412 -332l-113 -153zM76 0v1065h307v-1065h-307z" />
<glyph unicode="&#xed;" horiz-adv-x="458" d="M41 1341l412 332l170 -223l-469 -262zM76 0v1065h307v-1065h-307z" />
<glyph unicode="&#xee;" horiz-adv-x="458" d="M-158 1321l387 311l387 -311l-112 -154l-275 189l-274 -189zM76 0v1065h307v-1065h-307z" />
<glyph unicode="&#xef;" horiz-adv-x="458" d="M-129 1348q0 84 38 121.5t122 37.5q86 0 125 -37.5t39 -121.5t-39 -122t-125 -38q-84 0 -122 38t-38 122zM76 0v1065h307v-1065h-307zM266 1348q0 84 38 121.5t124 37.5q84 0 122 -37.5t38 -121.5t-38 -122t-122 -38q-86 0 -124 38t-38 122z" />
<glyph unicode="&#xf0;" horiz-adv-x="1239" d="M61 539q0 287 126 416.5t405 129.5q213 0 268 -77q-6 141 -65.5 202.5t-206.5 71.5h-15l-110 -154l-156 80l64 88l-199 15v245l369 -24l118 166l156 -80l-76 -107q238 -47 333 -229t95 -543q0 -295 -59 -461.5t-176 -232t-318 -65.5q-291 0 -422 132t-131 427zM369 534.5 q0 -139.5 58 -204t187 -64.5t187.5 64.5t58.5 204t-58.5 202t-187.5 62.5t-187 -62.5t-58 -202z" />
<glyph unicode="&#xf1;" horiz-adv-x="1257" d="M102 0v1065h308v-90q104 111 321 110q221 0 322.5 -116.5t101.5 -374.5v-594h-307v594q0 106 -50 155.5t-159 49.5q-123 0 -176 -62.5t-53 -204.5v-532h-308zM242 1208q0 150 54 219.5t165 69.5q84 0 189.5 -43t119.5 -43q45 0 45 76h199q0 -289 -217 -289 q-84 0 -188.5 43t-123.5 43q-47 0 -47 -76h-196z" />
<glyph unicode="&#xf2;" horiz-adv-x="1228" d="M61 532.5q0 290.5 131.5 421.5t422 131t421.5 -131t131 -421.5t-131 -421.5t-421.5 -131t-422 131t-131.5 421.5zM221 1450l170 223l412 -332l-113 -153zM369 532q0 -139 58 -202.5t187 -63.5t187.5 63.5t58.5 202.5q0 141 -58.5 204t-187.5 63t-187 -62.5t-58 -204.5z " />
<glyph unicode="&#xf3;" horiz-adv-x="1228" d="M61 532.5q0 290.5 131.5 421.5t422 131t421.5 -131t131 -421.5t-131 -421.5t-421.5 -131t-422 131t-131.5 421.5zM369 532q0 -139 58 -202.5t187 -63.5t187.5 63.5t58.5 202.5q0 141 -58.5 204t-187.5 63t-187 -63t-58 -204zM426 1341l412 332l170 -223l-469 -262z" />
<glyph unicode="&#xf4;" horiz-adv-x="1228" d="M61 532.5q0 290.5 131.5 421.5t422 131t421.5 -131t131 -421.5t-131 -421.5t-421.5 -131t-422 131t-131.5 421.5zM203 1321l411 311l412 -311l-113 -154l-299 189l-299 -189zM369 532q0 -139 58 -202.5t187 -63.5t187.5 63.5t58.5 202.5q0 141 -58.5 204t-187.5 63 t-187 -62.5t-58 -204.5z" />
<glyph unicode="&#xf5;" horiz-adv-x="1228" d="M61 532.5q0 290.5 131.5 421.5t422 131t421.5 -131t131 -421.5t-131 -421.5t-421.5 -131t-422 131t-131.5 421.5zM227 1208q0 150 54.5 219.5t164.5 69.5q84 0 189.5 -43t120.5 -43q45 0 45 76h198q0 -289 -217 -289q-84 0 -188.5 43t-122.5 43q-47 0 -47 -76h-197z M369 532q0 -139 58 -202.5t187 -63.5t187.5 63.5t58.5 202.5q0 141 -58.5 204t-187.5 63t-187 -62.5t-58 -204.5z" />
<glyph unicode="&#xf6;" horiz-adv-x="1228" d="M61 532.5q0 290.5 131.5 421.5t422 131t421.5 -131t131 -421.5t-131 -421.5t-421.5 -131t-422 131t-131.5 421.5zM236 1348q0 84 37.5 121.5t121.5 37.5q86 0 125 -37.5t39 -121.5t-39 -122t-125 -38q-84 0 -121.5 38t-37.5 122zM369 532q0 -139 58 -202.5t187 -63.5 t187.5 63.5t58.5 202.5q0 141 -58.5 204t-187.5 63t-187 -62.5t-58 -204.5zM672 1348q0 84 38 121.5t124 37.5q84 0 121.5 -37.5t37.5 -121.5t-37.5 -122t-121.5 -38q-86 0 -124 38t-38 122z" />
<glyph unicode="&#xf7;" d="M123 573v287h1126v-287h-1126zM502 225.5q0 96.5 44 140.5t140 44t140 -44t44 -140.5t-44 -140.5t-140 -44t-140 44t-44 140.5zM502 1208.5q0 96.5 44 140.5t140 44t140 -44t44 -140.5t-44 -140.5t-140 -44t-140 44t-44 140.5z" />
<glyph unicode="&#xf8;" horiz-adv-x="1228" d="M61 532q0 291 131.5 422t421.5 131q131 0 226 -24l26 45h164l-57 -100q195 -123 194 -474q0 -291 -131 -421.5t-422 -130.5q-127 0 -221 24l-31 -55h-163l63 108q-201 121 -201 475zM369 532q0 -135 53 -196l264 457q-33 6 -72 6q-129 0 -187 -62.5t-58 -204.5zM549 270 q41 -4 65 -4q129 0 187.5 63.5t58.5 202.5q0 129 -49 193z" />
<glyph unicode="&#xf9;" horiz-adv-x="1249" d="M102 471v594h308v-594q0 -106 50 -155.5t156 -49.5q119 0 171.5 62.5t52.5 203.5v533h307v-1065h-307v88q-106 -109 -316 -108q-219 0 -320.5 116.5t-101.5 374.5zM231 1450l170 223l412 -332l-113 -153z" />
<glyph unicode="&#xfa;" horiz-adv-x="1249" d="M102 471v594h308v-594q0 -106 50 -155.5t156 -49.5q119 0 171.5 62.5t52.5 203.5v533h307v-1065h-307v88q-106 -109 -316 -108q-219 0 -320.5 116.5t-101.5 374.5zM436 1341l412 332l170 -223l-469 -262z" />
<glyph unicode="&#xfb;" horiz-adv-x="1249" d="M102 471v594h308v-594q0 -106 50 -155.5t156 -49.5q119 0 171.5 62.5t52.5 203.5v533h307v-1065h-307v88q-106 -109 -316 -108q-219 0 -320.5 116.5t-101.5 374.5zM213 1321l412 311l411 -311l-112 -154l-299 189l-299 -189z" />
<glyph unicode="&#xfc;" horiz-adv-x="1249" d="M102 471v594h308v-594q0 -106 50 -155.5t156 -49.5q119 0 171.5 62.5t52.5 203.5v533h307v-1065h-307v88q-106 -109 -316 -108q-219 0 -320.5 116.5t-101.5 374.5zM246 1348q0 84 38 121.5t122 37.5q86 0 124.5 -37.5t38.5 -121.5t-38.5 -122t-124.5 -38q-84 0 -122 38 t-38 122zM682 1348q0 84 38 121.5t124 37.5q84 0 122 -37.5t38 -121.5t-38 -122t-122 -38q-86 0 -124 38t-38 122z" />
<glyph unicode="&#xfd;" horiz-adv-x="1198" d="M20 1065h328l252 -659l248 659h330l-611 -1577h-329l198 512zM412 1341l411 332l170 -223l-469 -262z" />
<glyph unicode="&#xfe;" horiz-adv-x="1269" d="M102 -512v2048h308v-567q111 117 338 116q242 0 351 -131t109 -421.5t-109.5 -421.5t-350.5 -131q-227 0 -338 116v-608h-308zM414 532q0 -141 58 -203.5t185 -62.5t185.5 62.5t58.5 203.5q0 139 -58.5 203t-185.5 64t-185 -63.5t-58 -203.5z" />
<glyph unicode="&#xff;" horiz-adv-x="1198" d="M20 1065h328l252 -659l248 659h330l-611 -1577h-329l198 512zM221 1348q0 84 38 121.5t122 37.5q86 0 125 -37.5t39 -121.5t-39 -122t-125 -38q-84 0 -122 38t-38 122zM657 1348q0 84 38 121.5t124 37.5q84 0 122 -37.5t38 -121.5t-38 -122t-122 -38q-86 0 -124 38 t-38 122z" />
<glyph unicode="&#x152;" horiz-adv-x="2529" d="M82 717q0 387 173 562t554 175q315 0 485 -117v97h1143v-308h-876v-266h774v-287h-774v-266h876v-307h-1143v96q-170 -117 -485 -116q-381 0 -554 175t-173 562zM410 717q0 -225 97 -327.5t312 -102.5t312.5 102.5t97.5 327.5t-97.5 327.5t-312.5 102.5t-312 -102.5 t-97 -327.5z" />
<glyph unicode="&#x153;" horiz-adv-x="2017" d="M61 532.5q0 290.5 124 421.5t399 131q311 0 430 -170q119 170 426 170q272 0 394 -131t122 -422q0 -33 -4 -98h-776q33 -188 237 -188q154 0 209 102h317q-37 -203 -163.5 -285.5t-335.5 -82.5q-307 0 -426 170q-119 -170 -430 -170q-274 0 -398.5 131t-124.5 421.5z M369 532q0 -139 58 -202.5t187 -63.5t187.5 63.5t58.5 202.5q0 141 -58.5 204t-187.5 63t-187 -62.5t-58 -204.5zM1180 659h467q-41 160 -233.5 160t-233.5 -160z" />
<glyph unicode="&#x178;" horiz-adv-x="1636" d="M31 1434h389l399 -594l398 594h389l-623 -891v-543h-328v541zM440 1696q0 84 38 121.5t122 37.5q86 0 125 -37.5t39 -121.5t-39 -122t-125 -38q-84 0 -122 38t-38 122zM877 1696q0 84 37.5 121.5t123.5 37.5q84 0 122 -37.5t38 -121.5t-38 -122t-122 -38q-86 0 -123.5 38 t-37.5 122z" />
<glyph unicode="&#x2c6;" horiz-adv-x="946" d="M61 1587l412 311l412 -311l-113 -153l-299 188l-299 -188z" />
<glyph unicode="&#x2dc;" horiz-adv-x="894" d="M61 1434q0 150 54.5 219t165.5 69q84 0 189 -43t120 -43q45 0 45 76h199q0 -289 -218 -289q-84 0 -188 43t-123 43q-47 0 -47 -75h-197z" />
<glyph unicode="&#x2000;" horiz-adv-x="1024" />
<glyph unicode="&#x2001;" horiz-adv-x="2048" />
<glyph unicode="&#x2002;" horiz-adv-x="1024" />
<glyph unicode="&#x2003;" horiz-adv-x="2048" />
<glyph unicode="&#x2004;" horiz-adv-x="682" />
<glyph unicode="&#x2005;" horiz-adv-x="512" />
<glyph unicode="&#x2006;" horiz-adv-x="341" />
<glyph unicode="&#x2007;" horiz-adv-x="341" />
<glyph unicode="&#x2008;" horiz-adv-x="256" />
<glyph unicode="&#x2009;" horiz-adv-x="409" />
<glyph unicode="&#x200a;" horiz-adv-x="113" />
<glyph unicode="&#x2010;" horiz-adv-x="819" d="M102 410v286h615v-286h-615z" />
<glyph unicode="&#x2011;" horiz-adv-x="819" d="M102 410v286h615v-286h-615z" />
<glyph unicode="&#x2012;" horiz-adv-x="819" d="M102 410v286h615v-286h-615z" />
<glyph unicode="&#x2013;" horiz-adv-x="1228" d="M102 410v286h1024v-286h-1024z" />
<glyph unicode="&#x2014;" horiz-adv-x="2048" d="M102 410v286h1844v-286h-1844z" />
<glyph unicode="&#x2018;" horiz-adv-x="614" d="M123 922v139q0 207 81 300t261 93v-121q-86 0 -126 -54t-42 -173q102 0 148.5 -41t46.5 -143q0 -96 -44.5 -140.5t-140.5 -44.5t-140 44t-44 141z" />
<glyph unicode="&#x2019;" horiz-adv-x="614" d="M123 1270q0 96 44 140t140 44t140.5 -44t44.5 -140v-140q0 -207 -81 -300t-261 -93v121q86 0 125.5 54.5t41.5 172.5q-102 0 -148 41.5t-46 143.5z" />
<glyph unicode="&#x201a;" horiz-adv-x="614" d="M123 162q0 96 44 140t140 44t140.5 -44t44.5 -140v-139q0 -207 -81 -300.5t-261 -93.5v121q86 0 125.5 54.5t41.5 172.5q-102 0 -148 41.5t-46 143.5z" />
<glyph unicode="&#x201c;" horiz-adv-x="1044" d="M123 922v139q0 207 81 300t261 93v-121q-86 0 -126 -54t-42 -173q102 0 148.5 -41t46.5 -143q0 -96 -44.5 -140.5t-140.5 -44.5t-140 44.5t-44 140.5zM553 922v139q0 207 81 300t261 93v-121q-86 0 -126 -54t-42 -173q102 0 148.5 -41t46.5 -143q0 -96 -44 -140.5 t-140.5 -44.5t-140.5 44.5t-44 140.5z" />
<glyph unicode="&#x201d;" horiz-adv-x="1044" d="M123 1270q0 96 44 140t140 44t140.5 -44t44.5 -140v-140q0 -207 -81 -300t-261 -93v121q86 0 125.5 54.5t41.5 172.5q-102 0 -148 41.5t-46 143.5zM553 1270q0 96 44 140t140.5 44t140.5 -44t44 -140v-140q0 -207 -81 -300t-261 -93v121q86 0 125.5 54.5t42.5 172.5 q-102 0 -148.5 41.5t-46.5 143.5z" />
<glyph unicode="&#x201e;" horiz-adv-x="1044" d="M123 162q0 96 44 140t140 44t140.5 -44t44.5 -140v-139q0 -207 -81 -300.5t-261 -93.5v121q86 0 125.5 54.5t41.5 172.5q-102 0 -148 41.5t-46 143.5zM553 162q0 96 44 140t140.5 44t140.5 -44t44 -140v-139q0 -207 -81 -300.5t-261 -93.5v121q86 0 125.5 54.5 t42.5 172.5q-102 0 -148.5 41.5t-46.5 143.5z" />
<glyph unicode="&#x2022;" horiz-adv-x="737" d="M102 553q0 139 63.5 202.5t203 63.5t203 -63.5t63.5 -202.5t-63.5 -202.5t-203 -63.5t-203 63.5t-63.5 202.5z" />
<glyph unicode="&#x2026;" horiz-adv-x="1843" d="M102 184.5q0 106.5 49.5 155.5t156 49t155.5 -49t49 -155.5t-49 -155.5t-155.5 -49t-156 49t-49.5 155.5zM717 184.5q0 106.5 49 155.5t155.5 49t155.5 -49t49 -155.5t-49 -155.5t-155.5 -49t-155.5 49t-49 155.5zM1331 184.5q0 106.5 49.5 155.5t155.5 49t155.5 -49 t49.5 -155.5t-49.5 -155.5t-155.5 -49t-155.5 49t-49.5 155.5z" />
<glyph unicode="&#x202f;" horiz-adv-x="409" />
<glyph unicode="&#x2039;" horiz-adv-x="622" d="M61 553l261 522l229 -112l-203 -410l203 -410l-229 -112z" />
<glyph unicode="&#x203a;" horiz-adv-x="622" d="M72 143l202 410l-202 410l229 112l260 -522l-260 -522z" />
<glyph unicode="&#x205f;" horiz-adv-x="512" />
<glyph unicode="&#x20ac;" horiz-adv-x="1761" d="M10 481v185h205v51v51h-205v184h223q47 260 221.5 381t497.5 121q338 0 513 -132t214 -421h-338q-35 127 -129 186.5t-260 59.5q-290 0 -370 -195h473v-184h-510q-2 -16 -2 -51t2 -51h510v-185h-473q80 -195 370 -194q166 0 260.5 59.5t128.5 185.5h338 q-39 -289 -214 -420.5t-513 -131.5q-324 0 -497.5 120.5t-221.5 380.5h-223z" />
<glyph unicode="&#x2122;" horiz-adv-x="1767" d="M18 1194v240h676v-240h-209v-477h-256v477h-211zM735 717v717h418l84 -424l80 424h420v-717h-256v411l-119 -411h-252l-119 411v-411h-256z" />
<glyph unicode="&#x25fc;" horiz-adv-x="1064" d="M0 0v1065h1065v-1065h-1065z" />
</font>
</defs>
</svg>
